<svg width="18" height="18" viewBox="0 0 18 18" fill="none" xmlns="http://www.w3.org/2000/svg">
<path d="M8.30769 2.18359C7.1096 2.18359 5.9384 2.54183 4.94222 3.213C3.94604 3.88416 3.16961 4.83812 2.71112 5.95423C2.25262 7.07034 2.13266 8.29847 2.3664 9.48333C2.60014 10.6682 3.17708 11.7565 4.02426 12.6108C4.87144 13.465 5.95082 14.0468 7.1259 14.2824C8.30097 14.5181 9.51897 14.3972 10.6259 13.9349C11.7328 13.4725 12.6789 12.6897 13.3445 11.6852C14.0101 10.6807 14.3654 9.49977 14.3654 8.2917C14.3654 6.67173 13.7272 5.11811 12.5911 3.97262C11.4551 2.82712 9.91429 2.18359 8.30769 2.18359ZM8.30769 13.5272C7.28075 13.5272 6.27687 13.2202 5.423 12.6449C4.56913 12.0696 3.90362 11.2519 3.51063 10.2952C3.11763 9.33858 3.01481 8.28589 3.21516 7.2703C3.4155 6.25471 3.91002 5.32183 4.63618 4.58963C5.36234 3.85743 6.28752 3.35879 7.29473 3.15678C8.30193 2.95477 9.34593 3.05845 10.2947 3.45471C11.2435 3.85097 12.0544 4.52202 12.6249 5.383C13.1955 6.24398 13.5 7.25621 13.5 8.2917C13.5 9.68024 12.953 11.0119 11.9792 11.9938C11.0055 12.9756 9.68478 13.5272 8.30769 13.5272Z" fill="black"/>
<path d="M11.4605 5.80018L7.44077 9.85771L5.15183 7.54536C5.07035 7.4632 4.95985 7.41705 4.84462 7.41705C4.72939 7.41705 4.61888 7.4632 4.53741 7.54536C4.45593 7.62751 4.41016 7.73894 4.41016 7.85513C4.41016 7.91266 4.42139 7.96962 4.44323 8.02277C4.46506 8.07592 4.49706 8.12421 4.53741 8.16489L7.13356 10.7827C7.17378 10.8235 7.22164 10.856 7.27437 10.8782C7.3271 10.9003 7.38365 10.9117 7.44077 10.9117C7.49789 10.9117 7.55445 10.9003 7.60718 10.8782C7.6599 10.856 7.70776 10.8235 7.74798 10.7827L12.0749 6.41972C12.1152 6.37904 12.1473 6.33075 12.1691 6.2776C12.1909 6.22445 12.2022 6.16748 12.2022 6.10995C12.2022 6.05242 12.1909 5.99546 12.1691 5.94231C12.1473 5.88916 12.1152 5.84086 12.0749 5.80018C12.0346 5.75951 11.9867 5.72724 11.934 5.70522C11.8812 5.68321 11.8247 5.67187 11.7677 5.67188C11.7106 5.67188 11.6541 5.68321 11.6014 5.70522C11.5487 5.72724 11.5008 5.75951 11.4605 5.80018Z" fill="black"/>
</svg>
