<?xml version="1.0" standalone="no"?>
<!DOCTYPE svg PUBLIC "-//W3C//DTD SVG 20010904//EN"
 "http://www.w3.org/TR/2001/REC-SVG-20010904/DTD/svg10.dtd">
<svg version="1.0" xmlns="http://www.w3.org/2000/svg"
 width="2442.000000pt" height="348.000000pt" viewBox="0 0 2442.000000 348.000000"
 preserveAspectRatio="xMidYMid meet">

<g transform="translate(0.000000,348.000000) scale(0.100000,-0.100000)"
fill="#0a6dfe" stroke="none">
<path d="M7780 3200 l0 -270 345 0 345 0 0 270 0 270 -345 0 -345 0 0 -270z"/>
<path d="M6644 3445 c-177 -32 -287 -83 -396 -184 -160 -147 -202 -269 -216
-611 l-7 -175 -232 -3 -233 -2 0 -235 0 -235 233 -2 232 -3 3 -987 2 -988 345
0 345 0 2 988 3 987 525 0 525 0 3 -997 2 -998 345 0 345 0 0 1235 0 1235
-212 2 c-117 1 -510 2 -873 2 l-660 1 0 130 c0 160 14 204 85 268 74 66 124
77 363 77 l197 0 0 255 0 255 -327 -1 c-220 -1 -351 -5 -399 -14z"/>

<path d="M13240 2907 c0 -299 -3 -546 -6 -550 -4 -3 -21 5 -38 18 -57 44 -194
106 -293 133 -93 25 -110 26 -323 26 -212 0 -231 -2 -323 -27 -350 -94 -618
-334 -762 -681 -64 -156 -86 -273 -92 -498 -6 -213 2 -298 42 -453 116 -444
448 -768 872 -851 131 -26 375 -23 513 5 169 36 322 107 441 206 22 19 45 35
50 35 5 0 9 -61 9 -135 l0 -135 315 0 315 0 0 1725 0 1725 -360 0 -360 0 0
-543z m-420 -895 c96 -34 143 -63 205 -126 33 -33 75 -88 92 -121 78 -148 115
-384 95 -599 -20 -213 -79 -372 -177 -471 -65 -67 -117 -99 -212 -131 -102
-35 -289 -44 -402 -20 -254 54 -420 243 -476 541 -26 136 -17 359 19 478 50
166 125 280 240 362 73 51 111 69 210 96 97 26 323 21 406 -9z"/>
<path d="M10000 2543 c-168 -17 -320 -58 -443 -119 -85 -43 -201 -122 -242
-164 -16 -16 -32 -30 -37 -30 -4 0 -8 56 -8 125 l0 125 -305 0 -305 0 0 -1235
0 -1235 350 0 349 0 3 722 c4 711 4 724 26 803 50 179 145 307 276 370 200 95
490 80 641 -34 108 -82 166 -177 213 -351 l26 -95 4 -708 3 -707 350 0 349 0
0 768 c0 463 -4 801 -10 852 -65 534 -368 853 -865 910 -84 9 -296 11 -375 3z"/>
<path d="M16354 2521 c-217 -39 -392 -119 -546 -253 l-58 -49 0 125 0 126
-310 0 -310 0 0 -1235 0 -1235 355 0 354 0 3 732 c4 672 5 738 22 798 65 234
202 370 417 416 110 24 292 15 382 -19 216 -80 331 -268 357 -587 5 -63 10
-391 10 -727 l0 -613 351 0 350 0 -4 817 c-4 790 -4 821 -25 913 -12 52 -24
104 -27 116 -6 17 3 25 58 52 83 41 186 62 305 62 206 0 338 -60 444 -201 50
-67 73 -117 106 -239 l26 -95 4 -713 3 -712 355 0 354 0 0 688 c0 702 -7 912
-36 1049 -54 265 -174 477 -341 603 -93 71 -229 135 -348 166 -86 23 -128 27
-297 31 -125 4 -232 1 -293 -6 -198 -25 -372 -89 -519 -191 l-74 -51 -55 44
c-118 96 -276 164 -448 192 -132 21 -432 19 -565 -4z"/>
<path d="M20371 2525 c-465 -89 -804 -437 -913 -938 -19 -89 -22 -132 -22
-332 0 -200 2 -242 21 -321 108 -458 416 -780 852 -890 551 -140 1087 80 1331
547 28 55 50 102 48 104 -2 2 -127 40 -278 85 -151 44 -283 83 -292 86 -12 3
-22 -5 -34 -28 -31 -63 -95 -136 -152 -175 -92 -64 -159 -85 -292 -91 -125 -5
-196 7 -287 50 -71 32 -181 148 -221 231 -34 71 -77 231 -67 247 4 6 304 10
825 10 l818 0 7 95 c13 174 -15 421 -67 585 -120 378 -376 631 -730 721 -108
28 -432 36 -547 14z m414 -520 c120 -32 207 -100 260 -205 27 -54 65 -185 65
-227 l0 -23 -515 0 c-484 0 -515 1 -515 18 0 36 58 181 94 235 73 109 196 187
336 210 63 11 220 6 275 -8z"/>
<path d="M22978 1943 l-3 -368 -392 -3 -393 -2 0 -300 0 -300 395 0 395 0 0
-370 0 -370 320 0 320 0 2 368 3 367 398 3 397 2 0 300 0 300 -397 2 -398 3
-3 368 -2 367 -320 0 -320 0 -2 -367z"/>
</g>
</svg>
