<svg width="92" height="90" viewBox="0 0 92 90" fill="none" xmlns="http://www.w3.org/2000/svg">
<path fill-rule="evenodd" clip-rule="evenodd" d="M45.6543 84.2402C66.9178 84.2402 84.1543 67.0038 84.1543 45.7402C84.1543 24.4767 66.9178 7.24023 45.6543 7.24023C24.3907 7.24023 7.1543 24.4767 7.1543 45.7402C7.1543 67.0038 24.3907 84.2402 45.6543 84.2402ZM57.2043 38.0402C57.2043 41.1035 55.9874 44.0413 53.8214 46.2073C51.6553 48.3734 48.7175 49.5902 45.6543 49.5902C42.591 49.5902 39.6533 48.3734 37.4872 46.2073C35.3212 44.0413 34.1043 41.1035 34.1043 38.0402C34.1043 34.977 35.3212 32.0392 37.4872 29.8732C39.6533 27.7071 42.591 26.4902 45.6543 26.4902C48.7175 26.4902 51.6553 27.7071 53.8214 29.8732C55.9874 32.0392 57.2043 34.977 57.2043 38.0402ZM22.5543 64.9902C25.2416 61.4016 28.7288 58.4892 32.7388 56.4842C36.7487 54.4792 41.171 53.4369 45.6543 53.4402C50.1376 53.4369 54.5599 54.4792 58.5698 56.4842C62.5798 58.4892 66.067 61.4016 68.7543 64.9902C66.067 68.5788 62.5798 71.4913 58.5698 73.4963C54.5599 75.5013 50.1376 76.5435 45.6543 76.5402C41.171 76.5435 36.7487 75.5013 32.7388 73.4963C28.7288 71.4913 25.2416 68.5788 22.5543 64.9902Z" fill="#148EFF"/>
</svg>
