<svg width="78" height="78" viewBox="0 0 78 78" fill="none" xmlns="http://www.w3.org/2000/svg">
<path fill-rule="evenodd" clip-rule="evenodd" d="M39.166 77.666C60.4296 77.666 77.666 60.4296 77.666 39.166C77.666 17.9025 60.4296 0.666016 39.166 0.666016C17.9025 0.666016 0.666016 17.9025 0.666016 39.166C0.666016 60.4296 17.9025 77.666 39.166 77.666ZM50.716 31.466C50.716 34.5293 49.4991 37.4671 47.3331 39.6331C45.1671 41.7991 42.2293 43.016 39.166 43.016C36.1028 43.016 33.165 41.7991 30.9989 39.6331C28.8329 37.4671 27.616 34.5293 27.616 31.466C27.616 28.4028 28.8329 25.465 30.9989 23.2989C33.165 21.1329 36.1028 19.916 39.166 19.916C42.2293 19.916 45.1671 21.1329 47.3331 23.2989C49.4991 25.465 50.716 28.4028 50.716 31.466ZM16.066 58.416C18.7533 54.8274 22.2405 51.9149 26.2505 49.91C30.2605 47.905 34.6827 46.8627 39.166 46.866C43.6493 46.8627 48.0716 47.905 52.0816 49.91C56.0915 51.9149 59.5787 54.8274 62.266 58.416C59.5787 62.0046 56.0915 64.9171 52.0816 66.9221C48.0716 68.9271 43.6493 69.9693 39.166 69.966C34.6827 69.9693 30.2605 68.9271 26.2505 66.9221C22.2405 64.9171 18.7533 62.0046 16.066 58.416Z" fill="#0A6DFE"/>
</svg>
