<svg width="14" height="17" viewBox="0 0 14 17" fill="none" xmlns="http://www.w3.org/2000/svg">
<rect width="14" height="17" fill="#9CAFFF"/>
<rect x="-224" y="-111" width="390" height="844" rx="33" fill="white"/>
<path d="M-89.8873 -7.78693C-90.9763 -7.78693 -91.9114 -8.02604 -92.6926 -8.50426C-93.4692 -8.98248 -94.0681 -9.64299 -94.4895 -10.4858C-94.9062 -11.3333 -95.1145 -12.3087 -95.1145 -13.4119C-95.1145 -14.5199 -94.9015 -15.4976 -94.4753 -16.3452C-94.0492 -17.1974 -93.4479 -17.8603 -92.6713 -18.3338C-91.8901 -18.812 -90.9668 -19.0511 -89.9015 -19.0511C-89.016 -19.0511 -88.2324 -18.8878 -87.5506 -18.5611C-86.8641 -18.2391 -86.3172 -17.7822 -85.91 -17.1903C-85.5028 -16.6032 -85.2708 -15.9167 -85.214 -15.1307H-87.6713C-87.7708 -15.6563 -88.0075 -16.0942 -88.3816 -16.4446C-88.7509 -16.7997 -89.2457 -16.9773 -89.8659 -16.9773C-90.3915 -16.9773 -90.8532 -16.8352 -91.2509 -16.5511C-91.6486 -16.2718 -91.9587 -15.8693 -92.1813 -15.3438C-92.3991 -14.8182 -92.508 -14.1884 -92.508 -13.4545C-92.508 -12.7112 -92.3991 -12.072 -92.1813 -11.5369C-91.9635 -11.0066 -91.6581 -10.5971 -91.2651 -10.3082C-90.8674 -10.0241 -90.401 -9.8821 -89.8659 -9.8821C-89.4872 -9.8821 -89.1486 -9.95313 -88.8503 -10.0952C-88.5473 -10.242 -88.294 -10.4527 -88.0904 -10.7273C-87.8868 -11.0019 -87.7471 -11.3357 -87.6713 -11.7287H-85.214C-85.2755 -10.9569 -85.5028 -10.2727 -85.8958 -9.67614C-86.2888 -9.08428 -86.8238 -8.62027 -87.5009 -8.28409C-88.178 -7.95265 -88.9734 -7.78693 -89.8873 -7.78693ZM-78.3443 -7.78693C-79.4096 -7.78693 -80.3329 -8.02131 -81.1142 -8.49006C-81.8954 -8.95881 -82.5015 -9.61458 -82.9324 -10.4574C-83.3585 -11.3002 -83.5716 -12.285 -83.5716 -13.4119C-83.5716 -14.5388 -83.3585 -15.526 -82.9324 -16.3736C-82.5015 -17.2211 -81.8954 -17.8793 -81.1142 -18.348C-80.3329 -18.8168 -79.4096 -19.0511 -78.3443 -19.0511C-77.2789 -19.0511 -76.3556 -18.8168 -75.5744 -18.348C-74.7931 -17.8793 -74.1895 -17.2211 -73.7633 -16.3736C-73.3324 -15.526 -73.117 -14.5388 -73.117 -13.4119C-73.117 -12.285 -73.3324 -11.3002 -73.7633 -10.4574C-74.1895 -9.61458 -74.7931 -8.95881 -75.5744 -8.49006C-76.3556 -8.02131 -77.2789 -7.78693 -78.3443 -7.78693ZM-78.3301 -9.84659C-77.7524 -9.84659 -77.2695 -10.0052 -76.8812 -10.3224C-76.493 -10.6444 -76.2041 -11.0753 -76.0147 -11.6151C-75.8206 -12.1548 -75.7235 -12.7562 -75.7235 -13.419C-75.7235 -14.0866 -75.8206 -14.6903 -76.0147 -15.2301C-76.2041 -15.7746 -76.493 -16.2079 -76.8812 -16.5298C-77.2695 -16.8518 -77.7524 -17.0128 -78.3301 -17.0128C-78.9219 -17.0128 -79.4144 -16.8518 -79.8074 -16.5298C-80.1956 -16.2079 -80.4868 -15.7746 -80.6809 -15.2301C-80.8703 -14.6903 -80.965 -14.0866 -80.965 -13.419C-80.965 -12.7562 -80.8703 -12.1548 -80.6809 -11.6151C-80.4868 -11.0753 -80.1956 -10.6444 -79.8074 -10.3224C-79.4144 -10.0052 -78.9219 -9.84659 -78.3301 -9.84659ZM-68.3638 -14.392V-8H-70.9348V-18.9091H-68.4775V-17.0554H-68.3496C-68.0987 -17.6662 -67.6986 -18.1515 -67.1493 -18.5114C-66.5953 -18.8712 -65.9112 -19.0511 -65.0968 -19.0511C-64.3439 -19.0511 -63.6882 -18.8902 -63.1294 -18.5682C-62.566 -18.2462 -62.1304 -17.7798 -61.8226 -17.169C-61.5101 -16.5582 -61.3562 -15.8172 -61.361 -14.946V-8H-63.932V-14.5483C-63.932 -15.2775 -64.1214 -15.848 -64.5002 -16.2599C-64.8742 -16.6719 -65.3927 -16.8778 -66.0556 -16.8778C-66.5054 -16.8778 -66.9055 -16.7784 -67.2559 -16.5795C-67.6015 -16.3854 -67.8738 -16.1037 -68.0726 -15.7344C-68.2667 -15.3651 -68.3638 -14.9176 -68.3638 -14.392ZM-53.2999 -18.9091V-16.9205H-59.5712V-18.9091H-53.2999ZM-58.0229 -21.5227H-55.4519V-11.2812C-55.4519 -10.9356 -55.3998 -10.6705 -55.2956 -10.4858C-55.1867 -10.3059 -55.0447 -10.1828 -54.8695 -10.1165C-54.6943 -10.0502 -54.5002 -10.017 -54.2871 -10.017C-54.1261 -10.017 -53.9793 -10.0289 -53.8468 -10.0526C-53.7095 -10.0762 -53.6053 -10.0975 -53.5343 -10.1165L-53.101 -8.10653C-53.2383 -8.05919 -53.4348 -8.0071 -53.6905 -7.95028C-53.9415 -7.89347 -54.2492 -7.86032 -54.6138 -7.85085C-55.2578 -7.83191 -55.8378 -7.92898 -56.3539 -8.14205C-56.87 -8.35985 -57.2795 -8.69602 -57.5826 -9.15057C-57.8809 -9.60511 -58.0276 -10.1733 -58.0229 -10.8551V-21.5227ZM-51.1497 -8V-18.9091H-48.5787V-8H-51.1497ZM-49.8571 -20.4574C-50.2643 -20.4574 -50.6146 -20.5923 -50.9082 -20.8622C-51.2018 -21.1368 -51.3485 -21.4659 -51.3485 -21.8494C-51.3485 -22.2377 -51.2018 -22.5668 -50.9082 -22.8366C-50.6146 -23.1113 -50.2643 -23.2486 -49.8571 -23.2486C-49.4451 -23.2486 -49.0948 -23.1113 -48.8059 -22.8366C-48.5124 -22.5668 -48.3656 -22.2377 -48.3656 -21.8494C-48.3656 -21.4659 -48.5124 -21.1368 -48.8059 -20.8622C-49.0948 -20.5923 -49.4451 -20.4574 -49.8571 -20.4574ZM-43.3638 -14.392V-8H-45.9348V-18.9091H-43.4775V-17.0554H-43.3496C-43.0987 -17.6662 -42.6986 -18.1515 -42.1493 -18.5114C-41.5953 -18.8712 -40.9112 -19.0511 -40.0968 -19.0511C-39.3439 -19.0511 -38.6882 -18.8902 -38.1294 -18.5682C-37.566 -18.2462 -37.1304 -17.7798 -36.8226 -17.169C-36.5101 -16.5582 -36.3562 -15.8172 -36.361 -14.946V-8H-38.932V-14.5483C-38.932 -15.2775 -39.1214 -15.848 -39.5002 -16.2599C-39.8742 -16.6719 -40.3927 -16.8778 -41.0556 -16.8778C-41.5054 -16.8778 -41.9055 -16.7784 -42.2559 -16.5795C-42.6015 -16.3854 -42.8738 -16.1037 -43.0726 -15.7344C-43.2667 -15.3651 -43.3638 -14.9176 -43.3638 -14.392ZM-26.7942 -12.5881V-18.9091H-24.2232V-8H-26.7161V-9.93892H-26.8297C-27.0759 -9.32813 -27.4808 -8.8286 -28.0442 -8.44034C-28.6029 -8.05208 -29.2918 -7.85795 -30.111 -7.85795C-30.8259 -7.85795 -31.458 -8.01657 -32.0073 -8.33381C-32.5518 -8.65578 -32.9779 -9.12216 -33.2857 -9.73295C-33.5935 -10.3485 -33.7473 -11.0919 -33.7473 -11.9631V-18.9091H-31.1763V-12.3608C-31.1763 -11.6695 -30.9869 -11.1203 -30.6081 -10.7131C-30.2293 -10.3059 -29.7322 -10.1023 -29.1167 -10.1023C-28.7379 -10.1023 -28.3709 -10.1946 -28.0158 -10.3793C-27.6607 -10.5639 -27.3695 -10.8385 -27.1422 -11.2031C-26.9102 -11.5724 -26.7942 -12.0341 -26.7942 -12.5881ZM-16.7498 -7.78693C-17.8436 -7.78693 -18.7882 -8.0142 -19.5836 -8.46875C-20.3743 -8.92803 -20.9828 -9.5767 -21.4089 -10.4148C-21.835 -11.2576 -22.0481 -12.2495 -22.0481 -13.3906C-22.0481 -14.5128 -21.835 -15.4976 -21.4089 -16.3452C-20.978 -17.1974 -20.3767 -17.8603 -19.6049 -18.3338C-18.8332 -18.812 -17.9264 -19.0511 -16.8848 -19.0511C-16.2124 -19.0511 -15.5779 -18.9422 -14.9814 -18.7244C-14.38 -18.5114 -13.8497 -18.1799 -13.3904 -17.7301C-12.9264 -17.2803 -12.5618 -16.7074 -12.2967 -16.0114C-12.0315 -15.3201 -11.899 -14.4962 -11.899 -13.5398V-12.7514H-20.8407V-14.4844H-14.3635C-14.3682 -14.9768 -14.4747 -15.4148 -14.6831 -15.7983C-14.8914 -16.1866 -15.1826 -16.492 -15.5566 -16.7145C-15.926 -16.937 -16.3568 -17.0483 -16.8493 -17.0483C-17.3748 -17.0483 -17.8365 -16.9205 -18.2342 -16.6648C-18.6319 -16.4138 -18.9421 -16.0824 -19.1646 -15.6705C-19.3824 -15.2633 -19.4937 -14.8158 -19.4984 -14.3281V-12.8153C-19.4984 -12.1809 -19.3824 -11.6364 -19.1504 -11.1818C-18.9184 -10.732 -18.594 -10.3864 -18.1774 -10.1449C-17.7607 -9.90814 -17.273 -9.78977 -16.7143 -9.78977C-16.3403 -9.78977 -16.0017 -9.84186 -15.6987 -9.94602C-15.3957 -10.0549 -15.1329 -10.2135 -14.9103 -10.4219C-14.6878 -10.6302 -14.5197 -10.8883 -14.4061 -11.196L-12.0055 -10.9261C-12.157 -10.2917 -12.4458 -9.73769 -12.872 -9.2642C-13.2934 -8.79545 -13.8332 -8.43087 -14.4913 -8.17045C-15.1494 -7.91477 -15.9023 -7.78693 -16.7498 -7.78693ZM-2.51154 -8L-5.59393 -18.9091H-2.97319L-1.05558 -11.2386H-0.956143L1.00408 -18.9091H3.59641L5.55664 -11.2812H5.66318L7.55238 -18.9091H10.1802L7.09073 -8H4.41318L2.36772 -15.3722H2.21857L0.173118 -8H-2.51154ZM11.9753 -8V-18.9091H14.5463V-8H11.9753ZM13.2679 -20.4574C12.8607 -20.4574 12.5104 -20.5923 12.2168 -20.8622C11.9232 -21.1368 11.7765 -21.4659 11.7765 -21.8494C11.7765 -22.2377 11.9232 -22.5668 12.2168 -22.8366C12.5104 -23.1113 12.8607 -23.2486 13.2679 -23.2486C13.6799 -23.2486 14.0302 -23.1113 14.3191 -22.8366C14.6126 -22.5668 14.7594 -22.2377 14.7594 -21.8494C14.7594 -21.4659 14.6126 -21.1368 14.3191 -20.8622C14.0302 -20.5923 13.6799 -20.4574 13.2679 -20.4574ZM22.6376 -18.9091V-16.9205H16.3663V-18.9091H22.6376ZM17.9146 -21.5227H20.4856V-11.2812C20.4856 -10.9356 20.5377 -10.6705 20.6419 -10.4858C20.7508 -10.3059 20.8928 -10.1828 21.068 -10.1165C21.2432 -10.0502 21.4373 -10.017 21.6504 -10.017C21.8114 -10.017 21.9582 -10.0289 22.0907 -10.0526C22.228 -10.0762 22.3322 -10.0975 22.4032 -10.1165L22.8365 -8.10653C22.6992 -8.05919 22.5027 -8.0071 22.247 -7.95028C21.996 -7.89347 21.6883 -7.86032 21.3237 -7.85085C20.6797 -7.83191 20.0997 -7.92898 19.5836 -8.14205C19.0675 -8.35985 18.658 -8.69602 18.3549 -9.15057C18.0566 -9.60511 17.9099 -10.1733 17.9146 -10.8551V-21.5227ZM27.5932 -14.392V-8H25.0222V-22.5455H27.5364V-17.0554H27.6642C27.9199 -17.6709 28.3153 -18.1563 28.8503 -18.5114C29.3901 -18.8712 30.0766 -19.0511 30.91 -19.0511C31.6676 -19.0511 32.3281 -18.8925 32.8915 -18.5753C33.455 -18.258 33.8906 -17.794 34.1983 -17.1832C34.5108 -16.5724 34.6671 -15.8267 34.6671 -14.946V-8H32.0961V-14.5483C32.0961 -15.2822 31.9067 -15.8527 31.5279 -16.2599C31.1538 -16.6719 30.6283 -16.8778 29.9512 -16.8778C29.4966 -16.8778 29.0894 -16.7784 28.7296 -16.5795C28.3745 -16.3854 28.0951 -16.1037 27.8915 -15.7344C27.6926 -15.3651 27.5932 -14.9176 27.5932 -14.392ZM-52.3171 16.2202C-53.0084 16.2202 -53.631 16.0971 -54.185 15.8509C-54.7343 15.5999 -55.1699 15.2306 -55.4918 14.7429C-55.8091 14.2552 -55.9677 13.6539 -55.9677 12.9389C-55.9677 12.3234 -55.854 11.8144 -55.6268 11.4119C-55.3995 11.0095 -55.0894 10.6875 -54.6964 10.446C-54.3034 10.2045 -53.8607 10.0223 -53.3683 9.89915C-52.8711 9.77131 -52.3574 9.67898 -51.8271 9.62216C-51.1879 9.55587 -50.6694 9.49669 -50.2717 9.4446C-49.8739 9.38778 -49.5851 9.30256 -49.4052 9.18892C-49.2205 9.07055 -49.1282 8.88826 -49.1282 8.64205V8.59943C-49.1282 8.06439 -49.2868 7.65009 -49.604 7.35653C-49.9213 7.06297 -50.3782 6.91619 -50.9748 6.91619C-51.6045 6.91619 -52.104 7.0535 -52.4734 7.32812C-52.8379 7.60275 -53.0842 7.92708 -53.212 8.30114L-55.6126 7.96023C-55.4232 7.29735 -55.1107 6.74337 -54.6751 6.2983C-54.2395 5.84848 -53.7068 5.51231 -53.0771 5.28977C-52.4473 5.0625 -51.7513 4.94886 -50.989 4.94886C-50.4634 4.94886 -49.9402 5.01042 -49.4194 5.13352C-48.8986 5.25663 -48.4227 5.46023 -47.9918 5.74432C-47.561 6.02367 -47.2153 6.40483 -46.9549 6.88778C-46.6897 7.37074 -46.5572 7.97443 -46.5572 8.69886V16H-49.0288V14.5014H-49.114C-49.2702 14.8045 -49.4904 15.0885 -49.7745 15.3537C-50.0539 15.6141 -50.4066 15.8248 -50.8327 15.9858C-51.2541 16.142 -51.7489 16.2202 -52.3171 16.2202ZM-51.6495 14.331C-51.1334 14.331 -50.686 14.2292 -50.3072 14.0256C-49.9284 13.8172 -49.6372 13.5426 -49.4336 13.2017C-49.2253 12.8608 -49.1211 12.4891 -49.1211 12.0866V10.8011C-49.2016 10.8674 -49.3389 10.929 -49.533 10.9858C-49.7224 11.0426 -49.9355 11.0923 -50.1722 11.1349C-50.409 11.1776 -50.6433 11.2154 -50.8754 11.2486C-51.1074 11.2817 -51.3086 11.3101 -51.479 11.3338C-51.8626 11.3859 -52.2058 11.4711 -52.5089 11.5895C-52.8119 11.7079 -53.051 11.8736 -53.2262 12.0866C-53.4014 12.295 -53.489 12.5649 -53.489 12.8963C-53.489 13.3698 -53.3162 13.7273 -52.9705 13.9688C-52.6249 14.2102 -52.1845 14.331 -51.6495 14.331ZM-43.9719 20.0909V5.09091H-41.4435V6.89489H-41.2944C-41.1618 6.62973 -40.9748 6.34801 -40.7333 6.04972C-40.4918 5.74669 -40.1651 5.48864 -39.7532 5.27557C-39.3413 5.05777 -38.8157 4.94886 -38.1765 4.94886C-37.3337 4.94886 -36.5737 5.1643 -35.8967 5.59517C-35.2148 6.02131 -34.6751 6.65341 -34.2773 7.49148C-33.8749 8.32481 -33.6737 9.34754 -33.6737 10.5597C-33.6737 11.7576 -33.8701 12.7756 -34.2631 13.6136C-34.6561 14.4517 -35.1912 15.0909 -35.8683 15.5312C-36.5453 15.9716 -37.3124 16.1918 -38.1694 16.1918C-38.7944 16.1918 -39.3129 16.0876 -39.7248 15.8793C-40.1367 15.6709 -40.4682 15.42 -40.7191 15.1264C-40.9653 14.8281 -41.1571 14.5464 -41.2944 14.2812H-41.4009V20.0909H-43.9719ZM-41.4506 10.5455C-41.4506 11.2509 -41.3512 11.8688 -41.1523 12.3991C-40.9487 12.9295 -40.6576 13.3437 -40.2788 13.642C-39.8952 13.9356 -39.4312 14.0824 -38.8867 14.0824C-38.3185 14.0824 -37.8427 13.9309 -37.4592 13.6278C-37.0756 13.3201 -36.7868 12.901 -36.5927 12.3707C-36.3938 11.8357 -36.2944 11.2273 -36.2944 10.5455C-36.2944 9.86837 -36.3915 9.26705 -36.5856 8.74148C-36.7797 8.21591 -37.0685 7.80398 -37.4521 7.50568C-37.8356 7.20739 -38.3138 7.05824 -38.8867 7.05824C-39.436 7.05824 -39.9023 7.20265 -40.2859 7.49148C-40.6694 7.7803 -40.9606 8.18513 -41.1594 8.70597C-41.3536 9.2268 -41.4506 9.83996 -41.4506 10.5455ZM-31.4719 20.0909V5.09091H-28.9435V6.89489H-28.7944C-28.6618 6.62973 -28.4748 6.34801 -28.2333 6.04972C-27.9918 5.74669 -27.6651 5.48864 -27.2532 5.27557C-26.8413 5.05777 -26.3157 4.94886 -25.6765 4.94886C-24.8337 4.94886 -24.0737 5.1643 -23.3967 5.59517C-22.7148 6.02131 -22.1751 6.65341 -21.7773 7.49148C-21.3749 8.32481 -21.1737 9.34754 -21.1737 10.5597C-21.1737 11.7576 -21.3701 12.7756 -21.7631 13.6136C-22.1561 14.4517 -22.6912 15.0909 -23.3683 15.5312C-24.0453 15.9716 -24.8124 16.1918 -25.6694 16.1918C-26.2944 16.1918 -26.8129 16.0876 -27.2248 15.8793C-27.6367 15.6709 -27.9682 15.42 -28.2191 15.1264C-28.4653 14.8281 -28.6571 14.5464 -28.7944 14.2812H-28.9009V20.0909H-31.4719ZM-28.9506 10.5455C-28.9506 11.2509 -28.8512 11.8688 -28.6523 12.3991C-28.4487 12.9295 -28.1576 13.3437 -27.7788 13.642C-27.3952 13.9356 -26.9312 14.0824 -26.3867 14.0824C-25.8185 14.0824 -25.3427 13.9309 -24.9592 13.6278C-24.5756 13.3201 -24.2868 12.901 -24.0927 12.3707C-23.8938 11.8357 -23.7944 11.2273 -23.7944 10.5455C-23.7944 9.86837 -23.8915 9.26705 -24.0856 8.74148C-24.2797 8.21591 -24.5685 7.80398 -24.9521 7.50568C-25.3356 7.20739 -25.8138 7.05824 -26.3867 7.05824C-26.936 7.05824 -27.4023 7.20265 -27.7859 7.49148C-28.1694 7.7803 -28.4606 8.18513 -28.6594 8.70597C-28.8536 9.2268 -28.9506 9.83996 -28.9506 10.5455ZM-16.4009 1.45455V16H-18.9719V1.45455H-16.4009ZM-8.92756 16.2131C-10.0213 16.2131 -10.9659 15.9858 -11.7614 15.5312C-12.5521 15.072 -13.1605 14.4233 -13.5866 13.5852C-14.0128 12.7424 -14.2259 11.7505 -14.2259 10.6094C-14.2259 9.48722 -14.0128 8.50237 -13.5866 7.65483C-13.1558 6.80256 -12.5545 6.13968 -11.7827 5.66619C-11.0109 5.18797 -10.1042 4.94886 -9.0625 4.94886C-8.39015 4.94886 -7.75568 5.05777 -7.15909 5.27557C-6.55776 5.48864 -6.02746 5.82008 -5.56818 6.26989C-5.10417 6.7197 -4.73958 7.29261 -4.47443 7.98864C-4.20928 8.67992 -4.0767 9.50379 -4.0767 10.4602V11.2486H-13.0185V9.51562H-6.54119C-6.54593 9.0232 -6.65246 8.58523 -6.8608 8.2017C-7.06913 7.81345 -7.36032 7.50805 -7.73438 7.28551C-8.10369 7.06297 -8.53456 6.9517 -9.02699 6.9517C-9.55256 6.9517 -10.0142 7.07955 -10.4119 7.33523C-10.8097 7.58617 -11.1198 7.91761 -11.3423 8.32955C-11.5601 8.73674 -11.6714 9.18419 -11.6761 9.67188V11.1847C-11.6761 11.8191 -11.5601 12.3636 -11.3281 12.8182C-11.0961 13.268 -10.7718 13.6136 -10.3551 13.8551C-9.93845 14.0919 -9.45076 14.2102 -8.89205 14.2102C-8.51799 14.2102 -8.17945 14.1581 -7.87642 14.054C-7.57339 13.9451 -7.31061 13.7865 -7.08807 13.5781C-6.86553 13.3698 -6.69744 13.1117 -6.58381 12.804L-4.18324 13.0739C-4.33475 13.7083 -4.62358 14.2623 -5.04972 14.7358C-5.47112 15.2045 -6.01089 15.5691 -6.66903 15.8295C-7.32718 16.0852 -8.08002 16.2131 -8.92756 16.2131Z" fill="black"/>
<path d="M9.11035 2.96387C9.6167 2.34961 9.97363 1.51123 9.97363 0.664551C9.97363 0.54834 9.96533 0.432129 9.94873 0.34082C9.11865 0.374023 8.12256 0.888672 7.5332 1.58594C7.06006 2.11719 6.62842 2.96387 6.62842 3.81055C6.62842 3.94336 6.65332 4.06787 6.66162 4.10938C6.71143 4.11768 6.79443 4.13428 6.88574 4.13428C7.62451 4.13428 8.5542 3.63623 9.11035 2.96387ZM9.69141 4.30859C8.45459 4.30859 7.44189 5.06396 6.79443 5.06396C6.10547 5.06396 5.20898 4.3584 4.12988 4.3584C2.07959 4.3584 0.00439453 6.05176 0.00439453 9.23926C0.00439453 11.2314 0.768066 13.3315 1.72266 14.6846C2.53613 15.8301 3.25 16.7681 4.2793 16.7681C5.29199 16.7681 5.74023 16.0957 7.00195 16.0957C8.28027 16.0957 8.5708 16.7515 9.69141 16.7515C10.8037 16.7515 11.5425 15.7305 12.248 14.7261C13.0283 13.5723 13.3604 12.4517 13.3687 12.3936C13.3022 12.377 11.1772 11.5054 11.1772 9.07324C11.1772 6.96484 12.8457 6.01855 12.9453 5.94385C11.8413 4.3584 10.1562 4.30859 9.69141 4.30859Z" fill="black"/>
</svg>
