<svg width="28" height="28" viewBox="0 0 20 20" fill="none" xmlns="http://www.w3.org/2000/svg">
<path d="M14.4004 6.66602C14.4004 5.33993 13.8947 4.06816 12.9945 3.13048C12.0943 2.1928 10.8734 1.66602 9.60039 1.66602C8.32735 1.66602 7.10645 2.1928 6.20628 3.13048C5.3061 4.06816 4.80039 5.33993 4.80039 6.66602C4.80039 12.4993 2.40039 14.166 2.40039 14.166H16.8004C16.8004 14.166 14.4004 12.4993 14.4004 6.66602Z" stroke="black" stroke-width="1.5" stroke-linecap="round" stroke-linejoin="round"/>
<path d="M10.9848 17.5C10.8441 17.7526 10.6423 17.9622 10.3994 18.1079C10.1565 18.2537 9.8811 18.3304 9.6008 18.3304C9.32049 18.3304 9.04511 18.2537 8.80222 18.1079C8.55932 17.9622 8.35745 17.7526 8.2168 17.5" stroke="black" stroke-width="1.5" stroke-linecap="round" stroke-linejoin="round"/>
</svg>
