<svg width="13" height="13" viewBox="0 0 13 13" fill="none" xmlns="http://www.w3.org/2000/svg">
<path d="M9.75 4.33203C9.75 3.47008 9.40759 2.64343 8.7981 2.03393C8.1886 1.42444 7.36195 1.08203 6.5 1.08203C5.63805 1.08203 4.8114 1.42444 4.2019 2.03393C3.59241 2.64343 3.25 3.47008 3.25 4.33203C3.25 8.1237 1.625 9.20703 1.625 9.20703H11.375C11.375 9.20703 9.75 8.1237 9.75 4.33203Z" stroke="black" stroke-linecap="round" stroke-linejoin="round"/>
<path d="M7.43667 11.375C7.34144 11.5392 7.20475 11.6754 7.04029 11.7702C6.87583 11.8649 6.68937 11.9147 6.49958 11.9147C6.30979 11.9147 6.12334 11.8649 5.95888 11.7702C5.79442 11.6754 5.65773 11.5392 5.5625 11.375" stroke="black" stroke-linecap="round" stroke-linejoin="round"/>
</svg>
