<svg width="68" height="15" viewBox="0 0 68 15" fill="none" xmlns="http://www.w3.org/2000/svg">
<path d="M13.0098 14.9772V3.97546H15.6232V7.62178H15.9911V14.9772H13.0098ZM20.9845 14.9772V9.78145C20.9845 9.53032 20.9693 9.20888 20.9414 8.81964C20.9135 8.4304 20.8221 8.03613 20.6724 7.64187C20.5202 7.2476 20.2741 6.91863 19.9315 6.65244C19.589 6.38876 19.1044 6.25566 18.4776 6.25566C18.2265 6.25566 17.955 6.29333 17.6682 6.36867C17.379 6.44401 17.11 6.58715 16.8589 6.8006C16.6077 7.01406 16.3996 7.32796 16.2372 7.74232C16.0748 8.15667 15.9936 8.70664 15.9936 9.3922L14.3089 8.63883C14.3089 7.76994 14.4966 6.95379 14.8696 6.19288C15.2426 5.43198 15.8084 4.81672 16.5594 4.34963C17.3105 3.88254 18.262 3.64648 19.4063 3.64648C20.3197 3.64648 21.0657 3.79214 21.6417 4.08344C22.2176 4.37474 22.6667 4.74641 22.9864 5.19341C23.3061 5.64041 23.5345 6.1075 23.6715 6.59468C23.8085 7.07935 23.8897 7.52384 23.9202 7.92313C23.9481 8.32493 23.9633 8.61623 23.9633 8.79955V14.9722H20.982L20.9845 14.9772Z" fill="#257EFF"/>
<path d="M29.4245 14.9996C28.4502 14.9996 27.5951 14.751 26.8619 14.2538C26.1286 13.7566 25.5577 13.0811 25.1492 12.2272C24.7407 11.3734 24.5352 10.4091 24.5352 9.3368C24.5352 8.2645 24.7432 7.27256 25.1593 6.42125C25.5754 5.56993 26.159 4.89943 26.9101 4.40974C27.6636 3.92005 28.5466 3.67395 29.5615 3.67395C30.5765 3.67395 31.4163 3.92256 32.1039 4.41979C32.7915 4.91701 33.3117 5.59254 33.6644 6.44636C34.017 7.30018 34.1947 8.2645 34.1947 9.3368C34.1947 10.4091 34.017 11.3734 33.6593 12.2272C33.3015 13.0811 32.7712 13.7566 32.0633 14.2538C31.3554 14.751 30.4775 14.9996 29.422 14.9996M29.5336 12.6491C30.1883 12.6491 30.7135 12.5085 31.1042 12.2297C31.495 11.951 31.7791 11.5567 31.9517 11.052C32.1242 10.5472 32.2105 9.95958 32.2105 9.28908C32.2105 8.61858 32.1242 8.03095 31.9517 7.52619C31.7791 7.02143 31.5026 6.62717 31.1245 6.34842C30.7465 6.06716 30.2517 5.92904 29.6402 5.92904C28.9856 5.92904 28.4477 6.08223 28.0239 6.38609C27.6028 6.68995 27.2907 7.09677 27.0902 7.60655C26.8898 8.11633 26.7883 8.67634 26.7883 9.29159C26.7883 9.90685 26.8847 10.4794 27.0801 10.9867C27.2754 11.4965 27.5723 11.9008 27.9757 12.1996C28.3792 12.501 28.8968 12.6516 29.5311 12.6516M32.6647 14.9996V7.29265H32.2866V0H35.339V14.9996H32.6647Z" fill="#257EFF"/>
<path d="M63.4874 15.0001C62.4751 15.0001 61.5819 14.764 60.8106 14.2894C60.0393 13.8173 59.4328 13.1644 58.9964 12.3331C58.56 11.5019 58.3418 10.5502 58.3418 9.47535C58.3418 8.3026 58.5549 7.28304 58.9837 6.41415C59.41 5.54526 59.9987 4.87225 60.7497 4.3926C61.5007 3.91295 62.3634 3.67188 63.3403 3.67188C64.378 3.67188 65.2585 3.93807 65.9867 4.46794C66.7123 4.99781 67.2503 5.74365 67.5979 6.70294C67.9455 7.66224 68.0673 8.7923 67.9632 10.0906H65.4995V9.09616C65.4995 8.00377 65.3397 7.21524 65.02 6.73559C64.7003 6.25594 64.175 6.01486 63.4494 6.01486C62.6019 6.01486 61.9777 6.29612 61.5769 6.85362C61.176 7.41362 60.9781 8.23982 60.9781 9.33221C60.9781 10.3317 61.1785 11.1051 61.5769 11.6526C61.9777 12.2001 62.5639 12.4738 63.3403 12.4738C63.8274 12.4738 64.2461 12.3583 64.5937 12.1247C64.9413 11.8937 65.2077 11.5572 65.3904 11.1202L67.8795 11.8962C67.5065 12.8756 66.9204 13.639 66.1161 14.1814C65.3143 14.7238 64.4364 14.9976 63.4824 14.9976M60.2093 8.08413H66.7656V10.0906H60.2093V8.08413Z" fill="#257EFF"/>
<path d="M10.4765 3.99219H0V6.13176H10.4765V3.99219Z" fill="#257EFF"/>
<path d="M1.83652 14.9759V4.01436C1.83652 3.73561 1.84413 3.4192 1.85682 3.06762C1.87204 2.71605 1.9304 2.35694 2.03443 1.99783C2.13846 1.63872 2.3313 1.31226 2.61294 1.02096C2.97323 0.641761 3.36398 0.380593 3.78517 0.242474C4.20636 0.104356 4.61487 0.029019 5.01068 0.018974C5.4065 0.00892908 5.7465 0.00390625 6.0256 0.00390625H7.47186V2.24393H6.13217C5.67038 2.24393 5.32785 2.35443 5.1071 2.57542C4.88382 2.79641 4.77218 3.06009 4.77218 3.36395V14.9784H1.83398L1.83652 14.9759Z" fill="#257EFF"/>
<path d="M12.2683 1.08398H9.33008V3.52993H12.2683V1.08398Z" fill="#257EFF"/>
<path d="M12.2683 3.99414H9.33008V14.9959H12.2683V3.99414Z" fill="#257EFF"/>
<path d="M40.2715 14.9987V3.99694H42.8849V7.64326H43.2528V14.9987H40.2715ZM48.2462 14.9987V9.80293C48.2462 9.55181 48.231 9.23037 48.2031 8.84113C48.1752 8.45188 48.0838 8.05762 47.9341 7.66336C47.7819 7.26909 47.5358 6.94012 47.1932 6.67393C46.8507 6.41024 46.3661 6.27715 45.7394 6.27715C45.4882 6.27715 45.2167 6.31482 44.93 6.39015C44.6407 6.46549 44.3718 6.60863 44.1206 6.82209C43.8694 7.03554 43.6613 7.34945 43.4989 7.7638C43.3365 8.17816 43.2554 8.72812 43.2554 9.41369L41.5706 8.66032C41.5706 7.79143 41.7583 6.97527 42.1313 6.21437C42.5043 5.45346 43.0701 4.83821 43.8212 4.37112C44.5722 3.90403 45.5237 3.66797 46.668 3.66797C47.5814 3.66797 48.3274 3.81362 48.9034 4.10492C49.4793 4.39623 49.9284 4.76789 50.2481 5.21489C50.5678 5.6619 50.7962 6.12899 50.9332 6.61617C51.0702 7.10084 51.1514 7.54533 51.1819 7.94461C51.2098 8.34641 51.225 8.63772 51.225 8.82104V14.9937H48.2437L48.2462 14.9987ZM54.9548 14.9987V9.80293C54.9548 9.55181 54.9396 9.23037 54.9117 8.84113C54.8838 8.45188 54.7925 8.05762 54.6427 7.66336C54.4905 7.26909 54.2444 6.94012 53.9019 6.67393C53.5593 6.41024 53.0747 6.27715 52.448 6.27715C52.1968 6.27715 51.9253 6.31482 51.6386 6.39015C51.3493 6.46549 51.0804 6.60863 50.8292 6.82209C50.578 7.03554 50.3699 7.34945 50.2075 7.7638C50.0452 8.17816 49.964 8.72812 49.964 9.41369L48.2792 8.66032C48.2792 7.79143 48.467 6.97527 48.8399 6.21437C49.2129 5.45346 49.7787 4.83821 50.5298 4.37112C51.2834 3.90151 52.2323 3.66797 53.3766 3.66797C54.2901 3.66797 55.036 3.81362 55.612 4.10492C56.188 4.39623 56.6371 4.76789 56.9568 5.21489C57.2765 5.6619 57.5048 6.12899 57.6418 6.61617C57.7788 7.10084 57.86 7.54533 57.8905 7.94461C57.9184 8.34641 57.9336 8.63772 57.9336 8.82104V14.9937H54.9523L54.9548 14.9987Z" fill="#257EFF"/>
</svg>
