<svg width="78" height="78" viewBox="0 0 78 78" fill="none" xmlns="http://www.w3.org/2000/svg">
<path fill-rule="evenodd" clip-rule="evenodd" d="M39 71.5C56.9497 71.5 71.5 56.9497 71.5 39C71.5 21.0503 56.9497 6.5 39 6.5C21.0503 6.5 6.5 21.0503 6.5 39C6.5 56.9497 21.0503 71.5 39 71.5ZM48.75 32.5C48.75 35.0859 47.7228 37.5658 45.8943 39.3943C44.0658 41.2228 41.5859 42.25 39 42.25C36.4141 42.25 33.9342 41.2228 32.1057 39.3943C30.2772 37.5658 29.25 35.0859 29.25 32.5C29.25 29.9141 30.2772 27.4342 32.1057 25.6057C33.9342 23.7772 36.4141 22.75 39 22.75C41.5859 22.75 44.0658 23.7772 45.8943 25.6057C47.7228 27.4342 48.75 29.9141 48.75 32.5ZM19.5 55.25C21.7685 52.2207 24.7122 49.7621 28.0973 48.0696C31.4823 46.377 35.2154 45.4972 39 45.5C42.7846 45.4972 46.5177 46.377 49.9027 48.0696C53.2878 49.7621 56.2315 52.2207 58.5 55.25C56.2315 58.2793 53.2878 60.7379 49.9027 62.4304C46.5177 64.123 42.7846 65.0028 39 65C35.2154 65.0028 31.4823 64.123 28.0973 62.4304C24.7122 60.7379 21.7685 58.2793 19.5 55.25Z" fill="#7EC1FF"/>
</svg>
