<svg width="26" height="33" viewBox="0 0 26 33" fill="none" xmlns="http://www.w3.org/2000/svg">
<path d="M1.60548 11.0879H5.78732C5.54357 10.9025 5.29728 10.7146 5.05353 10.5293C5.1754 10.9 5.29728 11.2707 5.41915 11.6439C5.71368 12.5352 6.00568 13.4264 6.30021 14.3176C6.65314 15.3891 7.00861 16.4631 7.36154 17.5371C7.66876 18.4689 7.97599 19.4008 8.28068 20.3326C8.43048 20.7846 8.57267 21.2391 8.72755 21.6885C8.73009 21.6961 8.73263 21.7012 8.73517 21.7088C8.85958 22.0871 9.26837 22.3715 9.67208 22.242C10.0479 22.1201 10.3373 21.7113 10.2053 21.3051C10.0834 20.9344 9.96154 20.5637 9.83966 20.1904C9.54513 19.2992 9.25314 18.408 8.95861 17.5168C8.60568 16.4428 8.25275 15.3688 7.89728 14.2947C7.59005 13.3629 7.28282 12.4311 6.97814 11.4992C6.82833 11.0473 6.68868 10.5928 6.53126 10.1434C6.52872 10.1357 6.52618 10.1307 6.52365 10.123C6.417 9.80313 6.13517 9.56445 5.78986 9.56445H1.60802C1.20939 9.56445 0.828528 9.91484 0.846302 10.3262C0.861536 10.74 1.17892 11.0879 1.60548 11.0879Z" fill="black"/>
<path d="M8.80958 21.119C8.39825 21.8528 7.98438 22.5841 7.57306 23.3178C7.51466 23.4245 7.45372 23.5286 7.39532 23.6352C7.11349 24.1354 7.46896 24.7803 8.05294 24.7803H19.6818C20.2176 24.7803 20.7559 24.7905 21.2942 24.7803H21.317C21.7156 24.7803 22.0965 24.43 22.0787 24.0186C22.0609 23.6048 21.7436 23.2569 21.317 23.2569H9.6881C9.15235 23.2569 8.61153 23.2417 8.07579 23.2569H8.05294C8.2713 23.6378 8.4922 24.0212 8.71056 24.402C9.12188 23.6682 9.53575 22.937 9.94708 22.2032C10.0055 22.0966 10.0664 21.9925 10.1248 21.8858C10.3203 21.538 10.2188 21.0378 9.8506 20.8448C9.49005 20.6569 9.01778 20.7483 8.80958 21.119Z" fill="black"/>
<path d="M24.3951 13.5508L21.3127 21.498H9.46797L6.84766 13.5508H24.3951Z" fill="black"/>
<path d="M23.9057 13.4112C23.5578 14.3075 23.2125 15.2038 22.8647 16.1001C22.3112 17.5296 21.7577 18.9566 21.2067 20.386C21.0797 20.7136 20.9528 21.0437 20.8258 21.3712C20.9883 21.2468 21.1534 21.1224 21.3159 20.998H10.9285C10.4512 20.998 9.96878 20.9776 9.4889 20.998H9.46859C9.63109 21.1224 9.79613 21.2468 9.95863 21.3712C9.66156 20.4698 9.36703 19.571 9.06996 18.6696C8.60023 17.2452 8.1305 15.8208 7.66332 14.3939C7.55414 14.0663 7.4475 13.7388 7.33832 13.4087C7.17582 13.622 7.01078 13.8378 6.84828 14.0511H23.6848C23.9133 14.0511 24.1418 14.0562 24.3678 14.0511H24.3983C24.6649 14.0511 24.9188 13.8175 24.9061 13.5433C24.8934 13.2691 24.6827 13.0355 24.3983 13.0355H7.56175C7.33324 13.0355 7.10472 13.0304 6.87875 13.0355H6.84828C6.53089 13.0355 6.25414 13.363 6.35824 13.6778C6.65531 14.5792 6.94984 15.478 7.24691 16.3794C7.71664 17.8038 8.18636 19.2282 8.65355 20.6552C8.76273 20.9827 8.86937 21.3103 8.97855 21.6403C9.04964 21.8536 9.23753 22.0136 9.46859 22.0136H19.8559C20.3332 22.0136 20.8157 22.0314 21.2955 22.0136H21.3159C21.5571 22.0136 21.7246 21.8511 21.8059 21.6403C22.1537 20.7441 22.4991 19.8478 22.8469 18.9515C23.4004 17.522 23.9539 16.095 24.5049 14.6655C24.6319 14.338 24.7588 14.0079 24.8858 13.6804C24.9823 13.4316 24.7791 13.1116 24.5303 13.0558C24.2383 12.9898 24.0073 13.1446 23.9057 13.4112Z" fill="black"/>
<g clip-path="url(#clip0_488_3749)">
<path d="M19.0159 26.2109C18.0071 26.2109 17.1895 27.3426 17.1895 28.7387C17.1895 30.1348 18.0071 31.2665 19.0159 31.2665C20.0247 31.2665 20.8423 30.1348 20.8423 28.7387L20.7808 28.0825C20.6765 27.5451 20.447 27.0705 20.1279 26.7321C19.8088 26.3937 19.4179 26.2105 19.0159 26.2109ZM19.0159 27.3776C19.5599 27.3776 19.9994 27.9858 19.9994 28.7387C19.9994 29.4916 19.5599 30.0998 19.0159 30.0998C18.4719 30.0998 18.0324 29.4916 18.0324 28.7387C18.0324 27.9858 18.4719 27.3776 19.0159 27.3776ZM18.5944 28.1554C18.4788 28.1554 18.3837 28.2872 18.3837 28.447C18.3837 28.6069 18.4788 28.7387 18.5944 28.7387C18.71 28.7387 18.8052 28.6069 18.8052 28.447C18.8052 28.2872 18.71 28.1554 18.5944 28.1554ZM19.4374 28.1554C19.3218 28.1554 19.2266 28.2872 19.2266 28.447C19.2266 28.6069 19.3218 28.7387 19.4374 28.7387C19.553 28.7387 19.6481 28.6069 19.6481 28.447C19.6481 28.2872 19.553 28.1554 19.4374 28.1554ZM18.5944 28.3498C18.634 28.3498 18.6647 28.3922 18.6647 28.447C18.6647 28.5019 18.634 28.5443 18.5944 28.5443C18.5852 28.5445 18.576 28.5421 18.5674 28.5372C18.5588 28.5324 18.551 28.5253 18.5444 28.5162C18.5379 28.5071 18.5327 28.4963 18.5292 28.4845C18.5258 28.4726 18.524 28.4599 18.5242 28.447C18.5242 28.3922 18.5548 28.3498 18.5944 28.3498ZM19.4374 28.3498C19.477 28.3498 19.5076 28.3922 19.5076 28.447C19.5076 28.5019 19.477 28.5443 19.4374 28.5443C19.4281 28.5445 19.4189 28.5421 19.4103 28.5372C19.4018 28.5324 19.394 28.5253 19.3874 28.5162C19.3809 28.5071 19.3757 28.4963 19.3722 28.4845C19.3687 28.4726 19.367 28.4599 19.3671 28.447C19.3671 28.3922 19.3978 28.3498 19.4374 28.3498ZM18.5066 29.2188L18.4056 29.3524C18.4841 29.4653 18.5782 29.5553 18.6823 29.6169C18.7864 29.6785 18.8984 29.7105 19.0117 29.7109C19.1246 29.7116 19.2365 29.6808 19.3406 29.6202C19.4447 29.5596 19.5389 29.4706 19.6175 29.3584L19.5166 29.2248C19.451 29.318 19.3724 29.3918 19.2856 29.4419C19.1989 29.492 19.1057 29.5174 19.0117 29.5165C18.9174 29.5161 18.8241 29.4896 18.7374 29.4385C18.6507 29.3873 18.5722 29.3126 18.5067 29.2188H18.5066Z" fill="black"/>
</g>
<g clip-path="url(#clip1_488_3749)">
<path d="M12.678 26.2109C11.6692 26.2109 10.8516 27.3426 10.8516 28.7387C10.8516 30.1348 11.6692 31.2665 12.678 31.2665C13.6868 31.2665 14.5045 30.1348 14.5045 28.7387L14.4429 28.0825C14.3386 27.5451 14.1091 27.0705 13.79 26.7321C13.4709 26.3937 13.08 26.2105 12.678 26.2109ZM12.678 27.3776C13.222 27.3776 13.6615 27.9858 13.6615 28.7387C13.6615 29.4916 13.222 30.0998 12.678 30.0998C12.134 30.0998 11.6945 29.4916 11.6945 28.7387C11.6945 27.9858 12.134 27.3776 12.678 27.3776ZM12.2565 28.1554C12.1409 28.1554 12.0458 28.2872 12.0458 28.447C12.0458 28.6069 12.1409 28.7387 12.2565 28.7387C12.3721 28.7387 12.4673 28.6069 12.4673 28.447C12.4673 28.2872 12.3721 28.1554 12.2565 28.1554ZM13.0995 28.1554C12.9839 28.1554 12.8888 28.2872 12.8888 28.447C12.8888 28.6069 12.9839 28.7387 13.0995 28.7387C13.2151 28.7387 13.3102 28.6069 13.3102 28.447C13.3102 28.2872 13.2151 28.1554 13.0995 28.1554ZM12.2565 28.3498C12.2961 28.3498 12.3268 28.3922 12.3268 28.447C12.3268 28.5019 12.2961 28.5443 12.2565 28.5443C12.2473 28.5445 12.2381 28.5421 12.2295 28.5372C12.2209 28.5324 12.2131 28.5253 12.2066 28.5162C12.2 28.5071 12.1948 28.4963 12.1914 28.4845C12.1879 28.4726 12.1861 28.4599 12.1863 28.447C12.1863 28.3922 12.2169 28.3498 12.2565 28.3498ZM13.0995 28.3498C13.1391 28.3498 13.1697 28.3922 13.1697 28.447C13.1697 28.5019 13.1391 28.5443 13.0995 28.5443C13.0902 28.5445 13.081 28.5421 13.0725 28.5372C13.0639 28.5324 13.0561 28.5253 13.0495 28.5162C13.043 28.5071 13.0378 28.4963 13.0343 28.4845C13.0308 28.4726 13.0291 28.4599 13.0292 28.447C13.0292 28.3922 13.0599 28.3498 13.0995 28.3498ZM12.1687 29.2188L12.0677 29.3524C12.1462 29.4653 12.2403 29.5553 12.3444 29.6169C12.4485 29.6785 12.5606 29.7105 12.6738 29.7109C12.7867 29.7116 12.8986 29.6808 13.0027 29.6202C13.1068 29.5596 13.201 29.4706 13.2796 29.3584L13.1787 29.2248C13.1131 29.318 13.0345 29.3918 12.9478 29.4419C12.861 29.492 12.7678 29.5174 12.6738 29.5165C12.5795 29.5161 12.4863 29.4896 12.3995 29.4385C12.3128 29.3873 12.2344 29.3126 12.1689 29.2188H12.1687Z" fill="black"/>
</g>
<g clip-path="url(#clip2_488_3749)">
<path d="M15 11C17.7614 11 20 8.76142 20 6C20 3.23858 17.7614 1 15 1C12.2386 1 10 3.23858 10 6C10 8.76142 12.2386 11 15 11Z" stroke="black" stroke-linecap="round" stroke-linejoin="round"/>
<path d="M13 7C13 7 13.75 8 15 8C16.25 8 17 7 17 7" stroke="black" stroke-linecap="round" stroke-linejoin="round"/>
<path d="M13.5 4.5H13.5049" stroke="black" stroke-linecap="round" stroke-linejoin="round"/>
<path d="M16.5 4.5H16.5049" stroke="black" stroke-linecap="round" stroke-linejoin="round"/>
</g>
<defs>
<clipPath id="clip0_488_3749">
<rect width="3.65289" height="5.05556" fill="white" transform="translate(17.1895 26.2109)"/>
</clipPath>
<clipPath id="clip1_488_3749">
<rect width="3.65289" height="5.05556" fill="white" transform="translate(10.8516 26.2109)"/>
</clipPath>
<clipPath id="clip2_488_3749">
<rect width="12" height="12" fill="white" transform="translate(9)"/>
</clipPath>
</defs>
</svg>
