<svg width="25" height="24" viewBox="0 0 25 24" fill="none" xmlns="http://www.w3.org/2000/svg">
<path d="M9.37309 10.5956C11.1033 8.48417 13.7906 7.12716 16.8159 7.12716C17.2663 7.12716 17.7116 7.15656 18.1519 7.21534V5.28516C16.7851 6.4609 13.2429 7.29862 9.08132 7.29862C4.94531 7.29862 1.41333 6.4707 0.03125 5.29985V7.78362C0.72229 10.4927 9.27583 10.6005 9.37309 10.5956Z" fill="black"/>
<path d="M0.0246501 9.72461L0.0195312 12.2476C0.352254 13.6487 3.4389 14.7852 7.4367 15.0351C7.59026 13.8446 7.98953 12.7228 8.58331 11.7234C4.65718 11.6597 1.3453 10.8514 0.0246501 9.72461Z" fill="black"/>
<path d="M0.0187907 14.207L0.0136719 16.6075C0.0290283 16.5928 0.0443848 16.5781 0.0597412 16.5683C0.156999 18.1164 3.6122 19.3852 8.05021 19.5665C7.60488 18.5181 7.36429 17.3767 7.36429 16.1764V16.1715C3.97564 15.9707 1.19612 15.2162 0.0187907 14.207Z" fill="black"/>
<path d="M8.64205 20.708C4.63913 20.6443 1.27607 19.7968 0.0168376 18.6406L0.0117188 20.9039C0.0117188 22.6088 4.07094 23.9903 9.08226 23.9903C10.0395 23.9903 10.9609 23.9413 11.8259 23.8482C10.5155 23.0644 9.4201 21.9866 8.64205 20.708Z" fill="black"/>
<path d="M9.08078 6.16288C14.096 6.16288 18.1616 4.78327 18.1616 3.08144C18.1616 1.37961 14.096 0 9.08078 0C4.06561 0 0 1.37961 0 3.08144C0 4.78327 4.06561 6.16288 9.08078 6.16288Z" fill="black"/>
<path d="M16.8158 8.33789C12.2959 8.33789 8.63086 11.8455 8.63086 16.1713C8.63086 20.4971 12.2959 23.9998 16.8158 23.9998C21.3358 23.9998 25.0008 20.4922 25.0008 16.1664C25.0008 11.8406 21.3358 8.33789 16.8158 8.33789ZM17.5632 20.3501V20.8449C17.5632 21.2417 17.2305 21.5602 16.8158 21.5602C16.4012 21.5602 16.0685 21.2417 16.0685 20.8449V20.3501C15.6334 20.2227 15.229 19.9925 14.9116 19.6692C14.6301 19.3801 14.6455 18.9294 14.9424 18.66C15.2444 18.3905 15.6999 18.4199 15.9968 18.6894C16.3244 18.9882 16.867 19.0225 16.8926 19.0225C17.4711 18.9833 17.9317 18.5179 17.9317 17.9545C17.9317 17.3667 17.4301 16.8817 16.8158 16.8817C15.3775 16.8817 14.2053 15.7598 14.2053 14.3832C14.2053 13.2515 14.9935 12.2962 16.0685 11.9876V11.4928C16.0685 11.096 16.4012 10.7776 16.8158 10.7776C17.2305 10.7776 17.5632 11.096 17.5632 11.4928V11.9876C17.9983 12.115 18.4027 12.3452 18.72 12.6686C19.0016 12.9576 18.9862 13.4083 18.6893 13.6777C18.3873 13.9472 17.8908 13.957 17.6349 13.6484C17.3636 13.3201 16.7647 13.3152 16.7391 13.3152C16.1606 13.3544 15.6999 13.8198 15.6999 14.3832C15.6999 14.9711 16.2016 15.4561 16.8158 15.4561C18.2542 15.4561 19.4264 16.5779 19.4264 17.9545C19.4264 19.0862 18.6381 20.0415 17.5632 20.3501Z" fill="black"/>
</svg>
