<svg width="31" height="32" viewBox="0 0 31 32" fill="none" xmlns="http://www.w3.org/2000/svg">
<path d="M25.2871 13.0037C25.6756 13.2828 26.0804 13.7202 26.0804 14.3346V16.3346C26.0804 16.9491 25.6756 17.3865 25.2871 17.6656C25.0666 17.8239 24.8051 17.9663 24.5131 18.0936V18.668C24.5131 18.8056 24.4928 18.9343 24.4569 19.0544C24.6694 19.3043 24.8265 19.6184 24.8265 20.0013V22.0013C24.8265 22.6158 24.4217 23.0532 24.0332 23.3322C23.6229 23.627 23.0703 23.8662 22.4438 24.0565C21.1823 24.4398 19.4759 24.668 17.6169 24.668C15.7579 24.668 14.0515 24.4398 12.7899 24.0565C12.1635 23.8662 11.6109 23.627 11.2005 23.3322C10.8121 23.0532 10.4072 22.6158 10.4072 22.0013V20.0013C10.4072 19.8637 10.4275 19.735 10.4634 19.6149C10.2509 19.365 10.0938 19.0509 10.0938 18.668V16.668C10.0938 16.0535 10.4986 15.6161 10.8871 15.337C11.1075 15.1787 11.3691 15.0363 11.6611 14.909V14.3346C11.6611 13.7202 12.0659 13.2828 12.4544 13.0037C12.8647 12.7089 13.4173 12.4698 14.0438 12.2794C15.3053 11.8961 17.0117 11.668 18.8707 11.668C20.7297 11.668 22.4361 11.8961 23.6977 12.2794C24.3241 12.4698 24.8768 12.7089 25.2871 13.0037Z" fill="#021024" fill-opacity="0.1"/>
<path d="M23.5717 19.332C23.5717 18.2275 20.6245 17.332 16.989 17.332C13.3534 17.332 10.4062 18.2275 10.4062 19.332V21.332C10.4062 22.4366 13.3534 23.332 16.989 23.332C20.6245 23.332 23.5717 22.4366 23.5717 21.332V19.332Z" fill="#D18A00"/>
<path fill-rule="evenodd" clip-rule="evenodd" d="M23.4053 18.0037C23.7938 18.2828 24.1986 18.7202 24.1986 19.3346V21.3346C24.1986 21.9491 23.7938 22.3865 23.4053 22.6656C22.995 22.9603 22.4424 23.1995 21.8159 23.3899C20.5544 23.7732 18.848 24.0013 16.989 24.0013C15.13 24.0013 13.4236 23.7732 12.162 23.3899C11.5355 23.1995 10.9829 22.9603 10.5726 22.6656C10.1841 22.3865 9.7793 21.9491 9.7793 21.3346V19.3346C9.7793 18.7202 10.1841 18.2828 10.5726 18.0037C10.9829 17.7089 11.5355 17.4698 12.162 17.2794C13.4236 16.8961 15.13 16.668 16.989 16.668C18.848 16.668 20.5544 16.8961 21.8159 17.2794C22.4424 17.4698 22.995 17.7089 23.4053 18.0037ZM16.989 17.3346C20.6245 17.3346 23.5717 18.2301 23.5717 19.3346V21.3346C23.5717 22.4392 20.6245 23.3346 16.989 23.3346C13.3534 23.3346 10.4062 22.4392 10.4062 21.3346V19.3346C10.4062 18.2301 13.3534 17.3346 16.989 17.3346Z" fill="#B96F00"/>
<path d="M23.5717 19.332C23.5717 20.4366 20.6245 21.332 16.989 21.332C13.3534 21.332 10.4062 20.4366 10.4062 19.332C10.4062 18.2275 13.3534 17.332 16.989 17.332C20.6245 17.332 23.5717 18.2275 23.5717 19.332Z" fill="#FFCF23"/>
<path fill-rule="evenodd" clip-rule="evenodd" d="M21.8159 21.3899C20.5543 21.7732 18.848 22.0013 16.989 22.0013C15.13 22.0013 13.4236 21.7732 12.162 21.3899C11.5355 21.1995 10.9829 20.9603 10.5726 20.6656C10.1841 20.3865 9.7793 19.9491 9.7793 19.3346C9.7793 18.7202 10.1841 18.2828 10.5726 18.0037C10.9829 17.7089 11.5355 17.4698 12.162 17.2794C13.4236 16.8961 15.13 16.668 16.989 16.668C18.848 16.668 20.5543 16.8961 21.8159 17.2794C22.4424 17.4698 22.995 17.7089 23.4053 18.0037C23.7938 18.2828 24.1986 18.7202 24.1986 19.3346C24.1986 19.9491 23.7938 20.3865 23.4053 20.6656C22.995 20.9603 22.4424 21.1995 21.8159 21.3899ZM16.989 21.3346C20.6245 21.3346 23.5717 20.4392 23.5717 19.3346C23.5717 18.2301 20.6245 17.3346 16.989 17.3346C13.3534 17.3346 10.4062 18.2301 10.4062 19.3346C10.4062 20.4392 13.3534 21.3346 16.989 21.3346Z" fill="#B96F00"/>
<path fill-rule="evenodd" clip-rule="evenodd" d="M11.9736 20.668C12.1467 20.668 12.2871 20.8172 12.2871 21.0013V22.8346C12.2871 23.0187 12.1467 23.168 11.9736 23.168C11.8005 23.168 11.6602 23.0187 11.6602 22.8346V21.0013C11.6602 20.8172 11.8005 20.668 11.9736 20.668ZM22.0045 20.668C22.1776 20.668 22.3179 20.8172 22.3179 21.0013V22.8346C22.3179 23.0187 22.1776 23.168 22.0045 23.168C21.8313 23.168 21.691 23.0187 21.691 22.8346V21.0013C21.691 20.8172 21.8313 20.668 22.0045 20.668ZM14.4813 21.3346C14.6545 21.3346 14.7948 21.4839 14.7948 21.668V23.168C14.7948 23.3521 14.6545 23.5013 14.4813 23.5013C14.3082 23.5013 14.1679 23.3521 14.1679 23.168V21.668C14.1679 21.4839 14.3082 21.3346 14.4813 21.3346ZM19.8102 21.3346C19.9833 21.3346 20.1237 21.4839 20.1237 21.668V23.168C20.1237 23.3521 19.9833 23.5013 19.8102 23.5013C19.6371 23.5013 19.4967 23.3521 19.4967 23.168V21.668C19.4967 21.4839 19.6371 21.3346 19.8102 21.3346ZM17.3025 21.3346C17.4756 21.3346 17.616 21.4839 17.616 21.668V23.168C17.616 23.3521 17.4756 23.5013 17.3025 23.5013C17.1294 23.5013 16.989 23.3521 16.989 23.168V21.668C16.989 21.4839 17.1294 21.3346 17.3025 21.3346Z" fill="#B96F00"/>
<path d="M23.2592 16C23.2592 14.8954 20.312 14 16.6765 14C13.0409 14 10.0938 14.8954 10.0938 16V18C10.0938 19.1046 13.0409 20 16.6765 20C20.312 20 23.2592 19.1046 23.2592 18V16Z" fill="#D18A00"/>
<path fill-rule="evenodd" clip-rule="evenodd" d="M23.0909 14.6678C23.4793 14.9468 23.8842 15.3842 23.8842 15.9987V17.9987C23.8842 18.6132 23.4793 19.0506 23.0909 19.3296C22.6805 19.6244 22.1279 19.8636 21.5014 20.0539C20.2399 20.4372 18.5335 20.6654 16.6745 20.6654C14.8155 20.6654 13.1091 20.4372 11.8476 20.0539C11.2211 19.8636 10.6685 19.6244 10.2582 19.3296C9.86968 19.0506 9.46484 18.6132 9.46484 17.9987V15.9987C9.46484 15.3842 9.86968 14.9468 10.2582 14.6678C10.6685 14.373 11.2211 14.1338 11.8476 13.9435C13.1091 13.5602 14.8155 13.332 16.6745 13.332C18.5335 13.332 20.2399 13.5602 21.5014 13.9435C22.1279 14.1338 22.6805 14.373 23.0909 14.6678ZM16.6745 13.9987C20.3101 13.9987 23.2572 14.8941 23.2572 15.9987V17.9987C23.2572 19.1033 20.3101 19.9987 16.6745 19.9987C13.039 19.9987 10.0918 19.1033 10.0918 17.9987V15.9987C10.0918 14.8941 13.039 13.9987 16.6745 13.9987Z" fill="#B96F00"/>
<path d="M23.2592 16C23.2592 17.1046 20.312 18 16.6765 18C13.0409 18 10.0938 17.1046 10.0938 16C10.0938 14.8954 13.0409 14 16.6765 14C20.312 14 23.2592 14.8954 23.2592 16Z" fill="#FFCF23"/>
<path fill-rule="evenodd" clip-rule="evenodd" d="M21.5014 18.0539C20.2399 18.4372 18.5335 18.6654 16.6745 18.6654C14.8155 18.6654 13.1091 18.4372 11.8476 18.0539C11.2211 17.8636 10.6685 17.6244 10.2582 17.3296C9.86968 17.0506 9.46484 16.6132 9.46484 15.9987C9.46484 15.3842 9.86968 14.9468 10.2582 14.6678C10.6685 14.373 11.2211 14.1338 11.8476 13.9435C13.1091 13.5602 14.8155 13.332 16.6745 13.332C18.5335 13.332 20.2399 13.5602 21.5014 13.9435C22.1279 14.1338 22.6805 14.373 23.0909 14.6678C23.4793 14.9468 23.8842 15.3842 23.8842 15.9987C23.8842 16.6132 23.4793 17.0506 23.0909 17.3296C22.6805 17.6244 22.1279 17.8636 21.5014 18.0539ZM16.6745 17.9987C20.3101 17.9987 23.2572 17.1033 23.2572 15.9987C23.2572 14.8941 20.3101 13.9987 16.6745 13.9987C13.039 13.9987 10.0918 14.8941 10.0918 15.9987C10.0918 17.1033 13.039 17.9987 16.6745 17.9987Z" fill="#B96F00"/>
<path fill-rule="evenodd" clip-rule="evenodd" d="M11.6592 17.332C11.8323 17.332 11.9726 17.4813 11.9726 17.6654V19.4987C11.9726 19.6828 11.8323 19.832 11.6592 19.832C11.486 19.832 11.3457 19.6828 11.3457 19.4987V17.6654C11.3457 17.4813 11.486 17.332 11.6592 17.332ZM21.69 17.332C21.8631 17.332 22.0035 17.4813 22.0035 17.6654V19.4987C22.0035 19.6828 21.8631 19.832 21.69 19.832C21.5169 19.832 21.3765 19.6828 21.3765 19.4987V17.6654C21.3765 17.4813 21.5169 17.332 21.69 17.332ZM14.1669 17.9987C14.34 17.9987 14.4803 18.1479 14.4803 18.332V19.832C14.4803 20.0161 14.34 20.1654 14.1669 20.1654C13.9937 20.1654 13.8534 20.0161 13.8534 19.832V18.332C13.8534 18.1479 13.9937 17.9987 14.1669 17.9987ZM19.4958 17.9987C19.6689 17.9987 19.8092 18.1479 19.8092 18.332V19.832C19.8092 20.0161 19.6689 20.1654 19.4958 20.1654C19.3226 20.1654 19.1823 20.0161 19.1823 19.832V18.332C19.1823 18.1479 19.3226 17.9987 19.4958 17.9987ZM16.988 17.9987C17.1612 17.9987 17.3015 18.1479 17.3015 18.332V19.832C17.3015 20.0161 17.1612 20.1654 16.988 20.1654C16.8149 20.1654 16.6746 20.0161 16.6746 19.832V18.332C16.6746 18.1479 16.8149 17.9987 16.988 17.9987Z" fill="#B96F00"/>
<path d="M24.8256 13.668C24.8256 12.5634 21.8784 11.668 18.2429 11.668C14.6073 11.668 11.6602 12.5634 11.6602 13.668V15.668C11.6602 16.7725 14.6073 17.668 18.2429 17.668C21.8784 17.668 24.8256 16.7725 24.8256 15.668V13.668Z" fill="#D18A00"/>
<path fill-rule="evenodd" clip-rule="evenodd" d="M24.6612 12.3357C25.0496 12.6148 25.4545 13.0522 25.4545 13.6667V15.6667C25.4545 16.2811 25.0496 16.7185 24.6612 16.9976C24.2508 17.2924 23.6982 17.5315 23.0717 17.7219C21.8102 18.1052 20.1038 18.3333 18.2448 18.3333C16.3858 18.3333 14.6794 18.1052 13.4179 17.7219C12.7914 17.5315 12.2388 17.2924 11.8285 16.9976C11.44 16.7185 11.0352 16.2811 11.0352 15.6667V13.6667C11.0352 13.0522 11.44 12.6148 11.8285 12.3357C12.2388 12.041 12.7914 11.8018 13.4179 11.6114C14.6794 11.2281 16.3858 11 18.2448 11C20.1038 11 21.8102 11.2281 23.0717 11.6114C23.6982 11.8018 24.2508 12.041 24.6612 12.3357ZM18.2448 11.6667C21.8804 11.6667 24.8276 12.5621 24.8276 13.6667V15.6667C24.8276 16.7712 21.8804 17.6667 18.2448 17.6667C14.6093 17.6667 11.6621 16.7712 11.6621 15.6667V13.6667C11.6621 12.5621 14.6093 11.6667 18.2448 11.6667Z" fill="#B96F00"/>
<path d="M24.8256 13.668C24.8256 14.7725 21.8784 15.668 18.2429 15.668C14.6073 15.668 11.6602 14.7725 11.6602 13.668C11.6602 12.5634 14.6073 11.668 18.2429 11.668C21.8784 11.668 24.8256 12.5634 24.8256 13.668Z" fill="#FFCF23"/>
<path fill-rule="evenodd" clip-rule="evenodd" d="M23.0717 15.7219C21.8102 16.1052 20.1038 16.3333 18.2448 16.3333C16.3858 16.3333 14.6794 16.1052 13.4179 15.7219C12.7914 15.5315 12.2388 15.2924 11.8285 14.9976C11.44 14.7185 11.0352 14.2811 11.0352 13.6667C11.0352 13.0522 11.44 12.6148 11.8285 12.3357C12.2388 12.041 12.7914 11.8018 13.4179 11.6114C14.6794 11.2281 16.3858 11 18.2448 11C20.1038 11 21.8102 11.2281 23.0717 11.6114C23.6982 11.8018 24.2508 12.041 24.6612 12.3357C25.0496 12.6148 25.4545 13.0522 25.4545 13.6667C25.4545 14.2811 25.0496 14.7185 24.6612 14.9976C24.2508 15.2924 23.6982 15.5315 23.0717 15.7219ZM18.2448 15.6667C21.8804 15.6667 24.8276 14.7712 24.8276 13.6667C24.8276 12.5621 21.8804 11.6667 18.2448 11.6667C14.6093 11.6667 11.6621 12.5621 11.6621 13.6667C11.6621 14.7712 14.6093 15.6667 18.2448 15.6667Z" fill="#B96F00"/>
<path fill-rule="evenodd" clip-rule="evenodd" d="M13.2295 15C13.4026 15 13.5429 15.1492 13.5429 15.3333V17.1667C13.5429 17.3508 13.4026 17.5 13.2295 17.5C13.0564 17.5 12.916 17.3508 12.916 17.1667V15.3333C12.916 15.1492 13.0564 15 13.2295 15ZM23.2603 15C23.4334 15 23.5738 15.1492 23.5738 15.3333V17.1667C23.5738 17.3508 23.4334 17.5 23.2603 17.5C23.0872 17.5 22.9468 17.3508 22.9468 17.1667V15.3333C22.9468 15.1492 23.0872 15 23.2603 15ZM15.7372 15.6667C15.9103 15.6667 16.0507 15.8159 16.0507 16V17.5C16.0507 17.6841 15.9103 17.8333 15.7372 17.8333C15.5641 17.8333 15.4237 17.6841 15.4237 17.5V16C15.4237 15.8159 15.5641 15.6667 15.7372 15.6667ZM21.0661 15.6667C21.2392 15.6667 21.3795 15.8159 21.3795 16V17.5C21.3795 17.6841 21.2392 17.8333 21.0661 17.8333C20.8929 17.8333 20.7526 17.6841 20.7526 17.5V16C20.7526 15.8159 20.8929 15.6667 21.0661 15.6667ZM18.5584 15.6667C18.7315 15.6667 18.8718 15.8159 18.8718 16V17.5C18.8718 17.6841 18.7315 17.8333 18.5584 17.8333C18.3852 17.8333 18.2449 17.6841 18.2449 17.5V16C18.2449 15.8159 18.3852 15.6667 18.5584 15.6667Z" fill="#B96F00"/>
<path d="M17.3031 10.9987C17.3031 10.3842 16.8982 9.94683 16.5098 9.66776C16.0994 9.373 15.5468 9.13383 14.9203 8.94346C13.6588 8.56016 11.9524 8.33203 10.0934 8.33203C8.23442 8.33203 6.52802 8.56016 5.26648 8.94346C4.63999 9.13383 4.08739 9.373 3.67706 9.66776C3.28859 9.94683 2.88375 10.3842 2.88375 10.9987V12.9987C2.88375 13.6132 3.28859 14.0506 3.67706 14.3296C3.9504 14.526 4.28691 14.6977 4.66632 14.8467C4.54965 14.8778 4.43618 14.91 4.32609 14.9435C3.6996 15.1338 3.147 15.373 2.73667 15.6678C2.3482 15.9468 1.94336 16.3842 1.94336 16.9987V18.9987C1.94336 19.6132 2.3482 20.0506 2.73667 20.3296C3.10534 20.5945 3.58882 20.8144 4.1376 20.9944V21.0552C3.96968 21.1421 3.8153 21.2351 3.67706 21.3344C3.28859 21.6135 2.88375 22.0509 2.88375 22.6654V24.6654C2.88375 25.2798 3.28859 25.7172 3.67706 25.9963C4.08739 26.2911 4.63999 26.5302 5.26648 26.7206C6.52802 27.1039 8.23442 27.332 10.0934 27.332C11.9524 27.332 13.6588 27.1039 14.9203 26.7206C15.5468 26.5302 16.0994 26.2911 16.5098 25.9963C16.8982 25.7172 17.3031 25.2798 17.3031 24.6654V23.2755C17.471 23.1886 17.6254 23.0956 17.7636 22.9963C18.1521 22.7172 18.5569 22.2798 18.5569 21.6654V19.6654C18.5569 19.0509 18.1521 18.6135 17.7636 18.3344C17.5718 18.1966 17.3488 18.071 17.1018 17.9568C17.6043 17.784 18.0472 17.5763 18.3905 17.3296C18.779 17.0506 19.1839 16.6132 19.1839 15.9987V13.9987C19.1839 13.3842 18.779 12.9468 18.3905 12.6678C18.0938 12.4546 17.7227 12.2705 17.3031 12.113V10.9987Z" fill="#021024" fill-opacity="0.1"/>
<path d="M16.0483 22C16.0483 20.8954 13.1011 20 9.46555 20C5.83 20 2.88281 20.8954 2.88281 22V24C2.88281 25.1046 5.83 26 9.46555 26C13.1011 26 16.0483 25.1046 16.0483 24V22Z" fill="#D18A00"/>
<path fill-rule="evenodd" clip-rule="evenodd" d="M15.8838 20.6678C16.2723 20.9468 16.6771 21.3842 16.6771 21.9987V23.9987C16.6771 24.6132 16.2723 25.0506 15.8838 25.3296C15.4735 25.6244 14.9209 25.8636 14.2944 26.0539C13.0329 26.4372 11.3265 26.6654 9.46748 26.6654C7.60848 26.6654 5.90208 26.4372 4.64054 26.0539C4.01405 25.8636 3.46145 25.6244 3.05113 25.3296C2.66265 25.0506 2.25781 24.6132 2.25781 23.9987V21.9987C2.25781 21.3842 2.66265 20.9468 3.05113 20.6678C3.46145 20.373 4.01405 20.1338 4.64054 19.9435C5.90208 19.5602 7.60848 19.332 9.46748 19.332C11.3265 19.332 13.0329 19.5602 14.2944 19.9435C14.9209 20.1338 15.4735 20.373 15.8838 20.6678ZM9.46748 19.9987C13.103 19.9987 16.0502 20.8941 16.0502 21.9987V23.9987C16.0502 25.1033 13.103 25.9987 9.46748 25.9987C5.83192 25.9987 2.88474 25.1033 2.88474 23.9987V21.9987C2.88474 20.8941 5.83192 19.9987 9.46748 19.9987Z" fill="#B96F00"/>
<path d="M16.0483 22C16.0483 23.1046 13.1011 24 9.46555 24C5.83 24 2.88281 23.1046 2.88281 22C2.88281 20.8954 5.83 20 9.46555 20C13.1011 20 16.0483 20.8954 16.0483 22Z" fill="#FFCF23"/>
<path fill-rule="evenodd" clip-rule="evenodd" d="M14.2944 24.0539C13.0328 24.4372 11.3265 24.6654 9.46748 24.6654C7.60848 24.6654 5.90208 24.4372 4.64054 24.0539C4.01405 23.8636 3.46145 23.6244 3.05113 23.3296C2.66265 23.0506 2.25781 22.6132 2.25781 21.9987C2.25781 21.3842 2.66265 20.9468 3.05113 20.6678C3.46145 20.373 4.01405 20.1338 4.64054 19.9435C5.90208 19.5602 7.60848 19.332 9.46748 19.332C11.3265 19.332 13.0328 19.5602 14.2944 19.9435C14.9209 20.1338 15.4735 20.373 15.8838 20.6678C16.2723 20.9468 16.6771 21.3842 16.6771 21.9987C16.6771 22.6132 16.2723 23.0506 15.8838 23.3296C15.4735 23.6244 14.9209 23.8636 14.2944 24.0539ZM9.46748 23.9987C13.103 23.9987 16.0502 23.1033 16.0502 21.9987C16.0502 20.8941 13.103 19.9987 9.46748 19.9987C5.83192 19.9987 2.88474 20.8941 2.88474 21.9987C2.88474 23.1033 5.83192 23.9987 9.46748 23.9987Z" fill="#B96F00"/>
<path fill-rule="evenodd" clip-rule="evenodd" d="M4.45214 23.332C4.62526 23.332 4.7656 23.4813 4.7656 23.6654V25.4987C4.7656 25.6828 4.62526 25.832 4.45214 25.832C4.27901 25.832 4.13867 25.6828 4.13867 25.4987V23.6654C4.13867 23.4813 4.27901 23.332 4.45214 23.332ZM14.483 23.332C14.6561 23.332 14.7964 23.4813 14.7964 23.6654V25.4987C14.7964 25.6828 14.6561 25.832 14.483 25.832C14.3098 25.832 14.1695 25.6828 14.1695 25.4987V23.6654C14.1695 23.4813 14.3098 23.332 14.483 23.332ZM6.95984 23.9987C7.13297 23.9987 7.27331 24.1479 7.27331 24.332V25.832C7.27331 26.0161 7.13297 26.1654 6.95984 26.1654C6.78672 26.1654 6.64638 26.0161 6.64638 25.832V24.332C6.64638 24.1479 6.78672 23.9987 6.95984 23.9987ZM12.2887 23.9987C12.4618 23.9987 12.6022 24.1479 12.6022 24.332V25.832C12.6022 26.0161 12.4618 26.1654 12.2887 26.1654C12.1156 26.1654 11.9753 26.0161 11.9753 25.832V24.332C11.9753 24.1479 12.1156 23.9987 12.2887 23.9987ZM9.78102 23.9987C9.95414 23.9987 10.0945 24.1479 10.0945 24.332V25.832C10.0945 26.0161 9.95414 26.1654 9.78102 26.1654C9.60789 26.1654 9.46755 26.0161 9.46755 25.832V24.332C9.46755 24.1479 9.60789 23.9987 9.78102 23.9987Z" fill="#B96F00"/>
<path d="M17.3041 19C17.3041 17.8954 14.357 17 10.7214 17C7.08586 17 4.13867 17.8954 4.13867 19V21C4.13867 22.1046 7.08586 23 10.7214 23C14.357 23 17.3041 22.1046 17.3041 21V19Z" fill="#D18A00"/>
<path fill-rule="evenodd" clip-rule="evenodd" d="M17.1377 17.6678C17.5262 17.9468 17.931 18.3842 17.931 18.9987V20.9987C17.931 21.6132 17.5262 22.0506 17.1377 22.3296C16.7274 22.6244 16.1748 22.8636 15.5483 23.0539C14.2868 23.4372 12.5804 23.6654 10.7214 23.6654C8.86239 23.6654 7.15598 23.4372 5.89445 23.0539C5.26796 22.8636 4.71536 22.6244 4.30503 22.3296C3.91656 22.0506 3.51172 21.6132 3.51172 20.9987V18.9987C3.51172 18.3842 3.91656 17.9468 4.30503 17.6678C4.71536 17.373 5.26796 17.1338 5.89445 16.9435C7.15598 16.5602 8.86239 16.332 10.7214 16.332C12.5804 16.332 14.2868 16.5602 15.5483 16.9435C16.1748 17.1338 16.7274 17.373 17.1377 17.6678ZM10.7214 16.9987C14.3569 16.9987 17.3041 17.8941 17.3041 18.9987V20.9987C17.3041 22.1033 14.3569 22.9987 10.7214 22.9987C7.08583 22.9987 4.13865 22.1033 4.13865 20.9987V18.9987C4.13865 17.8941 7.08583 16.9987 10.7214 16.9987Z" fill="#B96F00"/>
<path d="M17.3041 19C17.3041 20.1046 14.357 21 10.7214 21C7.08586 21 4.13867 20.1046 4.13867 19C4.13867 17.8954 7.08586 17 10.7214 17C14.357 17 17.3041 17.8954 17.3041 19Z" fill="#FFCF23"/>
<path fill-rule="evenodd" clip-rule="evenodd" d="M15.5483 21.0539C14.2867 21.4372 12.5804 21.6654 10.7214 21.6654C8.86239 21.6654 7.15598 21.4372 5.89445 21.0539C5.26796 20.8636 4.71536 20.6244 4.30503 20.3296C3.91656 20.0506 3.51172 19.6132 3.51172 18.9987C3.51172 18.3842 3.91656 17.9468 4.30503 17.6678C4.71536 17.373 5.26796 17.1338 5.89445 16.9435C7.15598 16.5602 8.86239 16.332 10.7214 16.332C12.5804 16.332 14.2867 16.5602 15.5483 16.9435C16.1748 17.1338 16.7274 17.373 17.1377 17.6678C17.5262 17.9468 17.931 18.3842 17.931 18.9987C17.931 19.6132 17.5262 20.0506 17.1377 20.3296C16.7274 20.6244 16.1748 20.8636 15.5483 21.0539ZM10.7214 20.9987C14.3569 20.9987 17.3041 20.1033 17.3041 18.9987C17.3041 17.8941 14.3569 16.9987 10.7214 16.9987C7.08583 16.9987 4.13865 17.8941 4.13865 18.9987C4.13865 20.1033 7.08583 20.9987 10.7214 20.9987Z" fill="#B96F00"/>
<path fill-rule="evenodd" clip-rule="evenodd" d="M5.70604 20.332C5.87917 20.332 6.01951 20.4813 6.01951 20.6654V22.4987C6.01951 22.6828 5.87917 22.832 5.70604 22.832C5.53292 22.832 5.39258 22.6828 5.39258 22.4987V20.6654C5.39258 20.4813 5.53292 20.332 5.70604 20.332ZM15.7369 20.332C15.91 20.332 16.0503 20.4813 16.0503 20.6654V22.4987C16.0503 22.6828 15.91 22.832 15.7369 22.832C15.5637 22.832 15.4234 22.6828 15.4234 22.4987V20.6654C15.4234 20.4813 15.5637 20.332 15.7369 20.332ZM8.21375 20.9987C8.38688 20.9987 8.52721 21.1479 8.52721 21.332V22.832C8.52721 23.0161 8.38688 23.1654 8.21375 23.1654C8.04062 23.1654 7.90029 23.0161 7.90029 22.832V21.332C7.90029 21.1479 8.04062 20.9987 8.21375 20.9987ZM13.5426 20.9987C13.7158 20.9987 13.8561 21.1479 13.8561 21.332V22.832C13.8561 23.0161 13.7158 23.1654 13.5426 23.1654C13.3695 23.1654 13.2292 23.0161 13.2292 22.832V21.332C13.2292 21.1479 13.3695 20.9987 13.5426 20.9987ZM11.0349 20.9987C11.208 20.9987 11.3484 21.1479 11.3484 21.332V22.832C11.3484 23.0161 11.208 23.1654 11.0349 23.1654C10.8618 23.1654 10.7215 23.0161 10.7215 22.832V21.332C10.7215 21.1479 10.8618 20.9987 11.0349 20.9987Z" fill="#B96F00"/>
<path d="M15.1088 16.332C15.1088 15.2275 12.1616 14.332 8.52609 14.332C4.89054 14.332 1.94336 15.2275 1.94336 16.332V18.332C1.94336 19.4366 4.89054 20.332 8.52609 20.332C12.1616 20.332 15.1088 19.4366 15.1088 18.332V16.332Z" fill="#D18A00"/>
<path fill-rule="evenodd" clip-rule="evenodd" d="M14.9424 15.0037C15.3309 15.2828 15.7357 15.7202 15.7357 16.3346V18.3346C15.7357 18.9491 15.3309 19.3865 14.9424 19.6656C14.5321 19.9603 13.9795 20.1995 13.353 20.3899C12.0915 20.7732 10.3851 21.0013 8.52607 21.0013C6.66707 21.0013 4.96067 20.7732 3.69914 20.3899C3.07265 20.1995 2.52004 19.9603 2.10972 19.6656C1.72124 19.3865 1.31641 18.9491 1.31641 18.3346V16.3346C1.31641 15.7202 1.72124 15.2828 2.10972 15.0037C2.52004 14.7089 3.07265 14.4698 3.69914 14.2794C4.96067 13.8961 6.66707 13.668 8.52607 13.668C10.3851 13.668 12.0915 13.8961 13.353 14.2794C13.9795 14.4698 14.5321 14.7089 14.9424 15.0037ZM8.52607 14.3346C12.1616 14.3346 15.1088 15.2301 15.1088 16.3346V18.3346C15.1088 19.4392 12.1616 20.3346 8.52607 20.3346C4.89052 20.3346 1.94333 19.4392 1.94333 18.3346V16.3346C1.94333 15.2301 4.89052 14.3346 8.52607 14.3346Z" fill="#B96F00"/>
<path d="M15.1088 16.332C15.1088 17.4366 12.1616 18.332 8.52609 18.332C4.89054 18.332 1.94336 17.4366 1.94336 16.332C1.94336 15.2275 4.89054 14.332 8.52609 14.332C12.1616 14.332 15.1088 15.2275 15.1088 16.332Z" fill="#FFCF23"/>
<path fill-rule="evenodd" clip-rule="evenodd" d="M13.353 18.3899C12.0914 18.7732 10.3851 19.0013 8.52607 19.0013C6.66707 19.0013 4.96067 18.7732 3.69914 18.3899C3.07265 18.1995 2.52004 17.9603 2.10972 17.6656C1.72124 17.3865 1.31641 16.9491 1.31641 16.3346C1.31641 15.7202 1.72124 15.2828 2.10972 15.0037C2.52004 14.7089 3.07265 14.4698 3.69914 14.2794C4.96067 13.8961 6.66707 13.668 8.52607 13.668C10.3851 13.668 12.0914 13.8961 13.353 14.2794C13.9795 14.4698 14.5321 14.7089 14.9424 15.0037C15.3309 15.2828 15.7357 15.7202 15.7357 16.3346C15.7357 16.9491 15.3309 17.3865 14.9424 17.6656C14.5321 17.9603 13.9795 18.1995 13.353 18.3899ZM8.52607 18.3346C12.1616 18.3346 15.1088 17.4392 15.1088 16.3346C15.1088 15.2301 12.1616 14.3346 8.52607 14.3346C4.89052 14.3346 1.94333 15.2301 1.94333 16.3346C1.94333 17.4392 4.89052 18.3346 8.52607 18.3346Z" fill="#B96F00"/>
<path fill-rule="evenodd" clip-rule="evenodd" d="M3.51073 17.668C3.68386 17.668 3.82419 17.8172 3.82419 18.0013V19.8346C3.82419 20.0187 3.68386 20.168 3.51073 20.168C3.3376 20.168 3.19727 20.0187 3.19727 19.8346V18.0013C3.19727 17.8172 3.3376 17.668 3.51073 17.668ZM13.5416 17.668C13.7147 17.668 13.855 17.8172 13.855 18.0013V19.8346C13.855 20.0187 13.7147 20.168 13.5416 20.168C13.3684 20.168 13.2281 20.0187 13.2281 19.8346V18.0013C13.2281 17.8172 13.3684 17.668 13.5416 17.668ZM6.01844 18.3346C6.19156 18.3346 6.3319 18.4839 6.3319 18.668V20.168C6.3319 20.3521 6.19156 20.5013 6.01844 20.5013C5.84531 20.5013 5.70497 20.3521 5.70497 20.168V18.668C5.70497 18.4839 5.84531 18.3346 6.01844 18.3346ZM11.3473 18.3346C11.5204 18.3346 11.6608 18.4839 11.6608 18.668V20.168C11.6608 20.3521 11.5204 20.5013 11.3473 20.5013C11.1742 20.5013 11.0339 20.3521 11.0339 20.168V18.668C11.0339 18.4839 11.1742 18.3346 11.3473 18.3346ZM8.83961 18.3346C9.01273 18.3346 9.15307 18.4839 9.15307 18.668V20.168C9.15307 20.3521 9.01273 20.5013 8.83961 20.5013C8.66648 20.5013 8.52615 20.3521 8.52615 20.168V18.668C8.52615 18.4839 8.66648 18.3346 8.83961 18.3346Z" fill="#B96F00"/>
<path d="M17.9291 13.332C17.9291 12.2275 14.982 11.332 11.3464 11.332C7.71086 11.332 4.76367 12.2275 4.76367 13.332V15.332C4.76367 16.4366 7.71086 17.332 11.3464 17.332C14.982 17.332 17.9291 16.4366 17.9291 15.332V13.332Z" fill="#D18A00"/>
<path fill-rule="evenodd" clip-rule="evenodd" d="M17.7647 12.0037C18.1532 12.2828 18.558 12.7202 18.558 13.3346V15.3346C18.558 15.9491 18.1532 16.3865 17.7647 16.6656C17.3544 16.9603 16.8018 17.1995 16.1753 17.3899C14.9137 17.7732 13.2073 18.0013 11.3483 18.0013C9.48934 18.0013 7.78294 17.7732 6.5214 17.3899C5.89491 17.1995 5.34231 16.9603 4.93199 16.6656C4.54351 16.3865 4.13867 15.9491 4.13867 15.3346V13.3346C4.13867 12.7202 4.54351 12.2828 4.93199 12.0037C5.34231 11.7089 5.89491 11.4698 6.5214 11.2794C7.78294 10.8961 9.48934 10.668 11.3483 10.668C13.2073 10.668 14.9137 10.8961 16.1753 11.2794C16.8018 11.4698 17.3544 11.7089 17.7647 12.0037ZM11.3483 11.3346C14.9839 11.3346 17.9311 12.2301 17.9311 13.3346V15.3346C17.9311 16.4392 14.9839 17.3346 11.3483 17.3346C7.71278 17.3346 4.7656 16.4392 4.7656 15.3346V13.3346C4.7656 12.2301 7.71278 11.3346 11.3483 11.3346Z" fill="#B96F00"/>
<path d="M17.9291 13.332C17.9291 14.4366 14.982 15.332 11.3464 15.332C7.71086 15.332 4.76367 14.4366 4.76367 13.332C4.76367 12.2275 7.71086 11.332 11.3464 11.332C14.982 11.332 17.9291 12.2275 17.9291 13.332Z" fill="#FFCF23"/>
<path fill-rule="evenodd" clip-rule="evenodd" d="M16.1753 15.3899C14.9137 15.7732 13.2073 16.0013 11.3483 16.0013C9.48934 16.0013 7.78294 15.7732 6.5214 15.3899C5.89491 15.1995 5.34231 14.9603 4.93199 14.6656C4.54351 14.3865 4.13867 13.9491 4.13867 13.3346C4.13867 12.7202 4.54351 12.2828 4.93199 12.0037C5.34231 11.7089 5.89491 11.4698 6.5214 11.2794C7.78294 10.8961 9.48934 10.668 11.3483 10.668C13.2073 10.668 14.9137 10.8961 16.1753 11.2794C16.8018 11.4698 17.3544 11.7089 17.7647 12.0037C18.1532 12.2828 18.558 12.7202 18.558 13.3346C18.558 13.9491 18.1532 14.3865 17.7647 14.6656C17.3544 14.9603 16.8018 15.1995 16.1753 15.3899ZM11.3483 15.3346C14.9839 15.3346 17.9311 14.4392 17.9311 13.3346C17.9311 12.2301 14.9839 11.3346 11.3483 11.3346C7.71278 11.3346 4.7656 12.2301 4.7656 13.3346C4.7656 14.4392 7.71278 15.3346 11.3483 15.3346Z" fill="#B96F00"/>
<path fill-rule="evenodd" clip-rule="evenodd" d="M6.33104 14.668C6.50417 14.668 6.64451 14.8172 6.64451 15.0013V16.8346C6.64451 17.0187 6.50417 17.168 6.33104 17.168C6.15792 17.168 6.01758 17.0187 6.01758 16.8346V15.0013C6.01758 14.8172 6.15792 14.668 6.33104 14.668ZM16.3619 14.668C16.535 14.668 16.6753 14.8172 16.6753 15.0013V16.8346C16.6753 17.0187 16.535 17.168 16.3619 17.168C16.1887 17.168 16.0484 17.0187 16.0484 16.8346V15.0013C16.0484 14.8172 16.1887 14.668 16.3619 14.668ZM8.83875 15.3346C9.01188 15.3346 9.15221 15.4839 9.15221 15.668V17.168C9.15221 17.3521 9.01188 17.5013 8.83875 17.5013C8.66562 17.5013 8.52529 17.3521 8.52529 17.168V15.668C8.52529 15.4839 8.66562 15.3346 8.83875 15.3346ZM14.1676 15.3346C14.3408 15.3346 14.4811 15.4839 14.4811 15.668V17.168C14.4811 17.3521 14.3408 17.5013 14.1676 17.5013C13.9945 17.5013 13.8542 17.3521 13.8542 17.168V15.668C13.8542 15.4839 13.9945 15.3346 14.1676 15.3346ZM11.6599 15.3346C11.833 15.3346 11.9734 15.4839 11.9734 15.668V17.168C11.9734 17.3521 11.833 17.5013 11.6599 17.5013C11.4868 17.5013 11.3465 17.3521 11.3465 17.168V15.668C11.3465 15.4839 11.4868 15.3346 11.6599 15.3346Z" fill="#B96F00"/>
<path d="M16.0483 10.332C16.0483 9.22746 13.1011 8.33203 9.46555 8.33203C5.83 8.33203 2.88281 9.22746 2.88281 10.332V12.332C2.88281 13.4366 5.83 14.332 9.46555 14.332C13.1011 14.332 16.0483 13.4366 16.0483 12.332V10.332Z" fill="#D18A00"/>
<path fill-rule="evenodd" clip-rule="evenodd" d="M15.8838 9.0037C16.2723 9.28277 16.6771 9.72017 16.6771 10.3346V12.3346C16.6771 12.9491 16.2723 13.3865 15.8838 13.6656C15.4735 13.9603 14.9209 14.1995 14.2944 14.3899C13.0329 14.7732 11.3265 15.0013 9.46748 15.0013C7.60848 15.0013 5.90208 14.7732 4.64054 14.3899C4.01405 14.1995 3.46145 13.9603 3.05113 13.6656C2.66265 13.3865 2.25781 12.9491 2.25781 12.3346V10.3346C2.25781 9.72017 2.66265 9.28277 3.05113 9.0037C3.46145 8.70894 4.01405 8.46977 4.64054 8.2794C5.90208 7.8961 7.60848 7.66797 9.46748 7.66797C11.3265 7.66797 13.0329 7.8961 14.2944 8.2794C14.9209 8.46977 15.4735 8.70894 15.8838 9.0037ZM9.46748 8.33464C13.103 8.33464 16.0502 9.23007 16.0502 10.3346V12.3346C16.0502 13.4392 13.103 14.3346 9.46748 14.3346C5.83192 14.3346 2.88474 13.4392 2.88474 12.3346V10.3346C2.88474 9.23007 5.83192 8.33464 9.46748 8.33464Z" fill="#B96F00"/>
<path d="M16.0483 10.332C16.0483 11.4366 13.1011 12.332 9.46555 12.332C5.83 12.332 2.88281 11.4366 2.88281 10.332C2.88281 9.22746 5.83 8.33203 9.46555 8.33203C13.1011 8.33203 16.0483 9.22746 16.0483 10.332Z" fill="#FFD952"/>
<path fill-rule="evenodd" clip-rule="evenodd" d="M14.2944 12.3899C13.0328 12.7732 11.3265 13.0013 9.46748 13.0013C7.60848 13.0013 5.90208 12.7732 4.64054 12.3899C4.01405 12.1995 3.46145 11.9603 3.05113 11.6656C2.66265 11.3865 2.25781 10.9491 2.25781 10.3346C2.25781 9.72017 2.66265 9.28277 3.05113 9.0037C3.46145 8.70894 4.01405 8.46977 4.64054 8.2794C5.90208 7.8961 7.60848 7.66797 9.46748 7.66797C11.3265 7.66797 13.0328 7.8961 14.2944 8.2794C14.9209 8.46977 15.4735 8.70894 15.8838 9.0037C16.2723 9.28277 16.6771 9.72017 16.6771 10.3346C16.6771 10.9491 16.2723 11.3865 15.8838 11.6656C15.4735 11.9603 14.9209 12.1995 14.2944 12.3899ZM9.46748 12.3346C13.103 12.3346 16.0502 11.4392 16.0502 10.3346C16.0502 9.23007 13.103 8.33464 9.46748 8.33464C5.83192 8.33464 2.88474 9.23007 2.88474 10.3346C2.88474 11.4392 5.83192 12.3346 9.46748 12.3346Z" fill="#B96F00"/>
<path d="M13.2262 10.1667C13.2262 10.811 11.5421 11.3333 9.46469 11.3333C7.38724 11.3333 5.70312 10.811 5.70312 10.1667C5.70312 9.52233 7.38724 9 9.46469 9C11.5421 9 13.2262 9.52233 13.2262 10.1667Z" fill="#FEE790"/>
<path fill-rule="evenodd" clip-rule="evenodd" d="M4.45214 11.668C4.62526 11.668 4.7656 11.8172 4.7656 12.0013V13.8346C4.7656 14.0187 4.62526 14.168 4.45214 14.168C4.27901 14.168 4.13867 14.0187 4.13867 13.8346V12.0013C4.13867 11.8172 4.27901 11.668 4.45214 11.668ZM14.483 11.668C14.6561 11.668 14.7964 11.8172 14.7964 12.0013V13.8346C14.7964 14.0187 14.6561 14.168 14.483 14.168C14.3098 14.168 14.1695 14.0187 14.1695 13.8346V12.0013C14.1695 11.8172 14.3098 11.668 14.483 11.668ZM6.95984 12.3346C7.13297 12.3346 7.27331 12.4839 7.27331 12.668V14.168C7.27331 14.3521 7.13297 14.5013 6.95984 14.5013C6.78672 14.5013 6.64638 14.3521 6.64638 14.168V12.668C6.64638 12.4839 6.78672 12.3346 6.95984 12.3346ZM12.2887 12.3346C12.4618 12.3346 12.6022 12.4839 12.6022 12.668V14.168C12.6022 14.3521 12.4618 14.5013 12.2887 14.5013C12.1156 14.5013 11.9753 14.3521 11.9753 14.168V12.668C11.9753 12.4839 12.1156 12.3346 12.2887 12.3346ZM9.78102 12.3346C9.95414 12.3346 10.0945 12.4839 10.0945 12.668V14.168C10.0945 14.3521 9.95414 14.5013 9.78102 14.5013C9.60789 14.5013 9.46755 14.3521 9.46755 14.168V12.668C9.46755 12.4839 9.60789 12.3346 9.78102 12.3346Z" fill="#B96F00"/>
<path fill-rule="evenodd" clip-rule="evenodd" d="M3.19628 10C3.3694 10 3.50974 10.1492 3.50974 10.3333C3.50974 10.3812 3.54967 10.5136 3.82991 10.6991C4.09344 10.8734 4.49565 11.0426 5.02048 11.1895C6.06547 11.4819 7.52634 11.6667 9.15208 11.6667C9.32521 11.6667 9.46555 11.8159 9.46555 12C9.46555 12.1841 9.32521 12.3333 9.15208 12.3333C7.48853 12.3333 5.97149 12.145 4.86092 11.8342C4.30794 11.6795 3.83794 11.4895 3.49871 11.2651C3.17621 11.0517 2.88281 10.7457 2.88281 10.3333C2.88281 10.1492 3.02315 10 3.19628 10Z" fill="#FFF1B9"/>
<path d="M21.3787 29.332C24.4948 29.332 27.021 26.6457 27.021 23.332C27.021 20.0183 24.4948 17.332 21.3787 17.332C18.2625 17.332 15.7363 20.0183 15.7363 23.332C15.7363 26.6457 18.2625 29.332 21.3787 29.332Z" fill="#021024" fill-opacity="0.1"/>
<path d="M26.0797 23.0013C26.0797 25.9468 23.8342 28.3346 21.0642 28.3346C18.2943 28.3346 16.0488 25.9468 16.0488 23.0013C16.0488 20.0558 18.2943 17.668 21.0642 17.668C23.8342 17.668 26.0797 20.0558 26.0797 23.0013Z" fill="#FFCF23"/>
<path fill-rule="evenodd" clip-rule="evenodd" d="M26.7066 23C26.7066 26.3137 24.1804 29 21.0642 29C17.948 29 15.4219 26.3137 15.4219 23C15.4219 19.6863 17.948 17 21.0642 17C24.1804 17 26.7066 19.6863 26.7066 23ZM21.0642 28.3333C23.8342 28.3333 26.0796 25.9455 26.0796 23C26.0796 20.0545 23.8342 17.6667 21.0642 17.6667C18.2943 17.6667 16.0488 20.0545 16.0488 23C16.0488 25.9455 18.2943 28.3333 21.0642 28.3333Z" fill="#B96F00"/>
<path fill-rule="evenodd" clip-rule="evenodd" d="M21.0652 18.6667C18.8147 18.6667 16.9902 20.6068 16.9902 23C16.9902 25.3932 18.8147 27.3333 21.0652 27.3333C23.3158 27.3333 25.1403 25.3932 25.1403 23C25.1403 20.6068 23.3158 18.6667 21.0652 18.6667ZM16.3633 23C16.3633 20.2386 18.4684 18 21.0652 18C23.6621 18 25.7672 20.2386 25.7672 23C25.7672 25.7614 23.6621 28 21.0652 28C18.4684 28 16.3633 25.7614 16.3633 23Z" fill="#F9B300"/>
<path fill-rule="evenodd" clip-rule="evenodd" d="M21.0633 19.3346C19.159 19.3346 17.6152 20.9763 17.6152 23.0013C17.6152 23.1854 17.4749 23.3346 17.3017 23.3346C17.1286 23.3346 16.9883 23.1854 16.9883 23.0013C16.9883 20.6081 18.8127 18.668 21.0633 18.668C21.2364 18.668 21.3768 18.8172 21.3768 19.0013C21.3768 19.1854 21.2364 19.3346 21.0633 19.3346Z" fill="#FFE792"/>
<path fill-rule="evenodd" clip-rule="evenodd" d="M18.8061 19.7995C18.9109 19.946 18.8842 20.1551 18.7464 20.2666C18.6553 20.3403 18.5692 20.4315 18.4908 20.5389C18.3847 20.6844 18.1878 20.7109 18.0511 20.598C17.9143 20.4852 17.8894 20.2758 17.9955 20.1304C18.1047 19.9807 18.2291 19.8475 18.3668 19.736C18.5046 19.6246 18.7013 19.653 18.8061 19.7995Z" fill="#FFF8DF"/>
<path d="M24.1991 22.3333C24.1991 22.5174 24.0588 22.6667 23.8856 22.6667C23.7125 22.6667 23.5722 22.5174 23.5722 22.3333C23.5722 22.1492 23.7125 22 23.8856 22C24.0588 22 24.1991 22.1492 24.1991 22.3333ZM24.826 23.6667C24.826 23.8508 24.6857 24 24.5126 24C24.3394 24 24.1991 23.8508 24.1991 23.6667C24.1991 23.4826 24.3394 23.3333 24.5126 23.3333C24.6857 23.3333 24.826 23.4826 24.826 23.6667ZM24.1991 25C24.1991 25.1841 24.0588 25.3333 23.8856 25.3333C23.7125 25.3333 23.5722 25.1841 23.5722 25C23.5722 24.8159 23.7125 24.6667 23.8856 24.6667C24.0588 24.6667 24.1991 24.8159 24.1991 25ZM22.6318 26C22.6318 26.1841 22.4914 26.3333 22.3183 26.3333C22.1452 26.3333 22.0048 26.1841 22.0048 26C22.0048 25.8159 22.1452 25.6667 22.3183 25.6667C22.4914 25.6667 22.6318 25.8159 22.6318 26ZM21.6914 26.6667C21.6914 26.8508 21.551 27 21.3779 27C21.2048 27 21.0645 26.8508 21.0645 26.6667C21.0645 26.4826 21.2048 26.3333 21.3779 26.3333C21.551 26.3333 21.6914 26.4826 21.6914 26.6667ZM23.8856 24C23.8856 24.1841 23.7453 24.3333 23.5722 24.3333C23.399 24.3333 23.2587 24.1841 23.2587 24C23.2587 23.8159 23.399 23.6667 23.5722 23.6667C23.7453 23.6667 23.8856 23.8159 23.8856 24ZM23.2587 23C23.2587 23.1841 23.1184 23.3333 22.9452 23.3333C22.7721 23.3333 22.6318 23.1841 22.6318 23C22.6318 22.8159 22.7721 22.6667 22.9452 22.6667C23.1184 22.6667 23.2587 22.8159 23.2587 23ZM23.2587 25C23.2587 25.1841 23.1184 25.3333 22.9452 25.3333C22.7721 25.3333 22.6318 25.1841 22.6318 25C22.6318 24.8159 22.7721 24.6667 22.9452 24.6667C23.1184 24.6667 23.2587 24.8159 23.2587 25Z" fill="#F9B300"/>
<path fill-rule="evenodd" clip-rule="evenodd" d="M21.4034 20.832C20.489 20.832 19.6533 21.7431 19.6533 22.9987C19.6533 24.2543 20.489 25.1654 21.4034 25.1654C21.748 25.1654 22.0724 25.0419 22.3488 24.8211C22.5565 24.6553 22.8512 24.6999 23.0072 24.9207C23.1631 25.1415 23.1212 25.4549 22.9135 25.6207C22.4866 25.9616 21.9667 26.1654 21.4034 26.1654C19.8653 26.1654 18.7129 24.6887 18.7129 22.9987C18.7129 21.3087 19.8653 19.832 21.4034 19.832C21.9667 19.832 22.4866 20.0358 22.9135 20.3767C23.1212 20.5425 23.1631 20.8559 23.0072 21.0767C22.8512 21.2975 22.5565 21.3421 22.3488 21.1763C22.0724 20.9555 21.748 20.832 21.4034 20.832Z" fill="#B96F00"/>
<path fill-rule="evenodd" clip-rule="evenodd" d="M17.9297 23.6667C17.9297 23.4826 18.07 23.3333 18.2432 23.3333H20.7509C20.924 23.3333 21.0643 23.4826 21.0643 23.6667C21.0643 23.8508 20.924 24 20.7509 24H18.2432C18.07 24 17.9297 23.8508 17.9297 23.6667ZM17.9297 22.3333C17.9297 22.1492 18.07 22 18.2432 22H20.7509C20.924 22 21.0643 22.1492 21.0643 22.3333C21.0643 22.5174 20.924 22.6667 20.7509 22.6667H18.2432C18.07 22.6667 17.9297 22.5174 17.9297 22.3333Z" fill="#B96F00"/>
</svg>
