<svg width="21" height="20" viewBox="0 0 21 20" fill="none" xmlns="http://www.w3.org/2000/svg">
<path d="M16.8847 7.81228C17.1441 7.97995 17.4144 8.24274 17.4144 8.61192V9.81354C17.4144 10.1827 17.1441 10.4455 16.8847 10.6132C16.7375 10.7083 16.5629 10.7938 16.3679 10.8703V11.2154C16.3679 11.2981 16.3543 11.3754 16.3304 11.4476C16.4722 11.5977 16.5772 11.7865 16.5772 12.0165V13.2181C16.5772 13.5873 16.3069 13.8501 16.0475 14.0178C15.7735 14.1949 15.4046 14.3385 14.9863 14.4529C14.1439 14.6832 13.0046 14.8203 11.7634 14.8203C10.5221 14.8203 9.38277 14.6832 8.54046 14.4529C8.12216 14.3385 7.75319 14.1949 7.47922 14.0178C7.21984 13.8501 6.94953 13.5873 6.94953 13.2181V12.0165C6.94953 11.9338 6.96309 11.8565 6.98704 11.7843C6.84518 11.6342 6.74023 11.4455 6.74023 11.2154V10.0138C6.74023 9.64463 7.01054 9.38184 7.26992 9.21417C7.41712 9.11902 7.59176 9.03351 7.78672 8.957V8.61192C7.78672 8.24274 8.05703 7.97995 8.31641 7.81228C8.59038 7.63519 8.95935 7.49149 9.37765 7.37712C10.22 7.14683 11.3593 7.00977 12.6005 7.00977C13.8418 7.00977 14.9811 7.14683 15.8234 7.37712C16.2417 7.49149 16.6107 7.63519 16.8847 7.81228Z" fill="#021024" fill-opacity="0.1"/>
<path d="M15.7377 11.6157C15.7377 10.952 13.7699 10.4141 11.3425 10.4141C8.91507 10.4141 6.94727 10.952 6.94727 11.6157V12.8173C6.94727 13.4809 8.91507 14.0189 11.3425 14.0189C13.7699 14.0189 15.7377 13.4809 15.7377 12.8173V11.6157Z" fill="#D18A00"/>
<path fill-rule="evenodd" clip-rule="evenodd" d="M15.6273 10.8162C15.8866 10.9839 16.157 11.2467 16.157 11.6158V12.8174C16.157 13.1866 15.8866 13.4494 15.6273 13.6171C15.3533 13.7942 14.9843 13.9379 14.566 14.0522C13.7237 14.2825 12.5844 14.4196 11.3431 14.4196C10.1019 14.4196 8.96254 14.2825 8.12023 14.0522C7.70192 13.9379 7.33296 13.7942 7.05899 13.6171C6.7996 13.4494 6.5293 13.1866 6.5293 12.8174V11.6158C6.5293 11.2467 6.7996 10.9839 7.05899 10.8162C7.33296 10.6391 7.70192 10.4954 8.12023 10.381C8.96254 10.1507 10.1019 10.0137 11.3431 10.0137C12.5844 10.0137 13.7237 10.1507 14.566 10.381C14.9843 10.4954 15.3533 10.6391 15.6273 10.8162ZM11.3431 10.4142C13.7706 10.4142 15.7384 10.9522 15.7384 11.6158V12.8174C15.7384 13.4811 13.7706 14.0191 11.3431 14.0191C8.9157 14.0191 6.94789 13.4811 6.94789 12.8174V11.6158C6.94789 10.9522 8.9157 10.4142 11.3431 10.4142Z" fill="#B96F00"/>
<path d="M15.7377 11.6157C15.7377 12.2793 13.7699 12.8173 11.3425 12.8173C8.91507 12.8173 6.94727 12.2793 6.94727 11.6157C6.94727 10.952 8.91507 10.4141 11.3425 10.4141C13.7699 10.4141 15.7377 10.952 15.7377 11.6157Z" fill="#FFCF23"/>
<path fill-rule="evenodd" clip-rule="evenodd" d="M14.566 12.8506C13.7237 13.0809 12.5844 13.218 11.3431 13.218C10.1019 13.218 8.96254 13.0809 8.12023 12.8506C7.70192 12.7363 7.33296 12.5926 7.05899 12.4155C6.7996 12.2478 6.5293 11.985 6.5293 11.6158C6.5293 11.2467 6.7996 10.9839 7.05899 10.8162C7.33296 10.6391 7.70192 10.4954 8.12023 10.381C8.96254 10.1507 10.1019 10.0137 11.3431 10.0137C12.5844 10.0137 13.7237 10.1507 14.566 10.381C14.9843 10.4954 15.3533 10.6391 15.6273 10.8162C15.8866 10.9839 16.157 11.2467 16.157 11.6158C16.157 11.985 15.8866 12.2478 15.6273 12.4155C15.3533 12.5926 14.9843 12.7363 14.566 12.8506ZM11.3431 12.8174C13.7706 12.8174 15.7384 12.2795 15.7384 11.6158C15.7384 10.9522 13.7706 10.4142 11.3431 10.4142C8.9157 10.4142 6.94789 10.9522 6.94789 11.6158C6.94789 12.2795 8.9157 12.8174 11.3431 12.8174Z" fill="#B96F00"/>
<path fill-rule="evenodd" clip-rule="evenodd" d="M7.99445 12.416C8.11005 12.416 8.20375 12.5057 8.20375 12.6163V13.7178C8.20375 13.8284 8.11005 13.918 7.99445 13.918C7.87886 13.918 7.78516 13.8284 7.78516 13.7178V12.6163C7.78516 12.5057 7.87886 12.416 7.99445 12.416ZM14.692 12.416C14.8075 12.416 14.9012 12.5057 14.9012 12.6163V13.7178C14.9012 13.8284 14.8075 13.918 14.692 13.918C14.5764 13.918 14.4827 13.8284 14.4827 13.7178V12.6163C14.4827 12.5057 14.5764 12.416 14.692 12.416ZM9.66883 12.8166C9.78442 12.8166 9.87812 12.9062 9.87812 13.0168V13.918C9.87812 14.0286 9.78442 14.1183 9.66883 14.1183C9.55323 14.1183 9.45953 14.0286 9.45953 13.918V13.0168C9.45953 12.9062 9.55323 12.8166 9.66883 12.8166ZM13.2269 12.8166C13.3425 12.8166 13.4362 12.9062 13.4362 13.0168V13.918C13.4362 14.0286 13.3425 14.1183 13.2269 14.1183C13.1113 14.1183 13.0176 14.0286 13.0176 13.918V13.0168C13.0176 12.9062 13.1113 12.8166 13.2269 12.8166ZM11.5525 12.8166C11.6681 12.8166 11.7618 12.9062 11.7618 13.0168V13.918C11.7618 14.0286 11.6681 14.1183 11.5525 14.1183C11.4369 14.1183 11.3432 14.0286 11.3432 13.918V13.0168C11.3432 12.9062 11.4369 12.8166 11.5525 12.8166Z" fill="#B96F00"/>
<path d="M15.5307 9.61373C15.5307 8.95009 13.5629 8.41211 11.1355 8.41211C8.70804 8.41211 6.74023 8.95009 6.74023 9.61373V10.8153C6.74023 11.479 8.70804 12.017 11.1355 12.017C13.5629 12.017 15.5307 11.479 15.5307 10.8153V9.61373Z" fill="#D18A00"/>
<path fill-rule="evenodd" clip-rule="evenodd" d="M15.4183 8.81424C15.6777 8.9819 15.948 9.2447 15.948 9.61387V10.8155C15.948 11.1847 15.6777 11.4475 15.4183 11.6151C15.1443 11.7922 14.7753 11.9359 14.357 12.0503C13.5147 12.2806 12.3754 12.4176 11.1341 12.4176C9.89291 12.4176 8.75356 12.2806 7.91124 12.0503C7.49294 11.9359 7.12397 11.7922 6.85 11.6151C6.59062 11.4475 6.32031 11.1847 6.32031 10.8155V9.61387C6.32031 9.2447 6.59062 8.9819 6.85 8.81424C7.12397 8.63714 7.49294 8.49345 7.91124 8.37907C8.75356 8.14878 9.89291 8.01172 11.1341 8.01172C12.3754 8.01172 13.5147 8.14878 14.357 8.37907C14.7753 8.49345 15.1443 8.63714 15.4183 8.81424ZM11.1341 8.41226C13.5616 8.41226 15.5294 8.95024 15.5294 9.61387V10.8155C15.5294 11.4791 13.5616 12.0171 11.1341 12.0171C8.70672 12.0171 6.73891 11.4791 6.73891 10.8155V9.61387C6.73891 8.95024 8.70672 8.41226 11.1341 8.41226Z" fill="#B96F00"/>
<path d="M15.5307 9.61373C15.5307 10.2774 13.5629 10.8153 11.1355 10.8153C8.70804 10.8153 6.74023 10.2774 6.74023 9.61373C6.74023 8.95009 8.70804 8.41211 11.1355 8.41211C13.5629 8.41211 15.5307 8.95009 15.5307 9.61373Z" fill="#FFCF23"/>
<path fill-rule="evenodd" clip-rule="evenodd" d="M14.357 10.8487C13.5147 11.079 12.3754 11.216 11.1341 11.216C9.89291 11.216 8.75356 11.079 7.91124 10.8487C7.49294 10.7343 7.12397 10.5906 6.85 10.4135C6.59062 10.2458 6.32031 9.98305 6.32031 9.61387C6.32031 9.2447 6.59062 8.9819 6.85 8.81424C7.12397 8.63714 7.49294 8.49345 7.91124 8.37907C8.75356 8.14878 9.89291 8.01172 11.1341 8.01172C12.3754 8.01172 13.5147 8.14878 14.357 8.37907C14.7753 8.49345 15.1443 8.63714 15.4183 8.81424C15.6777 8.9819 15.948 9.2447 15.948 9.61387C15.948 9.98305 15.6777 10.2458 15.4183 10.4135C15.1443 10.5906 14.7753 10.7343 14.357 10.8487ZM11.1341 10.8155C13.5616 10.8155 15.5294 10.2775 15.5294 9.61387C15.5294 8.95024 13.5616 8.41226 11.1341 8.41226C8.70672 8.41226 6.73891 8.95024 6.73891 9.61387C6.73891 10.2775 8.70672 10.8155 11.1341 10.8155Z" fill="#B96F00"/>
<path fill-rule="evenodd" clip-rule="evenodd" d="M7.78547 10.4141C7.90106 10.4141 7.99477 10.5037 7.99477 10.6143V11.7158C7.99477 11.8264 7.90106 11.9161 7.78547 11.9161C7.66987 11.9161 7.57617 11.8264 7.57617 11.7158V10.6143C7.57617 10.5037 7.66987 10.4141 7.78547 10.4141ZM14.483 10.4141C14.5986 10.4141 14.6923 10.5037 14.6923 10.6143V11.7158C14.6923 11.8264 14.5986 11.9161 14.483 11.9161C14.3674 11.9161 14.2737 11.8264 14.2737 11.7158V10.6143C14.2737 10.5037 14.3674 10.4141 14.483 10.4141ZM9.45984 10.8146C9.57544 10.8146 9.66914 10.9043 9.66914 11.0149V11.9161C9.66914 12.0267 9.57544 12.1164 9.45984 12.1164C9.34425 12.1164 9.25055 12.0267 9.25055 11.9161V11.0149C9.25055 10.9043 9.34425 10.8146 9.45984 10.8146ZM13.0179 10.8146C13.1335 10.8146 13.2272 10.9043 13.2272 11.0149V11.9161C13.2272 12.0267 13.1335 12.1164 13.0179 12.1164C12.9023 12.1164 12.8086 12.0267 12.8086 11.9161V11.0149C12.8086 10.9043 12.9023 10.8146 13.0179 10.8146ZM11.3435 10.8146C11.4591 10.8146 11.5528 10.9043 11.5528 11.0149V11.9161C11.5528 12.0267 11.4591 12.1164 11.3435 12.1164C11.2279 12.1164 11.1342 12.0267 11.1342 11.9161V11.0149C11.1342 10.9043 11.2279 10.8146 11.3435 10.8146Z" fill="#B96F00"/>
<path d="M16.5756 8.21138C16.5756 7.54775 14.6078 7.00977 12.1804 7.00977C9.75297 7.00977 7.78516 7.54775 7.78516 8.21138V9.413C7.78516 10.0766 9.75297 10.6146 12.1804 10.6146C14.6078 10.6146 16.5756 10.0766 16.5756 9.413V8.21138Z" fill="#D18A00"/>
<path fill-rule="evenodd" clip-rule="evenodd" d="M16.4652 7.41189C16.7245 7.57956 16.9948 7.84235 16.9948 8.21153V9.41315C16.9948 9.78232 16.7245 10.0451 16.4652 10.2128C16.1912 10.3899 15.8222 10.5336 15.4039 10.6479C14.5616 10.8782 13.4223 11.0153 12.181 11.0153C10.9398 11.0153 9.80043 10.8782 8.95812 10.6479C8.53982 10.5336 8.17085 10.3899 7.89688 10.2128C7.63749 10.0451 7.36719 9.78232 7.36719 9.41315V8.21153C7.36719 7.84235 7.63749 7.57956 7.89688 7.41189C8.17085 7.2348 8.53982 7.0911 8.95812 6.97673C9.80043 6.74644 10.9398 6.60938 12.181 6.60938C13.4223 6.60938 14.5616 6.74644 15.4039 6.97673C15.8222 7.0911 16.1912 7.2348 16.4652 7.41189ZM12.181 7.00991C14.6084 7.00991 16.5763 7.5479 16.5763 8.21153V9.41315C16.5763 10.0768 14.6084 10.6148 12.181 10.6148C9.75359 10.6148 7.78578 10.0768 7.78578 9.41315V8.21153C7.78578 7.5479 9.75359 7.00991 12.181 7.00991Z" fill="#B96F00"/>
<path d="M16.5756 8.21138C16.5756 8.87501 14.6078 9.413 12.1804 9.413C9.75297 9.413 7.78516 8.87501 7.78516 8.21138C7.78516 7.54775 9.75297 7.00977 12.1804 7.00977C14.6078 7.00977 16.5756 7.54775 16.5756 8.21138Z" fill="#FFCF23"/>
<path fill-rule="evenodd" clip-rule="evenodd" d="M15.4039 9.44633C14.5616 9.67662 13.4223 9.81369 12.181 9.81369C10.9398 9.81369 9.80043 9.67662 8.95812 9.44633C8.53982 9.33196 8.17085 9.18826 7.89688 9.01117C7.63749 8.8435 7.36719 8.58071 7.36719 8.21153C7.36719 7.84235 7.63749 7.57956 7.89688 7.41189C8.17085 7.2348 8.53982 7.0911 8.95812 6.97673C9.80043 6.74644 10.9398 6.60938 12.181 6.60938C13.4223 6.60938 14.5616 6.74644 15.4039 6.97673C15.8222 7.0911 16.1912 7.2348 16.4652 7.41189C16.7245 7.57956 16.9948 7.84235 16.9948 8.21153C16.9948 8.58071 16.7245 8.8435 16.4652 9.01117C16.1912 9.18826 15.8222 9.33196 15.4039 9.44633ZM12.181 9.41315C14.6084 9.41315 16.5763 8.87516 16.5763 8.21153C16.5763 7.5479 14.6084 7.00991 12.181 7.00991C9.75359 7.00991 7.78578 7.5479 7.78578 8.21153C7.78578 8.87516 9.75359 9.41315 12.181 9.41315Z" fill="#B96F00"/>
<path fill-rule="evenodd" clip-rule="evenodd" d="M8.83234 9.01172C8.94794 9.01172 9.04164 9.10138 9.04164 9.21199V10.3135C9.04164 10.4241 8.94794 10.5137 8.83234 10.5137C8.71675 10.5137 8.62305 10.4241 8.62305 10.3135V9.21199C8.62305 9.10138 8.71675 9.01172 8.83234 9.01172ZM15.5298 9.01172C15.6454 9.01172 15.7391 9.10138 15.7391 9.21199V10.3135C15.7391 10.4241 15.6454 10.5137 15.5298 10.5137C15.4142 10.5137 15.3205 10.4241 15.3205 10.3135V9.21199C15.3205 9.10138 15.4142 9.01172 15.5298 9.01172ZM10.5067 9.41226C10.6223 9.41226 10.716 9.50192 10.716 9.61253V10.5137C10.716 10.6243 10.6223 10.714 10.5067 10.714C10.3911 10.714 10.2974 10.6243 10.2974 10.5137V9.61253C10.2974 9.50192 10.3911 9.41226 10.5067 9.41226ZM14.0648 9.41226C14.1804 9.41226 14.2741 9.50192 14.2741 9.61253V10.5137C14.2741 10.6243 14.1804 10.714 14.0648 10.714C13.9492 10.714 13.8555 10.6243 13.8555 10.5137V9.61253C13.8555 9.50192 13.9492 9.41226 14.0648 9.41226ZM12.3904 9.41226C12.506 9.41226 12.5997 9.50192 12.5997 9.61253V10.5137C12.5997 10.6243 12.506 10.714 12.3904 10.714C12.2748 10.714 12.1811 10.6243 12.1811 10.5137V9.61253C12.1811 9.50192 12.2748 9.41226 12.3904 9.41226Z" fill="#B96F00"/>
<path d="M11.5524 6.60801C11.5524 6.23884 11.2821 5.97604 11.0227 5.80838C10.7488 5.63128 10.3798 5.48759 9.96149 5.37321C9.11918 5.14292 7.97983 5.00586 6.73859 5.00586C5.49736 5.00586 4.35801 5.14292 3.51569 5.37321C3.09739 5.48759 2.72842 5.63128 2.45445 5.80838C2.19507 5.97604 1.92477 6.23884 1.92477 6.60801V7.80963C1.92477 8.17881 2.19507 8.4416 2.45445 8.60927C2.63696 8.72725 2.86164 8.8304 3.11497 8.91995C3.03707 8.93859 2.96131 8.95798 2.8878 8.97806C2.4695 9.09244 2.10053 9.23613 1.82656 9.41323C1.56718 9.58089 1.29688 9.84369 1.29688 10.2129V11.4145C1.29688 11.7837 1.56718 12.0465 1.82656 12.2141C2.07272 12.3732 2.39554 12.5054 2.76195 12.6135V12.65C2.64983 12.7023 2.54675 12.7581 2.45445 12.8178C2.19507 12.9855 1.92477 13.2483 1.92477 13.6174V14.8191C1.92477 15.1882 2.19507 15.451 2.45445 15.6187C2.72842 15.7958 3.09739 15.9395 3.51569 16.0539C4.35801 16.2842 5.49736 16.4212 6.73859 16.4212C7.97983 16.4212 9.11918 16.2842 9.96149 16.0539C10.3798 15.9395 10.7488 15.7958 11.0227 15.6187C11.2821 15.451 11.5524 15.1882 11.5524 14.8191V13.984C11.6645 13.9318 11.7676 13.8759 11.8599 13.8163C12.1193 13.6486 12.3896 13.3858 12.3896 13.0166V11.815C12.3896 11.4458 12.1193 11.183 11.8599 11.0154C11.7318 10.9326 11.583 10.8571 11.418 10.7885C11.7535 10.6847 12.0493 10.5599 12.2785 10.4117C12.5379 10.244 12.8082 9.98123 12.8082 9.61206V8.41044C12.8082 8.04126 12.5379 7.77847 12.2785 7.6108C12.0804 7.48275 11.8326 7.37214 11.5524 7.27748V6.60801Z" fill="#021024" fill-opacity="0.1"/>
<path d="M10.7163 13.2172C10.7163 12.5536 8.74844 12.0156 6.32102 12.0156C3.89359 12.0156 1.92578 12.5536 1.92578 13.2172V14.4189C1.92578 15.0825 3.89359 15.6205 6.32102 15.6205C8.74844 15.6205 10.7163 15.0825 10.7163 14.4189V13.2172Z" fill="#D18A00"/>
<path fill-rule="evenodd" clip-rule="evenodd" d="M10.6058 12.4178C10.8652 12.5854 11.1355 12.8482 11.1355 13.2174V14.419C11.1355 14.7882 10.8652 15.051 10.6058 15.2186C10.3318 15.3957 9.96284 15.5394 9.54454 15.6538C8.70223 15.8841 7.56288 16.0212 6.32164 16.0212C5.08041 16.0212 3.94106 15.8841 3.09874 15.6538C2.68044 15.5394 2.31147 15.3957 2.0375 15.2186C1.77812 15.051 1.50781 14.7882 1.50781 14.419V13.2174C1.50781 12.8482 1.77812 12.5854 2.0375 12.4178C2.31147 12.2407 2.68044 12.097 3.09874 11.9826C3.94106 11.7523 5.08041 11.6152 6.32164 11.6152C7.56288 11.6152 8.70223 11.7523 9.54454 11.9826C9.96284 12.097 10.3318 12.2407 10.6058 12.4178ZM6.32164 12.0158C8.74907 12.0158 10.7169 12.5538 10.7169 13.2174V14.419C10.7169 15.0826 8.74907 15.6206 6.32164 15.6206C3.89422 15.6206 1.92641 15.0826 1.92641 14.419V13.2174C1.92641 12.5538 3.89422 12.0158 6.32164 12.0158Z" fill="#B96F00"/>
<path d="M10.7163 13.2172C10.7163 13.8809 8.74844 14.4189 6.32102 14.4189C3.89359 14.4189 1.92578 13.8809 1.92578 13.2172C1.92578 12.5536 3.89359 12.0156 6.32102 12.0156C8.74844 12.0156 10.7163 12.5536 10.7163 13.2172Z" fill="#FFCF23"/>
<path fill-rule="evenodd" clip-rule="evenodd" d="M9.54454 14.4522C8.70221 14.6825 7.56288 14.8195 6.32164 14.8195C5.08041 14.8195 3.94106 14.6825 3.09874 14.4522C2.68044 14.3378 2.31147 14.1941 2.0375 14.017C1.77812 13.8494 1.50781 13.5866 1.50781 13.2174C1.50781 12.8482 1.77812 12.5854 2.0375 12.4178C2.31147 12.2407 2.68044 12.097 3.09874 11.9826C3.94106 11.7523 5.08041 11.6152 6.32164 11.6152C7.56288 11.6152 8.70221 11.7523 9.54454 11.9826C9.96284 12.097 10.3318 12.2407 10.6058 12.4178C10.8652 12.5854 11.1355 12.8482 11.1355 13.2174C11.1355 13.5866 10.8652 13.8494 10.6058 14.017C10.3318 14.1941 9.96284 14.3378 9.54454 14.4522ZM6.32164 14.419C8.74907 14.419 10.7169 13.881 10.7169 13.2174C10.7169 12.5538 8.74907 12.0158 6.32164 12.0158C3.89422 12.0158 1.92641 12.5538 1.92641 13.2174C1.92641 13.881 3.89422 14.419 6.32164 14.419Z" fill="#B96F00"/>
<path fill-rule="evenodd" clip-rule="evenodd" d="M2.97297 14.0195C3.08856 14.0195 3.18227 14.1092 3.18227 14.2198V15.3213C3.18227 15.4319 3.08856 15.5216 2.97297 15.5216C2.85737 15.5216 2.76367 15.4319 2.76367 15.3213V14.2198C2.76367 14.1092 2.85737 14.0195 2.97297 14.0195ZM9.67047 14.0195C9.78606 14.0195 9.87977 14.1092 9.87977 14.2198V15.3213C9.87977 15.4319 9.78606 15.5216 9.67047 15.5216C9.55487 15.5216 9.46117 15.4319 9.46117 15.3213V14.2198C9.46117 14.1092 9.55487 14.0195 9.67047 14.0195ZM4.64734 14.4201C4.76294 14.4201 4.85664 14.5097 4.85664 14.6203V15.5216C4.85664 15.6322 4.76294 15.7218 4.64734 15.7218C4.53175 15.7218 4.43805 15.6322 4.43805 15.5216V14.6203C4.43805 14.5097 4.53175 14.4201 4.64734 14.4201ZM8.20539 14.4201C8.32098 14.4201 8.41469 14.5097 8.41469 14.6203V15.5216C8.41469 15.6322 8.32098 15.7218 8.20539 15.7218C8.0898 15.7218 7.99609 15.6322 7.99609 15.5216V14.6203C7.99609 14.5097 8.0898 14.4201 8.20539 14.4201ZM6.53102 14.4201C6.64661 14.4201 6.74031 14.5097 6.74031 14.6203V15.5216C6.74031 15.6322 6.64661 15.7218 6.53102 15.7218C6.41542 15.7218 6.32172 15.6322 6.32172 15.5216V14.6203C6.32172 14.5097 6.41542 14.4201 6.53102 14.4201Z" fill="#B96F00"/>
<path d="M11.5541 11.4145C11.5541 10.7509 9.58633 10.2129 7.15891 10.2129C4.73148 10.2129 2.76367 10.7509 2.76367 11.4145V12.6161C2.76367 13.2798 4.73148 13.8177 7.15891 13.8177C9.58633 13.8177 11.5541 13.2798 11.5541 12.6161V11.4145Z" fill="#D18A00"/>
<path fill-rule="evenodd" clip-rule="evenodd" d="M11.4437 10.615C11.7031 10.7827 11.9734 11.0455 11.9734 11.4147V12.6163C11.9734 12.9854 11.7031 13.2482 11.4437 13.4159C11.1697 13.593 10.8007 13.7367 10.3824 13.8511C9.54012 14.0814 8.40077 14.2184 7.15953 14.2184C5.9183 14.2184 4.77895 14.0814 3.93663 13.8511C3.51833 13.7367 3.14936 13.593 2.87539 13.4159C2.61601 13.2482 2.3457 12.9854 2.3457 12.6163V11.4147C2.3457 11.0455 2.61601 10.7827 2.87539 10.615C3.14936 10.4379 3.51833 10.2942 3.93663 10.1799C4.77895 9.94956 5.9183 9.8125 7.15953 9.8125C8.40077 9.8125 9.54012 9.94956 10.3824 10.1799C10.8007 10.2942 11.1697 10.4379 11.4437 10.615ZM7.15953 10.213C9.58696 10.213 11.5548 10.751 11.5548 11.4147V12.6163C11.5548 13.2799 9.58696 13.8179 7.15953 13.8179C4.73211 13.8179 2.7643 13.2799 2.7643 12.6163V11.4147C2.7643 10.751 4.73211 10.213 7.15953 10.213Z" fill="#B96F00"/>
<path d="M11.5541 11.4145C11.5541 12.0781 9.58633 12.6161 7.15891 12.6161C4.73148 12.6161 2.76367 12.0781 2.76367 11.4145C2.76367 10.7509 4.73148 10.2129 7.15891 10.2129C9.58633 10.2129 11.5541 10.7509 11.5541 11.4145Z" fill="#FFCF23"/>
<path fill-rule="evenodd" clip-rule="evenodd" d="M10.3824 12.6495C9.5401 12.8797 8.40077 13.0168 7.15953 13.0168C5.9183 13.0168 4.77895 12.8797 3.93663 12.6495C3.51833 12.5351 3.14936 12.3914 2.87539 12.2143C2.61601 12.0466 2.3457 11.7838 2.3457 11.4147C2.3457 11.0455 2.61601 10.7827 2.87539 10.615C3.14936 10.4379 3.51833 10.2942 3.93663 10.1799C4.77895 9.94956 5.9183 9.8125 7.15953 9.8125C8.40077 9.8125 9.5401 9.94956 10.3824 10.1799C10.8007 10.2942 11.1697 10.4379 11.4437 10.615C11.7031 10.7827 11.9734 11.0455 11.9734 11.4147C11.9734 11.7838 11.7031 12.0466 11.4437 12.2143C11.1697 12.3914 10.8007 12.5351 10.3824 12.6495ZM7.15953 12.6163C9.58696 12.6163 11.5548 12.0783 11.5548 11.4147C11.5548 10.751 9.58696 10.213 7.15953 10.213C4.73211 10.213 2.7643 10.751 2.7643 11.4147C2.7643 12.0783 4.73211 12.6163 7.15953 12.6163Z" fill="#B96F00"/>
<path fill-rule="evenodd" clip-rule="evenodd" d="M3.80891 12.2168C3.9245 12.2168 4.0182 12.3065 4.0182 12.4171V13.5185C4.0182 13.6292 3.9245 13.7188 3.80891 13.7188C3.69331 13.7188 3.59961 13.6292 3.59961 13.5185V12.4171C3.59961 12.3065 3.69331 12.2168 3.80891 12.2168ZM10.5064 12.2168C10.622 12.2168 10.7157 12.3065 10.7157 12.4171V13.5185C10.7157 13.6292 10.622 13.7188 10.5064 13.7188C10.3908 13.7188 10.2971 13.6292 10.2971 13.5185V12.4171C10.2971 12.3065 10.3908 12.2168 10.5064 12.2168ZM5.48328 12.6173C5.59888 12.6173 5.69258 12.707 5.69258 12.8176V13.7188C5.69258 13.8294 5.59888 13.9191 5.48328 13.9191C5.36769 13.9191 5.27398 13.8294 5.27398 13.7188V12.8176C5.27398 12.707 5.36769 12.6173 5.48328 12.6173ZM9.04133 12.6173C9.15692 12.6173 9.25062 12.707 9.25062 12.8176V13.7188C9.25062 13.8294 9.15692 13.9191 9.04133 13.9191C8.92573 13.9191 8.83203 13.8294 8.83203 13.7188V12.8176C8.83203 12.707 8.92573 12.6173 9.04133 12.6173ZM7.36695 12.6173C7.48255 12.6173 7.57625 12.707 7.57625 12.8176V13.7188C7.57625 13.8294 7.48255 13.9191 7.36695 13.9191C7.25136 13.9191 7.15766 13.8294 7.15766 13.7188V12.8176C7.15766 12.707 7.25136 12.6173 7.36695 12.6173Z" fill="#B96F00"/>
<path d="M10.0873 9.81294C10.0873 9.14931 8.11953 8.61133 5.69211 8.61133C3.26468 8.61133 1.29688 9.14931 1.29688 9.81294V11.0146C1.29688 11.6782 3.26468 12.2162 5.69211 12.2162C8.11953 12.2162 10.0873 11.6782 10.0873 11.0146V9.81294Z" fill="#D18A00"/>
<path fill-rule="evenodd" clip-rule="evenodd" d="M9.97688 9.01346C10.2363 9.18112 10.5066 9.44392 10.5066 9.81309V11.0147C10.5066 11.3839 10.2363 11.6467 9.97688 11.8143C9.70291 11.9914 9.33394 12.1351 8.91564 12.2495C8.07332 12.4798 6.93397 12.6169 5.69274 12.6169C4.4515 12.6169 3.31215 12.4798 2.46983 12.2495C2.05153 12.1351 1.68256 11.9914 1.40859 11.8143C1.14921 11.6467 0.878906 11.3839 0.878906 11.0147V9.81309C0.878906 9.44392 1.14921 9.18112 1.40859 9.01346C1.68256 8.83636 2.05153 8.69267 2.46983 8.57829C3.31215 8.348 4.4515 8.21094 5.69274 8.21094C6.93397 8.21094 8.07332 8.348 8.91564 8.57829C9.33394 8.69267 9.70291 8.83636 9.97688 9.01346ZM5.69274 8.61148C8.12016 8.61148 10.088 9.14946 10.088 9.81309V11.0147C10.088 11.6783 8.12016 12.2163 5.69274 12.2163C3.26531 12.2163 1.2975 11.6783 1.2975 11.0147V9.81309C1.2975 9.14946 3.26531 8.61148 5.69274 8.61148Z" fill="#B96F00"/>
<path d="M10.0873 9.81294C10.0873 10.4766 8.11953 11.0146 5.69211 11.0146C3.26468 11.0146 1.29688 10.4766 1.29688 9.81294C1.29688 9.14931 3.26468 8.61133 5.69211 8.61133C8.11953 8.61133 10.0873 9.14931 10.0873 9.81294Z" fill="#FFCF23"/>
<path fill-rule="evenodd" clip-rule="evenodd" d="M8.91564 11.0479C8.0733 11.2782 6.93397 11.4152 5.69274 11.4152C4.4515 11.4152 3.31215 11.2782 2.46983 11.0479C2.05153 10.9335 1.68256 10.7898 1.40859 10.6127C1.14921 10.4451 0.878906 10.1823 0.878906 9.81309C0.878906 9.44392 1.14921 9.18112 1.40859 9.01346C1.68256 8.83636 2.05153 8.69267 2.46983 8.57829C3.31215 8.348 4.4515 8.21094 5.69274 8.21094C6.93397 8.21094 8.0733 8.348 8.91564 8.57829C9.33394 8.69267 9.70291 8.83636 9.97688 9.01346C10.2363 9.18112 10.5066 9.44392 10.5066 9.81309C10.5066 10.1823 10.2363 10.4451 9.97688 10.6127C9.70291 10.7898 9.33394 10.9335 8.91564 11.0479ZM5.69274 11.0147C8.12016 11.0147 10.088 10.4767 10.088 9.81309C10.088 9.14946 8.12016 8.61148 5.69274 8.61148C3.26531 8.61148 1.2975 9.14946 1.2975 9.81309C1.2975 10.4767 3.26531 11.0147 5.69274 11.0147Z" fill="#B96F00"/>
<path fill-rule="evenodd" clip-rule="evenodd" d="M2.34406 10.6152C2.45966 10.6152 2.55336 10.7049 2.55336 10.8155V11.917C2.55336 12.0276 2.45966 12.1173 2.34406 12.1173C2.22847 12.1173 2.13477 12.0276 2.13477 11.917V10.8155C2.13477 10.7049 2.22847 10.6152 2.34406 10.6152ZM9.04156 10.6152C9.15716 10.6152 9.25086 10.7049 9.25086 10.8155V11.917C9.25086 12.0276 9.15716 12.1173 9.04156 12.1173C8.92597 12.1173 8.83227 12.0276 8.83227 11.917V10.8155C8.83227 10.7049 8.92597 10.6152 9.04156 10.6152ZM4.01844 11.0158C4.13403 11.0158 4.22773 11.1054 4.22773 11.216V12.1173C4.22773 12.2279 4.13403 12.3175 4.01844 12.3175C3.90284 12.3175 3.80914 12.2279 3.80914 12.1173V11.216C3.80914 11.1054 3.90284 11.0158 4.01844 11.0158ZM7.57648 11.0158C7.69208 11.0158 7.78578 11.1054 7.78578 11.216V12.1173C7.78578 12.2279 7.69208 12.3175 7.57648 12.3175C7.46089 12.3175 7.36719 12.2279 7.36719 12.1173V11.216C7.36719 11.1054 7.46089 11.0158 7.57648 11.0158ZM5.90211 11.0158C6.0177 11.0158 6.11141 11.1054 6.11141 11.216V12.1173C6.11141 12.2279 6.0177 12.3175 5.90211 12.3175C5.78651 12.3175 5.69281 12.2279 5.69281 12.1173V11.216C5.69281 11.1054 5.78651 11.0158 5.90211 11.0158Z" fill="#B96F00"/>
<path d="M11.9702 8.01021C11.9702 7.34658 10.0023 6.80859 7.57492 6.80859C5.1475 6.80859 3.17969 7.34658 3.17969 8.01021V9.21183C3.17969 9.87546 5.1475 10.4134 7.57492 10.4134C10.0023 10.4134 11.9702 9.87546 11.9702 9.21183V8.01021Z" fill="#D18A00"/>
<path fill-rule="evenodd" clip-rule="evenodd" d="M11.8616 7.21072C12.121 7.37839 12.3913 7.64118 12.3913 8.01036V9.21197C12.3913 9.58115 12.121 9.84394 11.8616 10.0116C11.5877 10.1887 11.2187 10.3324 10.8004 10.4468C9.95809 10.6771 8.81874 10.8141 7.5775 10.8141C6.33627 10.8141 5.19692 10.6771 4.3546 10.4468C3.9363 10.3324 3.56733 10.1887 3.29336 10.0116C3.03398 9.84394 2.76367 9.58115 2.76367 9.21197V8.01036C2.76367 7.64118 3.03398 7.37839 3.29336 7.21072C3.56733 7.03362 3.9363 6.88993 4.3546 6.77556C5.19692 6.54527 6.33627 6.4082 7.5775 6.4082C8.81874 6.4082 9.95809 6.54527 10.8004 6.77556C11.2187 6.88993 11.5877 7.03362 11.8616 7.21072ZM7.5775 6.80874C10.0049 6.80874 11.9727 7.34673 11.9727 8.01036V9.21197C11.9727 9.87561 10.0049 10.4136 7.5775 10.4136C5.15008 10.4136 3.18227 9.87561 3.18227 9.21197V8.01036C3.18227 7.34673 5.15008 6.80874 7.5775 6.80874Z" fill="#B96F00"/>
<path d="M11.9702 8.01021C11.9702 8.67384 10.0023 9.21183 7.57492 9.21183C5.1475 9.21183 3.17969 8.67384 3.17969 8.01021C3.17969 7.34658 5.1475 6.80859 7.57492 6.80859C10.0023 6.80859 11.9702 7.34658 11.9702 8.01021Z" fill="#FFCF23"/>
<path fill-rule="evenodd" clip-rule="evenodd" d="M10.8004 9.24516C9.95807 9.47545 8.81874 9.61251 7.5775 9.61251C6.33627 9.61251 5.19692 9.47545 4.3546 9.24516C3.9363 9.13079 3.56733 8.98709 3.29336 8.80999C3.03398 8.64233 2.76367 8.37953 2.76367 8.01036C2.76367 7.64118 3.03398 7.37839 3.29336 7.21072C3.56733 7.03362 3.9363 6.88993 4.3546 6.77556C5.19692 6.54527 6.33627 6.4082 7.5775 6.4082C8.81874 6.4082 9.95807 6.54527 10.8004 6.77556C11.2187 6.88993 11.5877 7.03362 11.8616 7.21072C12.121 7.37839 12.3913 7.64118 12.3913 8.01036C12.3913 8.37953 12.121 8.64233 11.8616 8.80999C11.5877 8.98709 11.2187 9.13079 10.8004 9.24516ZM7.5775 9.21197C10.0049 9.21197 11.9727 8.67399 11.9727 8.01036C11.9727 7.34673 10.0049 6.80874 7.5775 6.80874C5.15008 6.80874 3.18227 7.34673 3.18227 8.01036C3.18227 8.67399 5.15008 9.21197 7.5775 9.21197Z" fill="#B96F00"/>
<path fill-rule="evenodd" clip-rule="evenodd" d="M4.22687 8.8125C4.34247 8.8125 4.43617 8.90216 4.43617 9.01277V10.1143C4.43617 10.2249 4.34247 10.3145 4.22687 10.3145C4.11128 10.3145 4.01758 10.2249 4.01758 10.1143V9.01277C4.01758 8.90216 4.11128 8.8125 4.22687 8.8125ZM10.9244 8.8125C11.04 8.8125 11.1337 8.90216 11.1337 9.01277V10.1143C11.1337 10.2249 11.04 10.3145 10.9244 10.3145C10.8088 10.3145 10.7151 10.2249 10.7151 10.1143V9.01277C10.7151 8.90216 10.8088 8.8125 10.9244 8.8125ZM5.90125 9.21304C6.01684 9.21304 6.11055 9.3027 6.11055 9.41331V10.3145C6.11055 10.4251 6.01684 10.5148 5.90125 10.5148C5.78566 10.5148 5.69195 10.4251 5.69195 10.3145V9.41331C5.69195 9.3027 5.78566 9.21304 5.90125 9.21304ZM9.4593 9.21304C9.57489 9.21304 9.66859 9.3027 9.66859 9.41331V10.3145C9.66859 10.4251 9.57489 10.5148 9.4593 10.5148C9.3437 10.5148 9.25 10.4251 9.25 10.3145V9.41331C9.25 9.3027 9.3437 9.21304 9.4593 9.21304ZM7.78492 9.21304C7.90052 9.21304 7.99422 9.3027 7.99422 9.41331V10.3145C7.99422 10.4251 7.90052 10.5148 7.78492 10.5148C7.66933 10.5148 7.57562 10.4251 7.57562 10.3145V9.41331C7.57562 9.3027 7.66933 9.21304 7.78492 9.21304Z" fill="#B96F00"/>
<path d="M10.7163 6.20748C10.7163 5.54384 8.74844 5.00586 6.32102 5.00586C3.89359 5.00586 1.92578 5.54384 1.92578 6.20748V7.40909C1.92578 8.07272 3.89359 8.61071 6.32102 8.61071C8.74844 8.61071 10.7163 8.07272 10.7163 7.40909V6.20748Z" fill="#D18A00"/>
<path fill-rule="evenodd" clip-rule="evenodd" d="M10.6058 5.40799C10.8652 5.57565 11.1355 5.83845 11.1355 6.20762V7.40924C11.1355 7.77842 10.8652 8.04121 10.6058 8.20888C10.3318 8.38597 9.96284 8.52967 9.54454 8.64404C8.70223 8.87433 7.56288 9.01139 6.32164 9.01139C5.08041 9.01139 3.94106 8.87433 3.09874 8.64404C2.68044 8.52967 2.31147 8.38597 2.0375 8.20888C1.77812 8.04121 1.50781 7.77842 1.50781 7.40924V6.20762C1.50781 5.83845 1.77812 5.57565 2.0375 5.40799C2.31147 5.23089 2.68044 5.0872 3.09874 4.97282C3.94106 4.74253 5.08041 4.60547 6.32164 4.60547C7.56288 4.60547 8.70223 4.74253 9.54454 4.97282C9.96284 5.0872 10.3318 5.23089 10.6058 5.40799ZM6.32164 5.00601C8.74907 5.00601 10.7169 5.54399 10.7169 6.20762V7.40924C10.7169 8.07287 8.74907 8.61086 6.32164 8.61086C3.89422 8.61086 1.92641 8.07287 1.92641 7.40924V6.20762C1.92641 5.54399 3.89422 5.00601 6.32164 5.00601Z" fill="#B96F00"/>
<path d="M10.7163 6.20748C10.7163 6.87111 8.74844 7.40909 6.32102 7.40909C3.89359 7.40909 1.92578 6.87111 1.92578 6.20748C1.92578 5.54384 3.89359 5.00586 6.32102 5.00586C8.74844 5.00586 10.7163 5.54384 10.7163 6.20748Z" fill="#FFD952"/>
<path fill-rule="evenodd" clip-rule="evenodd" d="M9.54454 7.44242C8.70221 7.67271 7.56288 7.80978 6.32164 7.80978C5.08041 7.80978 3.94106 7.67271 3.09874 7.44242C2.68044 7.32805 2.31147 7.18436 2.0375 7.00726C1.77812 6.83959 1.50781 6.5768 1.50781 6.20762C1.50781 5.83845 1.77812 5.57565 2.0375 5.40799C2.31147 5.23089 2.68044 5.0872 3.09874 4.97282C3.94106 4.74253 5.08041 4.60547 6.32164 4.60547C7.56288 4.60547 8.70221 4.74253 9.54454 4.97282C9.96284 5.0872 10.3318 5.23089 10.6058 5.40799C10.8652 5.57565 11.1355 5.83845 11.1355 6.20762C11.1355 6.5768 10.8652 6.83959 10.6058 7.00726C10.3318 7.18436 9.96284 7.32805 9.54454 7.44242ZM6.32164 7.40924C8.74907 7.40924 10.7169 6.87126 10.7169 6.20762C10.7169 5.54399 8.74907 5.00601 6.32164 5.00601C3.89422 5.00601 1.92641 5.54399 1.92641 6.20762C1.92641 6.87126 3.89422 7.40924 6.32164 7.40924Z" fill="#B96F00"/>
<path d="M8.83172 6.10915C8.83172 6.49627 7.70725 6.81009 6.32016 6.81009C4.93306 6.81009 3.80859 6.49627 3.80859 6.10915C3.80859 5.72203 4.93306 5.4082 6.32016 5.4082C7.70725 5.4082 8.83172 5.72203 8.83172 6.10915Z" fill="#FEE790"/>
<path fill-rule="evenodd" clip-rule="evenodd" d="M2.97297 7.00977C3.08856 7.00977 3.18227 7.09943 3.18227 7.21004V8.31152C3.18227 8.42213 3.08856 8.51179 2.97297 8.51179C2.85737 8.51179 2.76367 8.42213 2.76367 8.31152V7.21004C2.76367 7.09943 2.85737 7.00977 2.97297 7.00977ZM9.67047 7.00977C9.78606 7.00977 9.87977 7.09943 9.87977 7.21004V8.31152C9.87977 8.42213 9.78606 8.51179 9.67047 8.51179C9.55487 8.51179 9.46117 8.42213 9.46117 8.31152V7.21004C9.46117 7.09943 9.55487 7.00977 9.67047 7.00977ZM4.64734 7.4103C4.76294 7.4103 4.85664 7.49997 4.85664 7.61057V8.51179C4.85664 8.62239 4.76294 8.71206 4.64734 8.71206C4.53175 8.71206 4.43805 8.62239 4.43805 8.51179V7.61057C4.43805 7.49997 4.53175 7.4103 4.64734 7.4103ZM8.20539 7.4103C8.32098 7.4103 8.41469 7.49997 8.41469 7.61057V8.51179C8.41469 8.62239 8.32098 8.71206 8.20539 8.71206C8.0898 8.71206 7.99609 8.62239 7.99609 8.51179V7.61057C7.99609 7.49997 8.0898 7.4103 8.20539 7.4103ZM6.53102 7.4103C6.64661 7.4103 6.74031 7.49997 6.74031 7.61057V8.51179C6.74031 8.62239 6.64661 8.71206 6.53102 8.71206C6.41542 8.71206 6.32172 8.62239 6.32172 8.51179V7.61057C6.32172 7.49997 6.41542 7.4103 6.53102 7.4103Z" fill="#B96F00"/>
<path fill-rule="evenodd" clip-rule="evenodd" d="M2.13508 6.00781C2.25067 6.00781 2.34438 6.09747 2.34438 6.20808C2.34438 6.23684 2.37104 6.31641 2.55815 6.42782C2.73411 6.53256 3.00266 6.63424 3.35308 6.72247C4.05081 6.89815 5.02622 7.00916 6.11172 7.00916C6.22731 7.00916 6.32102 7.09882 6.32102 7.20943C6.32102 7.32004 6.22731 7.4097 6.11172 7.4097C5.00098 7.4097 3.98807 7.29655 3.24655 7.10982C2.87733 7.01685 2.56351 6.90274 2.33701 6.76789C2.12168 6.6397 1.92578 6.45584 1.92578 6.20808C1.92578 6.09747 2.01948 6.00781 2.13508 6.00781Z" fill="#FFF1B9"/>
<path d="M14.2752 17.6238C16.3558 17.6238 18.0425 16.0098 18.0425 14.0189C18.0425 12.028 16.3558 10.4141 14.2752 10.4141C12.1945 10.4141 10.5078 12.028 10.5078 14.0189C10.5078 16.0098 12.1945 17.6238 14.2752 17.6238Z" fill="#021024" fill-opacity="0.1"/>
<path d="M17.4123 13.8195C17.4123 15.5892 15.9131 17.0239 14.0636 17.0239C12.2141 17.0239 10.7148 15.5892 10.7148 13.8195C10.7148 12.0498 12.2141 10.6152 14.0636 10.6152C15.9131 10.6152 17.4123 12.0498 17.4123 13.8195Z" fill="#FFCF23"/>
<path fill-rule="evenodd" clip-rule="evenodd" d="M17.8316 13.8177C17.8316 15.8086 16.1449 17.4226 14.0642 17.4226C11.9836 17.4226 10.2969 15.8086 10.2969 13.8177C10.2969 11.8268 11.9836 10.2129 14.0642 10.2129C16.1449 10.2129 17.8316 11.8268 17.8316 13.8177ZM14.0642 17.0221C15.9137 17.0221 17.413 15.5874 17.413 13.8177C17.413 12.048 15.9137 10.6134 14.0642 10.6134C12.2147 10.6134 10.7155 12.048 10.7155 13.8177C10.7155 15.5874 12.2147 17.0221 14.0642 17.0221Z" fill="#B96F00"/>
<path fill-rule="evenodd" clip-rule="evenodd" d="M14.0652 11.215C12.5625 11.215 11.3444 12.3806 11.3444 13.8185C11.3444 15.2564 12.5625 16.422 14.0652 16.422C15.5679 16.422 16.7861 15.2564 16.7861 13.8185C16.7861 12.3806 15.5679 11.215 14.0652 11.215ZM10.9258 13.8185C10.9258 12.1594 12.3314 10.8145 14.0652 10.8145C15.7991 10.8145 17.2047 12.1594 17.2047 13.8185C17.2047 15.4776 15.7991 16.8225 14.0652 16.8225C12.3314 16.8225 10.9258 15.4776 10.9258 13.8185Z" fill="#F9B300"/>
<path fill-rule="evenodd" clip-rule="evenodd" d="M14.0646 11.6154C12.7931 11.6154 11.7623 12.6017 11.7623 13.8183C11.7623 13.929 11.6686 14.0186 11.553 14.0186C11.4375 14.0186 11.3438 13.929 11.3438 13.8183C11.3438 12.3805 12.5619 11.2148 14.0646 11.2148C14.1802 11.2148 14.2739 11.3045 14.2739 11.4151C14.2739 11.5257 14.1802 11.6154 14.0646 11.6154Z" fill="#FFE792"/>
<path fill-rule="evenodd" clip-rule="evenodd" d="M12.5559 11.8954C12.6259 11.9835 12.608 12.1091 12.516 12.1761C12.4552 12.2203 12.3977 12.2752 12.3454 12.3397C12.2745 12.4271 12.1431 12.443 12.0517 12.3752C11.9604 12.3074 11.9438 12.1816 12.0146 12.0942C12.0875 12.0043 12.1706 11.9243 12.2626 11.8573C12.3546 11.7903 12.4859 11.8074 12.5559 11.8954Z" fill="#FFF8DF"/>
<path d="M16.1574 13.419C16.1574 13.5296 16.0637 13.6193 15.9481 13.6193C15.8325 13.6193 15.7388 13.5296 15.7388 13.419C15.7388 13.3084 15.8325 13.2188 15.9481 13.2188C16.0637 13.2188 16.1574 13.3084 16.1574 13.419ZM16.576 14.2201C16.576 14.3307 16.4823 14.4204 16.3667 14.4204C16.2511 14.4204 16.1574 14.3307 16.1574 14.2201C16.1574 14.1095 16.2511 14.0198 16.3667 14.0198C16.4823 14.0198 16.576 14.1095 16.576 14.2201ZM16.1574 15.0212C16.1574 15.1318 16.0637 15.2214 15.9481 15.2214C15.8325 15.2214 15.7388 15.1318 15.7388 15.0212C15.7388 14.9106 15.8325 14.8209 15.9481 14.8209C16.0637 14.8209 16.1574 14.9106 16.1574 15.0212ZM15.1109 15.622C15.1109 15.7326 15.0172 15.8223 14.9016 15.8223C14.786 15.8223 14.6923 15.7326 14.6923 15.622C14.6923 15.5114 14.786 15.4217 14.9016 15.4217C15.0172 15.4217 15.1109 15.5114 15.1109 15.622ZM14.483 16.0225C14.483 16.1331 14.3893 16.2228 14.2738 16.2228C14.1582 16.2228 14.0645 16.1331 14.0645 16.0225C14.0645 15.9119 14.1582 15.8223 14.2738 15.8223C14.3893 15.8223 14.483 15.9119 14.483 16.0225ZM15.9481 14.4204C15.9481 14.531 15.8544 14.6206 15.7388 14.6206C15.6232 14.6206 15.5295 14.531 15.5295 14.4204C15.5295 14.3098 15.6232 14.2201 15.7388 14.2201C15.8544 14.2201 15.9481 14.3098 15.9481 14.4204ZM15.5295 13.8196C15.5295 13.9302 15.4358 14.0198 15.3202 14.0198C15.2046 14.0198 15.1109 13.9302 15.1109 13.8196C15.1109 13.7089 15.2046 13.6193 15.3202 13.6193C15.4358 13.6193 15.5295 13.7089 15.5295 13.8196ZM15.5295 15.0212C15.5295 15.1318 15.4358 15.2214 15.3202 15.2214C15.2046 15.2214 15.1109 15.1318 15.1109 15.0212C15.1109 14.9106 15.2046 14.8209 15.3202 14.8209C15.4358 14.8209 15.5295 14.9106 15.5295 15.0212Z" fill="#F9B300"/>
<path fill-rule="evenodd" clip-rule="evenodd" d="M14.2906 12.5168C13.68 12.5168 13.122 13.0642 13.122 13.8186C13.122 14.5729 13.68 15.1203 14.2906 15.1203C14.5207 15.1203 14.7372 15.0461 14.9218 14.9135C15.0605 14.8139 15.2573 14.8406 15.3614 14.9733C15.4655 15.106 15.4375 15.2943 15.2989 15.3939C15.0138 15.5987 14.6667 15.7211 14.2906 15.7211C13.2636 15.7211 12.4941 14.8339 12.4941 13.8186C12.4941 12.8032 13.2636 11.916 14.2906 11.916C14.6667 11.916 15.0138 12.0384 15.2989 12.2432C15.4375 12.3428 15.4655 12.5312 15.3614 12.6638C15.2573 12.7965 15.0605 12.8233 14.9218 12.7237C14.7372 12.591 14.5207 12.5168 14.2906 12.5168Z" fill="#B96F00"/>
<path fill-rule="evenodd" clip-rule="evenodd" d="M11.9707 14.2201C11.9707 14.1095 12.0644 14.0198 12.18 14.0198H13.8544C13.97 14.0198 14.0637 14.1095 14.0637 14.2201C14.0637 14.3307 13.97 14.4204 13.8544 14.4204H12.18C12.0644 14.4204 11.9707 14.3307 11.9707 14.2201ZM11.9707 13.419C11.9707 13.3084 12.0644 13.2188 12.18 13.2188H13.8544C13.97 13.2188 14.0637 13.3084 14.0637 13.419C14.0637 13.5296 13.97 13.6193 13.8544 13.6193H12.18C12.0644 13.6193 11.9707 13.5296 11.9707 13.419Z" fill="#B96F00"/>
</svg>
