<svg width="22" height="25" viewBox="0 0 22 25" fill="none" xmlns="http://www.w3.org/2000/svg">
<path d="M16.3125 14.5964V7.79561C16.3118 7.53807 16.2631 7.28364 16.1695 7.04923C16.0759 6.81483 15.9396 6.60582 15.7697 6.43609C15.4832 6.15317 15.1165 5.99824 14.7375 6.00002H1.575C1.19678 5.99785 0.830827 6.15288 0.545625 6.43609C0.374775 6.60512 0.237676 6.81392 0.143558 7.04843C0.0494401 7.28294 0.000488735 7.53772 0 7.79561L0 17.6072C0.000682472 17.8648 0.0494391 18.1192 0.143029 18.3536C0.23662 18.588 0.3729 18.797 0.542812 18.9667C0.829277 19.2497 1.196 19.4046 1.575 19.4028H11.1966C11.4491 20.1646 11.8988 20.8209 12.4859 21.2847C13.0731 21.7486 13.77 21.998 14.4844 22V20.7174C14.0089 20.72 13.5436 20.5608 13.1479 20.2603C12.7522 19.9598 12.4441 19.5316 12.2629 19.0304C12.0818 18.5293 12.0358 17.9779 12.1309 17.4468C12.226 16.9157 12.4579 16.429 12.7969 16.0489C13.024 15.7914 13.2948 15.5893 13.5926 15.4548C13.8904 15.3203 14.2092 15.2562 14.5294 15.2665C15.1675 15.2982 15.7696 15.6124 16.2077 16.1423C16.6457 16.6723 16.8851 17.3761 16.875 18.1042V19.2746C16.875 19.3596 16.8454 19.4411 16.7926 19.5013C16.7399 19.5614 16.6683 19.5952 16.5938 19.5952C16.5192 19.5952 16.4476 19.5614 16.3949 19.5013C16.3421 19.4411 16.3125 19.3596 16.3125 19.2746V17.992C16.3137 17.5374 16.1849 17.0948 15.9456 16.7312C15.7063 16.3676 15.3696 16.1028 14.9865 15.9769C14.6034 15.851 14.1947 15.871 13.8224 16.0337C13.4501 16.1964 13.1345 16.493 12.9233 16.8786C12.7121 17.2641 12.617 17.7177 12.6522 18.1705C12.6874 18.6233 12.8511 19.0506 13.1185 19.3878C13.3859 19.725 13.7424 19.9536 14.1341 20.0391C14.5257 20.1245 14.931 20.0621 15.2887 19.8613C15.4101 20.2061 15.6328 20.4921 15.9187 20.6705C16.2046 20.8488 16.5359 20.9085 16.8561 20.8392C17.1762 20.7699 17.4653 20.576 17.674 20.2906C17.8826 20.0052 17.9979 19.6461 18 19.2746V18.1042C17.9993 17.4051 17.8444 16.7174 17.5495 16.1044C17.2546 15.4914 16.8292 14.9729 16.3125 14.5964ZM14.1075 7.28259L9.07312 11.903C8.81263 12.1397 8.48938 12.2687 8.15625 12.2687C7.82313 12.2687 7.49987 12.1397 7.23938 11.903L2.205 7.28259H14.1075ZM15.1875 14.0706C14.9775 14.0189 14.7638 13.9899 14.5491 13.984C13.6386 13.9635 12.7573 14.3503 12.0938 15.0613L10.2909 13.6184L9.64406 14.6702L11.3991 16.0714C11.1168 16.6614 10.9697 17.3231 10.9716 17.9952V18.1235H2.34844L6.67125 14.6702L6.02719 13.6184L1.125 17.5303V7.93669L6.53344 12.9002C6.99435 13.3196 7.56655 13.548 8.15625 13.548C8.74595 13.548 9.31816 13.3196 9.77906 12.9002L15.1875 7.93669V14.0706ZM14.4844 18.7936C14.3453 18.7936 14.2094 18.7466 14.0937 18.6585C13.9781 18.5704 13.888 18.4452 13.8348 18.2987C13.7816 18.1523 13.7676 17.9911 13.7948 17.8356C13.8219 17.6801 13.8889 17.5373 13.9872 17.4252C14.0855 17.3131 14.2108 17.2367 14.3472 17.2058C14.4836 17.1749 14.625 17.1907 14.7534 17.2514C14.8819 17.3121 14.9917 17.4148 15.069 17.5466C15.1463 17.6785 15.1875 17.8334 15.1875 17.992C15.1875 18.2046 15.1134 18.4085 14.9816 18.5588C14.8497 18.7091 14.6709 18.7936 14.4844 18.7936Z" fill="white"/>
</svg>
