<svg width="14" height="12" viewBox="0 0 14 12" fill="none" xmlns="http://www.w3.org/2000/svg">
<g id="download-cloud" clip-path="url(#clip0_488_6755)">
<path id="Vector" d="M4.45312 8.5L6.67976 10.5L8.9064 8.5" stroke="white" stroke-linecap="round" stroke-linejoin="round"/>
<path id="Vector_2" d="M6.67969 6V10.5" stroke="white" stroke-linecap="round" stroke-linejoin="round"/>
<path id="Vector_3" d="M11.6221 9.04497C12.1061 8.73929 12.469 8.30304 12.6583 7.79954C12.8475 7.29604 12.8531 6.75148 12.6745 6.24488C12.4958 5.73828 12.142 5.29601 11.6645 4.98225C11.187 4.66848 10.6106 4.49955 10.019 4.49997H9.31758C9.15016 3.9139 8.8369 3.36959 8.40139 2.90801C7.96587 2.44642 7.41946 2.0796 6.80327 1.83514C6.18708 1.59069 5.51719 1.47498 4.84401 1.49672C4.17083 1.51847 3.51192 1.6771 2.91687 1.96068C2.32182 2.24426 1.80615 2.64539 1.40868 3.13388C1.0112 3.62237 0.742282 4.18549 0.62216 4.78084C0.502038 5.37619 0.533846 5.98826 0.715188 6.57098C0.896531 7.15369 1.22268 7.69186 1.66909 8.14497" stroke="white" stroke-linecap="round" stroke-linejoin="round"/>
</g>
<defs>
<clipPath id="clip0_488_6755">
<rect width="13.3598" height="12" fill="white"/>
</clipPath>
</defs>
</svg>
