<svg width="12" height="11" viewBox="0 0 12 11" fill="none" xmlns="http://www.w3.org/2000/svg">
<g clip-path="url(#clip0_1298_9526)">
<path d="M5.5 1.83398H2C1.73478 1.83398 1.48043 1.93056 1.29289 2.10247C1.10536 2.27438 1 2.50754 1 2.75065V9.16732C1 9.41043 1.10536 9.64359 1.29289 9.8155C1.48043 9.98741 1.73478 10.084 2 10.084H9C9.26522 10.084 9.51957 9.98741 9.70711 9.8155C9.89464 9.64359 10 9.41043 10 9.16732V5.95898" stroke="#0085FF" stroke-linecap="round" stroke-linejoin="round"/>
<path d="M9.25 1.1461C9.44891 0.963764 9.7187 0.861328 10 0.861328C10.2813 0.861328 10.5511 0.963764 10.75 1.1461C10.9489 1.32844 11.0607 1.57574 11.0607 1.8336C11.0607 2.09146 10.9489 2.33876 10.75 2.5211L6 6.87527L4 7.3336L4.5 5.50027L9.25 1.1461Z" stroke="#0085FF" stroke-linecap="round" stroke-linejoin="round"/>
</g>
<defs>
<clipPath id="clip0_1298_9526">
<rect width="12" height="11" fill="white"/>
</clipPath>
</defs>
</svg>
