<svg width="36" height="31" viewBox="0 0 36 31" fill="none" xmlns="http://www.w3.org/2000/svg">
<g clip-path="url(#clip0_488_6142)">
<g filter="url(#filter0_d_488_6142)">
<path d="M29.25 2.90625V28.0938C29.25 28.3507 29.1315 28.5971 28.9205 28.7788C28.7095 28.9604 28.4234 29.0625 28.125 29.0625H7.875C7.57663 29.0625 7.29049 28.9604 7.07951 28.7788C6.86853 28.5971 6.75 28.3507 6.75 28.0938V8.71875C6.74949 8.4924 6.84104 8.27304 7.00875 8.09875L12.6338 2.28625C12.7395 2.1769 12.872 2.08895 13.0217 2.02868C13.1714 1.9684 13.3347 1.93727 13.5 1.9375H28.125C28.4234 1.9375 28.7095 2.03957 28.9205 2.22124C29.1315 2.40292 29.25 2.64932 29.25 2.90625Z" fill="#7A8FFF"/>
</g>
<g filter="url(#filter1_d_488_6142)">
<path d="M15.75 1.9375V9.6875C15.75 9.94443 15.6315 10.1908 15.4205 10.3725C15.2095 10.5542 14.9234 10.6563 14.625 10.6563H6.75V8.71875C6.74949 8.4924 6.84104 8.27304 7.00875 8.09875L12.6338 2.28625C12.7395 2.1769 12.872 2.08895 13.0217 2.02868C13.1714 1.9684 13.3347 1.93727 13.5 1.9375H15.75Z" fill="#9CAFFF"/>
</g>
</g>
<defs>
<filter id="filter0_d_488_6142" x="-1.95" y="-2.7625" width="39.9" height="44.525" filterUnits="userSpaceOnUse" color-interpolation-filters="sRGB">
<feFlood flood-opacity="0" result="BackgroundImageFix"/>
<feColorMatrix in="SourceAlpha" type="matrix" values="0 0 0 0 0 0 0 0 0 0 0 0 0 0 0 0 0 0 127 0" result="hardAlpha"/>
<feOffset dy="4"/>
<feGaussianBlur stdDeviation="4.35"/>
<feComposite in2="hardAlpha" operator="out"/>
<feColorMatrix type="matrix" values="0 0 0 0 0 0 0 0 0 0 0 0 0 0 0 0 0 0 0.25 0"/>
<feBlend mode="normal" in2="BackgroundImageFix" result="effect1_dropShadow_488_6142"/>
<feBlend mode="normal" in="SourceGraphic" in2="effect1_dropShadow_488_6142" result="shape"/>
</filter>
<filter id="filter1_d_488_6142" x="-1.95" y="-2.7625" width="26.4" height="26.1187" filterUnits="userSpaceOnUse" color-interpolation-filters="sRGB">
<feFlood flood-opacity="0" result="BackgroundImageFix"/>
<feColorMatrix in="SourceAlpha" type="matrix" values="0 0 0 0 0 0 0 0 0 0 0 0 0 0 0 0 0 0 127 0" result="hardAlpha"/>
<feOffset dy="4"/>
<feGaussianBlur stdDeviation="4.35"/>
<feComposite in2="hardAlpha" operator="out"/>
<feColorMatrix type="matrix" values="0 0 0 0 0 0 0 0 0 0 0 0 0 0 0 0 0 0 0.25 0"/>
<feBlend mode="normal" in2="BackgroundImageFix" result="effect1_dropShadow_488_6142"/>
<feBlend mode="normal" in="SourceGraphic" in2="effect1_dropShadow_488_6142" result="shape"/>
</filter>
<clipPath id="clip0_488_6142">
<rect width="36" height="31" fill="white"/>
</clipPath>
</defs>
</svg>
