<svg width="13" height="13" viewBox="0 0 13 13" fill="none" xmlns="http://www.w3.org/2000/svg">
<path d="M7.58268 1.08398H3.24935C2.96203 1.08398 2.68648 1.19812 2.48332 1.40129C2.28015 1.60445 2.16602 1.88 2.16602 2.16732V10.834C2.16602 11.1213 2.28015 11.3969 2.48332 11.6C2.68648 11.8032 2.96203 11.9173 3.24935 11.9173H9.74935C10.0367 11.9173 10.3122 11.8032 10.5154 11.6C10.7185 11.3969 10.8327 11.1213 10.8327 10.834V4.33398L7.58268 1.08398Z" stroke="#0066FF" stroke-width="0.5" stroke-linecap="round" stroke-linejoin="round"/>
<path d="M7.58398 1.08398V4.33398H10.834" stroke="#0066FF" stroke-width="0.5" stroke-linecap="round" stroke-linejoin="round"/>
<path d="M8.66732 7.04102H4.33398" stroke="#0066FF" stroke-width="0.5" stroke-linecap="round" stroke-linejoin="round"/>
<path d="M8.66732 9.20898H4.33398" stroke="#0066FF" stroke-width="0.5" stroke-linecap="round" stroke-linejoin="round"/>
<path d="M5.41732 4.875H4.87565H4.33398" stroke="#0066FF" stroke-width="0.5" stroke-linecap="round" stroke-linejoin="round"/>
</svg>
