<svg width="102" height="35" viewBox="0 0 102 35" fill="none" xmlns="http://www.w3.org/2000/svg">
<path d="M9.816 18.984L7.512 18.96C6.856 18.96 6.352 18.968 6 18.984C5.744 21.224 5.616 23.04 5.616 24.432C5.616 25.824 5.664 26.8 5.76 27.36C5.248 27.392 4.912 27.408 4.752 27.408C3.84 27.408 3.184 27.248 2.784 26.928C2.384 26.608 2.184 26.048 2.184 25.248C2.184 24.432 2.408 22.488 2.856 19.416C2.344 19.576 1.968 19.712 1.728 19.824C1.696 19.472 1.68 19.208 1.68 19.032C1.68 17.928 2.184 17.24 3.192 16.968C3.496 14.776 3.68 12.88 3.744 11.28C2.928 11.28 2.408 11.168 2.184 10.944C1.976 10.72 1.872 10.224 1.872 9.456C1.936 8.736 2 8.264 2.064 8.04C3.872 8.28 5.856 8.4 8.016 8.4C10.176 8.4 12.264 8.208 14.28 7.824C14.056 9.504 13.032 10.512 11.208 10.848C10.216 11.04 8.8 11.168 6.96 11.232C6.944 11.44 6.712 13.304 6.264 16.824C7.192 16.856 7.824 16.872 8.16 16.872C9.68 16.872 10.76 16.608 11.4 16.08C11.432 16.4 11.448 16.64 11.448 16.8C11.448 18.256 10.904 18.984 9.816 18.984ZM14.5568 23.064C14.5568 22.392 14.6848 21.176 14.9408 19.416C15.1968 17.656 15.3248 16.288 15.3248 15.312C15.3248 14.336 15.2768 13.584 15.1808 13.056C15.5328 13.024 15.8608 13.008 16.1648 13.008C17.0928 13.008 17.7328 13.168 18.0848 13.488C18.4528 13.792 18.6367 14.32 18.6367 15.072C18.6367 15.312 18.4368 16.576 18.0368 18.864C17.6528 21.136 17.4528 23.016 17.4368 24.504C17.4368 25.976 17.5328 26.928 17.7248 27.36C16.4768 27.04 15.6368 26.56 15.2048 25.92C14.7728 25.264 14.5568 24.312 14.5568 23.064ZM17.8208 10.992C16.1728 10.992 15.3488 10.416 15.3488 9.264C15.3488 8.848 15.4688 8.28 15.7088 7.56C16.1568 7.496 16.5488 7.464 16.8848 7.464C18.5328 7.464 19.3568 8.04 19.3568 9.192C19.3568 9.608 19.2368 10.176 18.9968 10.896C18.5488 10.96 18.1568 10.992 17.8208 10.992ZM30.9317 13.152C31.8757 13.152 32.5477 13.448 32.9477 14.04C33.3637 14.616 33.5717 15.408 33.5717 16.416C33.5717 17.408 33.4117 18.808 33.0917 20.616C32.7877 22.424 32.6357 23.744 32.6357 24.576C32.6357 25.392 32.7397 25.992 32.9477 26.376C33.1557 26.744 33.5077 27.064 34.0037 27.336C33.7957 27.352 33.4997 27.36 33.1157 27.36C31.7717 27.36 30.8117 27.152 30.2357 26.736C29.6757 26.32 29.3957 25.592 29.3957 24.552C29.3957 23.96 29.5557 22.808 29.8757 21.096C30.1957 19.368 30.3557 18.08 30.3557 17.232C30.3557 16.176 30.0357 15.648 29.3957 15.648C29.0277 15.648 28.6117 15.864 28.1477 16.296C27.6837 16.728 27.2357 17.32 26.8037 18.072C26.3717 18.808 26.0117 19.76 25.7237 20.928C25.4357 22.096 25.2917 23.264 25.2917 24.432C25.2917 25.584 25.3397 26.44 25.4357 27C24.9237 27.032 24.5877 27.048 24.4277 27.048C23.5157 27.048 22.8597 26.888 22.4597 26.568C22.0597 26.248 21.8597 25.72 21.8597 24.984C21.8597 24.664 22.0277 23.432 22.3637 21.288C22.6997 19.144 22.8677 17.44 22.8677 16.176C22.8677 14.896 22.7317 13.72 22.4597 12.648C23.6277 13.016 24.4437 13.544 24.9077 14.232C25.3717 14.904 25.6037 15.68 25.6037 16.56C25.6037 17.424 25.5077 18.432 25.3157 19.584C25.8437 17.792 26.6757 16.272 27.8117 15.024C28.9477 13.776 29.9877 13.152 30.9317 13.152ZM39.6191 22.152C39.6191 24.056 40.1951 25.008 41.3471 25.008C41.9551 25.008 42.5471 24.68 43.1231 24.024C43.6991 23.368 44.1631 22.488 44.5151 21.384C44.8831 20.28 45.1951 19.104 45.4511 17.856C45.7231 16.592 45.9231 15.256 46.0511 13.848C46.2751 11.128 46.3871 9.008 46.3871 7.488C46.3871 5.952 46.3231 4.8 46.1951 4.032C47.3471 4.288 48.1551 4.832 48.6191 5.664C49.0831 6.496 49.3151 7.544 49.3151 8.808C49.3151 10.072 49.0431 12.424 48.4991 15.864C47.9711 19.304 47.7071 21.816 47.7071 23.4C47.7071 24.984 47.7791 26.328 47.9231 27.432C46.7871 27.128 46.0031 26.584 45.5711 25.8C45.1551 25 44.9471 24 44.9471 22.8C44.4511 24.176 43.7071 25.264 42.7151 26.064C41.7231 26.864 40.6991 27.264 39.6431 27.264C38.5871 27.264 37.7231 26.864 37.0511 26.064C36.3951 25.248 36.0671 24.056 36.0671 22.488C36.0671 20.008 36.7471 17.88 38.1071 16.104C39.4671 14.312 41.0751 13.416 42.9311 13.416C43.4591 13.416 44.2911 13.544 45.4271 13.8C44.4351 14.056 43.5471 14.504 42.7631 15.144C41.9951 15.768 41.3951 16.488 40.9631 17.304C40.0671 18.92 39.6191 20.536 39.6191 22.152ZM69.5061 22.488C68.9301 22.712 68.4821 22.824 68.1621 22.824C67.2021 22.824 66.6661 22.688 66.5541 22.416C64.9541 18.304 63.8981 15.656 63.3861 14.472C63.3381 14.904 63.2101 15.904 63.0021 17.472C62.5701 20.544 62.3541 23.096 62.3541 25.128C62.3541 25.624 62.3861 26.288 62.4501 27.12C61.3301 27.12 60.5701 26.992 60.1701 26.736C59.7861 26.464 59.5941 26.088 59.5941 25.608C59.5941 25.448 59.8581 23.272 60.3861 19.08C60.9301 14.888 61.2021 11.968 61.2021 10.32V10.2C60.7381 9.448 60.2501 8.832 59.7381 8.352C60.3301 7.936 61.0421 7.728 61.8741 7.728C62.9301 7.728 63.7461 8.224 64.3221 9.216C64.8981 10.192 66.0261 12.888 67.7061 17.304L68.8101 20.136C68.9061 19.976 69.0501 19.76 69.2421 19.488C73.1461 13.712 75.1541 9.792 75.2661 7.728C75.2661 7.744 75.4581 7.768 75.8421 7.8C76.2261 7.816 76.6341 7.896 77.0661 8.04C77.5141 8.168 77.8341 8.376 78.0261 8.664C78.2341 8.936 78.3621 9.208 78.4101 9.48C78.4581 9.736 78.4821 10.184 78.4821 10.824C78.4821 11.448 78.2181 13.568 77.6901 17.184C77.1621 20.8 76.8981 23.336 76.8981 24.792C76.8981 26.232 77.0101 27.216 77.2341 27.744C75.8741 27.392 74.9461 26.928 74.4501 26.352C73.9541 25.76 73.7061 24.944 73.7061 23.904C73.7061 23.296 73.8661 21.8 74.1861 19.416C74.5221 17.032 74.7541 15.128 74.8821 13.704C74.2421 14.808 73.3301 16.32 72.1461 18.24C70.9781 20.16 70.2741 21.304 70.0341 21.672C69.7941 22.024 69.6181 22.296 69.5061 22.488ZM87.1403 21.096C86.3723 21.096 85.6203 21.008 84.8843 20.832C84.8683 20.992 84.8603 21.24 84.8603 21.576C84.8603 22.904 85.1083 23.904 85.6043 24.576C86.1003 25.248 86.6923 25.584 87.3803 25.584C88.0683 25.584 88.7243 25.376 89.3483 24.96C89.9723 24.544 90.5163 23.968 90.9803 23.232C91.5563 23.36 91.8443 23.656 91.8443 24.12C90.4363 26.28 88.6203 27.36 86.3963 27.36C85.0523 27.36 83.8763 26.848 82.8683 25.824C81.8603 24.784 81.3563 23.344 81.3563 21.504C81.3563 20.128 81.6203 18.824 82.1483 17.592C82.6763 16.344 83.5163 15.296 84.6683 14.448C85.8203 13.584 87.0923 13.152 88.4843 13.152C89.8923 13.152 90.9243 13.472 91.5803 14.112C92.2363 14.752 92.5643 15.592 92.5643 16.632C92.5643 18.136 92.0363 19.256 90.9803 19.992C89.9403 20.728 88.6603 21.096 87.1403 21.096ZM88.1483 14.64C87.3323 14.64 86.6443 15.144 86.0843 16.152C85.5243 17.16 85.1563 18.384 84.9803 19.824H85.3403C86.7323 19.824 87.7563 19.464 88.4123 18.744C89.0843 18.024 89.4203 17.16 89.4203 16.152C89.4203 15.736 89.3083 15.384 89.0843 15.096C88.8763 14.792 88.5643 14.64 88.1483 14.64ZM100.546 10.128C100.546 10.624 100.402 11.408 100.114 12.48C99.2659 15.76 98.8419 18.304 98.8419 20.112C98.8419 20.912 98.9059 21.464 99.0339 21.768C97.9299 21.496 97.1699 21.088 96.7539 20.544C96.3379 19.984 96.1299 19.224 96.1299 18.264C96.1299 17.288 96.3299 15.8 96.7299 13.8C97.1299 11.8 97.3299 10.376 97.3299 9.528C97.3299 8.664 97.3059 8.104 97.2579 7.848C98.1059 7.848 98.8659 8.04 99.5379 8.424C100.21 8.792 100.546 9.36 100.546 10.128ZM97.1619 23.496C98.3459 23.496 98.9379 23.992 98.9379 24.984C98.9379 25.304 98.7939 25.984 98.5059 27.024C97.9459 27.184 97.3779 27.264 96.8019 27.264C95.6179 27.264 95.0259 26.768 95.0259 25.776C95.0259 25.456 95.1699 24.776 95.4579 23.736C96.0179 23.576 96.5859 23.496 97.1619 23.496Z" fill="black"/>
<path d="M47.0078 26.5L101.008 27.5" stroke="black"/>
<path d="M0.00679089 4.50102L47.0068 4.50102" stroke="black"/>
</svg>
