<svg width="20" height="20" viewBox="0 0 20 20" fill="none" xmlns="http://www.w3.org/2000/svg">
<path d="M0 9.55309V8.71976L6.66722 14.3871L0.0870657 19.4001C0.0297154 19.2734 6.71301e-05 19.1365 0 18.9981L0 9.55797V9.55309ZM13.7296 8.57653C13.7193 8.91803 13.6631 9.25675 13.5622 9.58401C13.4734 9.86914 13.3327 10.1365 13.1469 10.3734C12.9771 10.5917 12.7577 10.7689 12.5057 10.891C12.2519 11.0099 11.9736 11.0711 11.6919 11.07C11.5718 11.0708 11.452 11.0572 11.3353 11.0293C11.2235 11.0029 11.1159 10.9618 11.0155 10.9073C10.9177 10.8548 10.8285 10.7884 10.7509 10.7103C10.7089 10.6689 10.6703 10.6242 10.6354 10.5769C10.4964 10.7316 10.3239 10.8545 10.1302 10.9367C9.93653 11.0189 9.72651 11.0583 9.51528 11.0521C9.37205 11.053 9.22959 11.0316 9.09335 10.9886C8.9609 10.9443 8.83697 10.8789 8.72666 10.795C8.61484 10.7087 8.51815 10.6053 8.44035 10.489C8.35478 10.3618 8.28773 10.2238 8.24111 10.0788C8.13986 9.74817 8.10853 9.40102 8.14902 9.0583C8.18641 8.72646 8.2686 8.40085 8.39347 8.08987C8.50648 7.81051 8.66663 7.55142 8.86731 7.32327C9.0515 7.11152 9.27976 6.94011 9.53705 6.82034C9.78862 6.70882 10.0626 6.65322 10.3391 6.65758C10.5463 6.65604 10.7528 6.68066 10.9535 6.73082C11.1415 6.77892 11.3206 6.85525 11.4843 6.95706L11.7572 7.13447C11.7731 7.14503 11.7857 7.15948 11.794 7.17634C11.8022 7.19321 11.8057 7.21189 11.8041 7.2305L11.5714 9.66376C11.5436 9.78602 11.5608 9.91387 11.6199 10.0251C11.6511 10.0611 11.691 10.0889 11.736 10.1063C11.781 10.1236 11.8297 10.1298 11.8778 10.1244C11.9755 10.1239 12.0704 10.0919 12.1473 10.0332C12.2499 9.9487 12.3327 9.84381 12.3901 9.72561C12.4731 9.57148 12.5344 9.40727 12.5726 9.23733C12.6187 9.03236 12.645 8.82367 12.6513 8.61396C12.6792 8.20943 12.6425 7.80314 12.5425 7.40953C12.4583 7.08704 12.3003 6.78717 12.0804 6.53225C11.8695 6.29222 11.6009 6.10659 11.2985 5.99189C10.9519 5.86506 10.5837 5.80321 10.2135 5.8096C9.96164 5.80807 9.71083 5.84095 9.4684 5.90725C9.23655 5.97236 9.01593 6.07054 8.81373 6.1986C8.60564 6.33053 8.41839 6.49118 8.25785 6.67548C8.08889 6.8704 7.946 7.08533 7.83257 7.31513C7.71047 7.56298 7.61563 7.82267 7.5496 8.08987C7.48054 8.37961 7.43906 8.67491 7.4257 8.97203C7.397 9.39273 7.43369 9.81522 7.53453 10.2253C7.61724 10.5575 7.77575 10.8673 7.99833 11.1319C8.21215 11.3775 8.48627 11.5667 8.79531 11.682C9.15775 11.8129 9.54227 11.8764 9.92884 11.8692C10.0497 11.8691 10.1704 11.8625 10.2905 11.8496C10.4144 11.8366 10.5433 11.8155 10.6722 11.7894C10.8012 11.7634 10.9201 11.7357 11.0272 11.7048C11.124 11.6773 11.2191 11.6441 11.3118 11.6055C11.3248 11.6001 11.3387 11.5973 11.3528 11.5972C11.3669 11.5971 11.3809 11.5997 11.394 11.6048C11.407 11.6099 11.4189 11.6175 11.429 11.6272C11.439 11.6368 11.447 11.6482 11.4525 11.6608C11.454 11.67 11.454 11.6793 11.4525 11.6885L11.6216 12.3721C11.6257 12.393 11.6235 12.4146 11.6152 12.4342C11.6068 12.4539 11.5928 12.4708 11.5747 12.4828C11.4694 12.5484 11.3571 12.603 11.2398 12.6455C11.1054 12.6968 10.9671 12.7381 10.8263 12.7692C10.6757 12.8045 10.523 12.8311 10.3692 12.849C10.2164 12.8665 10.0626 12.8752 9.90875 12.875C9.20105 12.8965 8.4995 12.7413 7.87108 12.4242C7.59571 12.2779 7.34731 12.0882 7.13604 11.8627C6.92244 11.6309 6.74783 11.3678 6.61867 11.083C6.47947 10.7738 6.38211 10.4482 6.32901 10.1146C6.26713 9.73091 6.24525 9.34211 6.26371 8.95413C6.27854 8.57722 6.33467 8.20293 6.43114 7.83759C6.52226 7.49166 6.65488 7.15734 6.82629 6.8415C6.98872 6.54417 7.19145 6.26937 7.42905 6.02444C7.66208 5.78181 7.92927 5.57249 8.22269 5.4027C8.51823 5.23236 8.83658 5.10255 9.16869 5.01696C9.51348 4.9286 9.86863 4.88428 10.2252 4.88512C10.8967 4.86812 11.5608 5.02363 12.1507 5.33597C12.4179 5.48287 12.6597 5.6696 12.8673 5.88935C13.0724 6.11247 13.2417 6.36431 13.3696 6.63642C13.5087 6.9263 13.6078 7.23277 13.6643 7.54788C13.7255 7.88896 13.7474 8.23561 13.7296 8.58141V8.57653ZM9.42654 9.06481C9.41231 9.21586 9.41231 9.36786 9.42654 9.51891C9.43525 9.62565 9.46242 9.7302 9.50691 9.82815C9.5371 9.89371 9.58515 9.94999 9.64588 9.99091C9.70556 10.027 9.77488 10.0451 9.84512 10.043C9.89665 10.0429 9.94752 10.0318 9.99414 10.0104C10.049 9.98287 10.0984 9.94593 10.1398 9.9014C10.1943 9.84393 10.241 9.77993 10.2788 9.71097C10.3247 9.62859 10.3634 9.54256 10.3943 9.4538L10.5617 7.66344H10.5333C10.492 7.66079 10.4506 7.66079 10.4094 7.66344C10.2791 7.66117 10.1501 7.68848 10.0326 7.74319C9.92215 7.79807 9.82726 7.87856 9.75638 7.97757C9.66612 8.1129 9.59832 8.2612 9.55546 8.41702C9.4957 8.63025 9.45481 8.84806 9.43324 9.06806L9.42654 9.06481ZM0.0251151 7.0775C0.167434 6.53551 0.957723 6.1872 1.3964 5.88447V3.55862C1.3964 3.29962 1.50224 3.05123 1.69064 2.86809C1.87904 2.68495 2.13457 2.58206 2.401 2.58206H6.16325L9.75471 0.0950803C9.84663 0.032639 9.9562 -0.000575398 10.0683 7.54395e-06C10.1805 0.000590486 10.2897 0.0349421 10.3809 0.0983355L13.9104 2.58206H17.594C17.8604 2.58206 18.1159 2.68495 18.3043 2.86809C18.4927 3.05123 18.5986 3.29962 18.5986 3.55862V5.87796C19.0707 6.20348 19.995 6.64619 19.995 7.25979V7.28421L17.599 9.25198V3.55537H2.401V9.08922L0.0251151 7.0775ZM20 8.91832V18.9981C20.0004 19.2318 19.9162 19.4582 19.7622 19.6377L13.1168 14.558L20 8.91832ZM18.1582 20.0023H1.38301L7.65341 15.2253L9.5203 16.8122C9.64018 16.9144 9.79493 16.9695 9.95436 16.9668C10.1138 16.9641 10.2665 16.9038 10.3826 16.7976L12.1105 15.3832L18.1532 20.0023H18.1582Z" fill="black"/>
</svg>
