<svg width="61" height="57" viewBox="0 0 61 57" fill="none" xmlns="http://www.w3.org/2000/svg">
<rect width="61" height="57" fill="#9CAFFF"/>
<rect x="-65" y="-192" width="390" height="844" rx="33" fill="white"/>
<rect x="-7" y="-7" width="277" height="71" rx="12" fill="white"/>
<rect x="-7.5" y="-7.5" width="278" height="72" rx="12.5" stroke="black" stroke-opacity="0.13"/>
<rect width="61" height="57" rx="7" fill="#FBA705"/>
<path d="M36.8864 26.1591C36.697 25.5455 36.4356 24.9962 36.1023 24.5114C35.7765 24.0189 35.3826 23.5985 34.9205 23.25C34.4659 22.9015 33.9432 22.6402 33.3523 22.4659C32.7614 22.2841 32.1174 22.1932 31.4205 22.1932C30.1705 22.1932 29.0568 22.5076 28.0795 23.1364C27.1023 23.7652 26.3333 24.6894 25.7727 25.9091C25.2197 27.1212 24.9432 28.5985 24.9432 30.3409C24.9432 32.0985 25.2197 33.5871 25.7727 34.8068C26.3258 36.0265 27.0947 36.9545 28.0795 37.5909C29.0644 38.2197 30.2083 38.5341 31.5114 38.5341C32.6932 38.5341 33.7159 38.3068 34.5795 37.8523C35.4508 37.3977 36.1212 36.7538 36.5909 35.9205C37.0606 35.0795 37.2955 34.0947 37.2955 32.9659L38.25 33.1136H31.9318V29.8182H41.375V32.6136C41.375 34.6061 40.9508 36.3295 40.1023 37.7841C39.2538 39.2386 38.0871 40.3598 36.6023 41.1477C35.1174 41.928 33.4129 42.3182 31.4886 42.3182C29.3447 42.3182 27.4621 41.8371 25.8409 40.875C24.2273 39.9053 22.9659 38.5303 22.0568 36.75C21.1553 34.9621 20.7045 32.8409 20.7045 30.3864C20.7045 28.5076 20.9697 26.8295 21.5 25.3523C22.0379 23.875 22.7879 22.6212 23.75 21.5909C24.7121 20.553 25.8409 19.7652 27.1364 19.2273C28.4318 18.6818 29.8409 18.4091 31.3636 18.4091C32.6515 18.4091 33.8523 18.5985 34.9659 18.9773C36.0795 19.3485 37.0682 19.8788 37.9318 20.5682C38.803 21.2576 39.5189 22.0758 40.0795 23.0227C40.6402 23.9697 41.0076 25.0152 41.1818 26.1591H36.8864Z" fill="white"/>
</svg>
