<svg width="18" height="18" viewBox="0 0 18 18" fill="none" xmlns="http://www.w3.org/2000/svg">
<g clip-path="url(#clip0_488_2775)">
<path d="M17.9909 9.1696C17.9909 8.43215 17.9297 7.89401 17.7971 7.33594H9.17969V10.6644H14.2379C14.136 11.4916 13.5853 12.7373 12.3615 13.5744L12.3443 13.6858L15.069 15.7485L15.2578 15.7669C16.9914 14.2022 17.9909 11.9002 17.9909 9.1696Z" fill="#4285F4"/>
<path d="M9.17982 17.9374C11.6579 17.9374 13.7383 17.1401 15.2579 15.7649L12.3616 13.5724C11.5866 14.1006 10.5463 14.4693 9.17982 14.4693C6.75267 14.4693 4.69266 12.9047 3.95832 10.7422L3.85068 10.7511L1.01752 12.8937L0.980469 12.9944C2.48978 15.9243 5.59003 17.9374 9.17982 17.9374Z" fill="#34A853"/>
<path d="M3.9588 10.7421C3.76504 10.184 3.6529 9.58606 3.6529 8.96822C3.6529 8.35032 3.76504 7.7524 3.94861 7.19433L3.94348 7.07548L1.07481 4.89844L0.980954 4.94206C0.358893 6.15789 0.00195312 7.52321 0.00195312 8.96822C0.00195312 10.4132 0.358893 11.7785 0.980954 12.9943L3.9588 10.7421Z" fill="#FBBC05"/>
<path d="M9.17982 3.46802C10.9033 3.46802 12.0658 4.19551 12.7288 4.80346L15.3191 2.33196C13.7282 0.886947 11.6579 0 9.17982 0C5.59003 0 2.48978 2.01305 0.980469 4.94292L3.94812 7.19519C4.69266 5.03265 6.75267 3.46802 9.17982 3.46802Z" fill="#EB4335"/>
</g>
<defs>
<clipPath id="clip0_488_2775">
<rect width="18" height="18" fill="white"/>
</clipPath>
</defs>
</svg>
