<svg width="13" height="13" viewBox="0 0 13 13" fill="none" xmlns="http://www.w3.org/2000/svg">
<path d="M1.625 9.75V6.5C1.625 5.20707 2.13861 3.96709 3.05285 3.05285C3.96709 2.13861 5.20707 1.625 6.5 1.625C7.79293 1.625 9.03291 2.13861 9.94715 3.05285C10.8614 3.96709 11.375 5.20707 11.375 6.5V9.75" stroke="black" stroke-linecap="round" stroke-linejoin="round"/>
<path d="M11.375 10.2904C11.375 10.5777 11.2609 10.8532 11.0577 11.0564C10.8545 11.2596 10.579 11.3737 10.2917 11.3737H9.75C9.46268 11.3737 9.18713 11.2596 8.98397 11.0564C8.7808 10.8532 8.66667 10.5777 8.66667 10.2904V8.66536C8.66667 8.37805 8.7808 8.1025 8.98397 7.89933C9.18713 7.69617 9.46268 7.58203 9.75 7.58203H11.375V10.2904ZM1.625 10.2904C1.625 10.5777 1.73914 10.8532 1.9423 11.0564C2.14547 11.2596 2.42102 11.3737 2.70833 11.3737H3.25C3.53732 11.3737 3.81287 11.2596 4.01603 11.0564C4.2192 10.8532 4.33333 10.5777 4.33333 10.2904V8.66536C4.33333 8.37805 4.2192 8.1025 4.01603 7.89933C3.81287 7.69617 3.53732 7.58203 3.25 7.58203H1.625V10.2904Z" stroke="black" stroke-linecap="round" stroke-linejoin="round"/>
</svg>
