<svg width="13" height="13" viewBox="0 0 13 13" fill="none" xmlns="http://www.w3.org/2000/svg">
<g clip-path="url(#clip0_488_5965)">
<path d="M6.4987 11.9154C9.49024 11.9154 11.9154 9.49024 11.9154 6.4987C11.9154 3.50716 9.49024 1.08203 6.4987 1.08203C3.50716 1.08203 1.08203 3.50716 1.08203 6.4987C1.08203 9.49024 3.50716 11.9154 6.4987 11.9154Z" stroke="black" stroke-linecap="round" stroke-linejoin="round"/>
<path d="M4.92383 4.87482C5.05118 4.51281 5.30254 4.20754 5.63339 4.0131C5.96424 3.81866 6.35323 3.74758 6.73147 3.81246C7.1097 3.87733 7.45277 4.07398 7.69991 4.36756C7.94705 4.66115 8.08232 5.03273 8.08174 5.41649C8.08174 6.49982 6.45674 7.04149 6.45674 7.04149" stroke="black" stroke-linecap="round" stroke-linejoin="round"/>
<path d="M6.5 9.20703H6.50542" stroke="black" stroke-linecap="round" stroke-linejoin="round"/>
</g>
<defs>
<clipPath id="clip0_488_5965">
<rect width="13" height="13" fill="white"/>
</clipPath>
</defs>
</svg>
