<svg width="25" height="24" viewBox="0 0 25 24" fill="none" xmlns="http://www.w3.org/2000/svg">
<path d="M24.1054 12.4101C23.8468 13.0716 23.2062 13.4991 22.4726 13.4991H21.8757V21.7491C21.8757 22.1631 21.5257 22.4991 21.0944 22.4991H16.4069V17.2491C16.4069 15.1813 14.6546 13.4991 12.5007 13.4991C10.3468 13.4991 8.59444 15.1813 8.59444 17.2491V22.4991H3.90694C3.47569 22.4991 3.12569 22.1631 3.12569 21.7491V13.4991H2.52803C1.79444 13.4991 1.15381 13.0723 0.895219 12.4108C0.636626 11.7493 0.826469 11.0218 1.37959 10.5583L10.5038 2.26331C11.6241 1.24556 13.378 1.24556 14.4976 2.26331L23.6437 10.5778C24.1733 11.0211 24.364 11.7486 24.1054 12.4101Z" fill="black"/>
</svg>
