<svg width="9" height="11" viewBox="0 0 9 11" fill="none" xmlns="http://www.w3.org/2000/svg">
<rect width="9" height="11" fill="#9CAFFF"/>
<g id="Create business card">
<g clip-path="url(#clip0_0_1)">
<rect x="-76" y="-326" width="390" height="877" rx="33" fill="white"/>
<g id="Group 97">
<g id="Group 94">
<g id="Group 93">
<g id="Group 91">
<path id="*optional" d="M7.15909 9.81818L7.21591 8.25568L5.89489 9.09375L5.55398 8.49716L6.94602 7.77273L5.55398 7.0483L5.89489 6.4517L7.21591 7.28977L7.15909 5.72727H7.84091L7.78409 7.28977L9.10511 6.4517L9.44602 7.0483L8.05398 7.77273L9.44602 8.49716L9.10511 9.09375L7.78409 8.25568L7.84091 9.81818H7.15909ZM12.983 13.1136C12.4905 13.1136 12.0585 12.9964 11.6868 12.7621C11.3175 12.5277 11.0286 12.1998 10.8203 11.7784C10.6143 11.357 10.5114 10.8646 10.5114 10.3011C10.5114 9.73295 10.6143 9.23698 10.8203 8.81321C11.0286 8.38944 11.3175 8.06037 11.6868 7.82599C12.0585 7.59162 12.4905 7.47443 12.983 7.47443C13.4754 7.47443 13.9063 7.59162 14.2756 7.82599C14.6473 8.06037 14.9361 8.38944 15.142 8.81321C15.3504 9.23698 15.4545 9.73295 15.4545 10.3011C15.4545 10.8646 15.3504 11.357 15.142 11.7784C14.9361 12.1998 14.6473 12.5277 14.2756 12.7621C13.9063 12.9964 13.4754 13.1136 12.983 13.1136ZM12.983 12.3608C13.357 12.3608 13.6648 12.2649 13.9062 12.0732C14.1477 11.8814 14.3265 11.6293 14.4425 11.3168C14.5585 11.0043 14.6165 10.6657 14.6165 10.3011C14.6165 9.93655 14.5585 9.59683 14.4425 9.28196C14.3265 8.96709 14.1477 8.71259 13.9062 8.51847C13.6648 8.32434 13.357 8.22727 12.983 8.22727C12.6089 8.22727 12.3011 8.32434 12.0597 8.51847C11.8182 8.71259 11.6394 8.96709 11.5234 9.28196C11.4074 9.59683 11.3494 9.93655 11.3494 10.3011C11.3494 10.6657 11.4074 11.0043 11.5234 11.3168C11.6394 11.6293 11.8182 11.8814 12.0597 12.0732C12.3011 12.2649 12.6089 12.3608 12.983 12.3608ZM16.7338 15.0455V7.54545H17.5435V8.41193H17.6429C17.7045 8.31723 17.7897 8.1965 17.8986 8.04972C18.0099 7.90057 18.1685 7.76799 18.3745 7.65199C18.5828 7.53362 18.8645 7.47443 19.2196 7.47443C19.6789 7.47443 20.0837 7.58925 20.4341 7.81889C20.7845 8.04853 21.0579 8.37405 21.2544 8.79545C21.4509 9.21686 21.5492 9.71402 21.5492 10.2869C21.5492 10.8646 21.4509 11.3653 21.2544 11.7891C21.0579 12.2105 20.7857 12.5372 20.4377 12.7692C20.0897 12.9988 19.6884 13.1136 19.2338 13.1136C18.8835 13.1136 18.6029 13.0556 18.3922 12.9396C18.1815 12.8213 18.0194 12.6875 17.9057 12.5384C17.7921 12.3868 17.7045 12.2614 17.6429 12.1619H17.5719V15.0455H16.7338ZM17.5577 10.2727C17.5577 10.6847 17.6181 11.0481 17.7388 11.3629C17.8596 11.6754 18.0359 11.9205 18.2679 12.098C18.4999 12.2732 18.784 12.3608 19.1202 12.3608C19.4706 12.3608 19.763 12.2685 19.9973 12.0838C20.2341 11.8968 20.4116 11.6458 20.53 11.331C20.6507 11.0137 20.7111 10.661 20.7111 10.2727C20.7111 9.8892 20.6519 9.54356 20.5336 9.2358C20.4176 8.92566 20.2412 8.68063 20.0044 8.50071C19.7701 8.31842 19.4753 8.22727 19.1202 8.22727C18.7793 8.22727 18.4928 8.31368 18.2608 8.48651C18.0288 8.65696 17.8536 8.89607 17.7353 9.20384C17.6169 9.50923 17.5577 9.86553 17.5577 10.2727ZM25.1998 7.54545V8.25568H22.373V7.54545H25.1998ZM23.1969 6.23864H24.035V11.4375C24.035 11.6742 24.0693 11.8518 24.138 11.9702C24.209 12.0862 24.2989 12.1643 24.4078 12.2045C24.5191 12.2424 24.6363 12.2614 24.7594 12.2614C24.8517 12.2614 24.9275 12.2566 24.9867 12.2472C25.0459 12.2353 25.0932 12.2259 25.1287 12.2188L25.2992 12.9716C25.2424 12.9929 25.1631 13.0142 25.0613 13.0355C24.9595 13.0592 24.8304 13.071 24.6742 13.071C24.4374 13.071 24.2054 13.0201 23.9782 12.9183C23.7533 12.8165 23.5662 12.6615 23.4171 12.4531C23.2703 12.2448 23.1969 11.982 23.1969 11.6648V6.23864ZM26.4604 13V7.54545H27.2985V13H26.4604ZM26.8865 6.63636C26.7232 6.63636 26.5823 6.58073 26.464 6.46946C26.348 6.35819 26.29 6.22443 26.29 6.06818C26.29 5.91193 26.348 5.77817 26.464 5.6669C26.5823 5.55563 26.7232 5.5 26.8865 5.5C27.0499 5.5 27.1896 5.55563 27.3056 5.6669C27.4239 5.77817 27.4831 5.91193 27.4831 6.06818C27.4831 6.22443 27.4239 6.35819 27.3056 6.46946C27.1896 6.58073 27.0499 6.63636 26.8865 6.63636ZM31.0494 13.1136C30.5569 13.1136 30.1249 12.9964 29.7532 12.7621C29.3839 12.5277 29.0951 12.1998 28.8867 11.7784C28.6808 11.357 28.5778 10.8646 28.5778 10.3011C28.5778 9.73295 28.6808 9.23698 28.8867 8.81321C29.0951 8.38944 29.3839 8.06037 29.7532 7.82599C30.1249 7.59162 30.5569 7.47443 31.0494 7.47443C31.5418 7.47443 31.9727 7.59162 32.342 7.82599C32.7137 8.06037 33.0025 8.38944 33.2085 8.81321C33.4168 9.23698 33.521 9.73295 33.521 10.3011C33.521 10.8646 33.4168 11.357 33.2085 11.7784C33.0025 12.1998 32.7137 12.5277 32.342 12.7621C31.9727 12.9964 31.5418 13.1136 31.0494 13.1136ZM31.0494 12.3608C31.4234 12.3608 31.7312 12.2649 31.9727 12.0732C32.2141 11.8814 32.3929 11.6293 32.5089 11.3168C32.6249 11.0043 32.6829 10.6657 32.6829 10.3011C32.6829 9.93655 32.6249 9.59683 32.5089 9.28196C32.3929 8.96709 32.2141 8.71259 31.9727 8.51847C31.7312 8.32434 31.4234 8.22727 31.0494 8.22727C30.6753 8.22727 30.3675 8.32434 30.1261 8.51847C29.8846 8.71259 29.7058 8.96709 29.5898 9.28196C29.4738 9.59683 29.4158 9.93655 29.4158 10.3011C29.4158 10.6657 29.4738 11.0043 29.5898 11.3168C29.7058 11.6293 29.8846 11.8814 30.1261 12.0732C30.3675 12.2649 30.6753 12.3608 31.0494 12.3608ZM35.6383 9.71875V13H34.8002V7.54545H35.6099V8.39773H35.6809C35.8088 8.12074 36.0029 7.8982 36.2633 7.73011C36.5237 7.55966 36.8599 7.47443 37.2718 7.47443C37.6412 7.47443 37.9643 7.55019 38.2413 7.7017C38.5183 7.85085 38.7337 8.07812 38.8876 8.38352C39.0415 8.68655 39.1184 9.07008 39.1184 9.53409V13H38.2804V9.59091C38.2804 9.16241 38.1691 8.8286 37.9466 8.58949C37.724 8.34801 37.4186 8.22727 37.0304 8.22727C36.7628 8.22727 36.5237 8.28527 36.313 8.40128C36.1047 8.51728 35.9402 8.68655 35.8194 8.90909C35.6987 9.13163 35.6383 9.40152 35.6383 9.71875ZM42.255 13.1278C41.9093 13.1278 41.5956 13.0627 41.3139 12.9325C41.0322 12.8 40.8085 12.6094 40.6428 12.3608C40.477 12.1098 40.3942 11.8068 40.3942 11.4517C40.3942 11.1392 40.4557 10.8859 40.5788 10.6918C40.7019 10.4953 40.8665 10.3414 41.0724 10.2301C41.2784 10.1188 41.5057 10.036 41.7543 9.98153C42.0052 9.92472 42.2573 9.87973 42.5107 9.84659C42.8421 9.80398 43.1108 9.77202 43.3168 9.75071C43.5251 9.72704 43.6766 9.68797 43.7713 9.63352C43.8684 9.57907 43.9169 9.48437 43.9169 9.34943V9.32102C43.9169 8.97064 43.821 8.69839 43.6293 8.50426C43.4399 8.31013 43.1522 8.21307 42.7663 8.21307C42.3662 8.21307 42.0526 8.30066 41.8253 8.47585C41.598 8.65104 41.4382 8.83807 41.3459 9.03693L40.5504 8.75284C40.6925 8.4214 40.8819 8.16335 41.1186 7.97869C41.3577 7.79167 41.6181 7.66146 41.8999 7.58807C42.1839 7.51231 42.4633 7.47443 42.7379 7.47443C42.9131 7.47443 43.1143 7.49574 43.3416 7.53835C43.5713 7.5786 43.7926 7.66264 44.0057 7.79048C44.2211 7.91832 44.3999 8.11127 44.5419 8.36932C44.6839 8.62737 44.755 8.97301 44.755 9.40625V13H43.9169V12.2614H43.8743C43.8175 12.3797 43.7228 12.5064 43.5902 12.6413C43.4576 12.7763 43.2813 12.8911 43.0611 12.9858C42.8409 13.0805 42.5722 13.1278 42.255 13.1278ZM42.3828 12.375C42.7143 12.375 42.9936 12.3099 43.2209 12.1797C43.4505 12.0495 43.6233 11.8814 43.7393 11.6754C43.8577 11.4695 43.9169 11.2528 43.9169 11.0256V10.2585C43.8814 10.3011 43.8033 10.3402 43.6825 10.3757C43.5642 10.4089 43.4268 10.4384 43.2706 10.4645C43.1167 10.4882 42.9664 10.5095 42.8196 10.5284C42.6752 10.545 42.558 10.5592 42.468 10.571C42.2502 10.5994 42.0466 10.6456 41.8572 10.7095C41.6702 10.7711 41.5187 10.8646 41.4027 10.9901C41.2891 11.1132 41.2322 11.2812 41.2322 11.4943C41.2322 11.7855 41.34 12.0057 41.5554 12.1548C41.7732 12.3016 42.049 12.375 42.3828 12.375ZM47.1227 5.72727V13H46.2846V5.72727H47.1227Z" fill="#A9A9A9"/>
</g>
</g>
</g>
</g>
<g id="Rectangle 92" filter="url(#filter0_b_0_1)">
<rect x="-76" y="-326" width="390" height="877" fill="black" fill-opacity="0.2"/>
</g>
<g id="Card" filter="url(#filter1_d_0_1)">
<rect x="-33" y="-70" width="312" height="190" rx="19" fill="black"/>
<g id="home">
<path id="Vector" d="M0.375 4.12435L4.5 0.916016L8.625 4.12435V9.16602C8.625 9.40913 8.52842 9.64229 8.35651 9.8142C8.18461 9.98611 7.95145 10.0827 7.70833 10.0827H1.29167C1.04855 10.0827 0.815394 9.98611 0.643485 9.8142C0.471577 9.64229 0.375 9.40913 0.375 9.16602V4.12435Z" stroke="white" stroke-width="0.5" stroke-linecap="round" stroke-linejoin="round"/>
<path id="Vector_2" d="M3.125 10.0833V5.5H5.875V10.0833" stroke="white" stroke-width="0.5" stroke-linecap="round" stroke-linejoin="round"/>
</g>
</g>
</g>
</g>
<defs>
<filter id="filter0_b_0_1" x="-102.9" y="-352.9" width="443.8" height="930.8" filterUnits="userSpaceOnUse" color-interpolation-filters="sRGB">
<feFlood flood-opacity="0" result="BackgroundImageFix"/>
<feGaussianBlur in="BackgroundImageFix" stdDeviation="13.45"/>
<feComposite in2="SourceAlpha" operator="in" result="effect1_backgroundBlur_0_1"/>
<feBlend mode="normal" in="SourceGraphic" in2="effect1_backgroundBlur_0_1" result="shape"/>
</filter>
<filter id="filter1_d_0_1" x="-45.9" y="-78.9" width="337.8" height="215.8" filterUnits="userSpaceOnUse" color-interpolation-filters="sRGB">
<feFlood flood-opacity="0" result="BackgroundImageFix"/>
<feColorMatrix in="SourceAlpha" type="matrix" values="0 0 0 0 0 0 0 0 0 0 0 0 0 0 0 0 0 0 127 0" result="hardAlpha"/>
<feOffset dy="4"/>
<feGaussianBlur stdDeviation="6.45"/>
<feComposite in2="hardAlpha" operator="out"/>
<feColorMatrix type="matrix" values="0 0 0 0 1 0 0 0 0 1 0 0 0 0 1 0 0 0 0.25 0"/>
<feBlend mode="normal" in2="BackgroundImageFix" result="effect1_dropShadow_0_1"/>
<feBlend mode="normal" in="SourceGraphic" in2="effect1_dropShadow_0_1" result="shape"/>
</filter>
<clipPath id="clip0_0_1">
<rect x="-76" y="-326" width="390" height="877" rx="33" fill="white"/>
</clipPath>
</defs>
</svg>
