<svg width="23" height="19" viewBox="0 0 23 19" fill="none" xmlns="http://www.w3.org/2000/svg">
<path d="M18.2083 2.375H4.79167C3.73312 2.375 2.875 3.08388 2.875 3.95833V15.0417C2.875 15.9161 3.73312 16.625 4.79167 16.625H18.2083C19.2669 16.625 20.125 15.9161 20.125 15.0417V3.95833C20.125 3.08388 19.2669 2.375 18.2083 2.375Z" stroke="#0085FF" stroke-linecap="round" stroke-linejoin="round"/>
<path d="M8.14453 7.91602C8.93844 7.91602 9.58203 7.38435 9.58203 6.72852C9.58203 6.07268 8.93844 5.54102 8.14453 5.54102C7.35062 5.54102 6.70703 6.07268 6.70703 6.72852C6.70703 7.38435 7.35062 7.91602 8.14453 7.91602Z" stroke="#0085FF" stroke-linecap="round" stroke-linejoin="round"/>
<path d="M20.1263 11.8743L15.3346 7.91602L4.79297 16.6243" stroke="#0085FF" stroke-linecap="round" stroke-linejoin="round"/>
</svg>
