<svg width="34" height="28" viewBox="0 0 34 28" fill="none" xmlns="http://www.w3.org/2000/svg">
<g filter="url(#filter0_d_488_6148)">
<path d="M30.25 20.5722V21.7184C30.25 22.292 29.9537 22.8421 29.4262 23.2477C28.8988 23.6533 28.1834 23.8811 27.4375 23.8811H6.8125C6.06658 23.8811 5.35121 23.6533 4.82376 23.2477C4.29632 22.8421 4 22.292 4 21.7184V20.5722L10.5625 15.5258L13.9281 18.1139L11.7719 19.7648C11.5953 19.9005 11.4962 20.0846 11.4962 20.2766C11.4962 20.4686 11.5953 20.6527 11.7719 20.7884C11.9484 20.9242 12.1878 21.0005 12.4375 21.0005C12.6872 21.0005 12.9266 20.9242 13.1031 20.7884L21.8125 14.084L30.25 20.5722Z" fill="#8B9DFE"/>
<path d="M9.89687 13.9971C9.98403 13.9295 10.0877 13.8759 10.202 13.8393C10.3162 13.8027 10.4387 13.7839 10.5625 13.7839C10.6863 13.7839 10.8088 13.8027 10.923 13.8393C11.0373 13.8759 11.141 13.9295 11.2281 13.9971L15.25 17.097L21.1469 12.5553C21.234 12.4877 21.3377 12.4341 21.452 12.3975C21.5662 12.3609 21.6887 12.342 21.8125 12.342C21.9363 12.342 22.0588 12.3609 22.173 12.3975C22.2873 12.4341 22.391 12.4877 22.4781 12.5553L30.25 18.5388V5.85804C30.25 5.28445 29.9537 4.73435 29.4262 4.32876C28.8988 3.92317 28.1834 3.69531 27.4375 3.69531H6.8125C6.06658 3.69531 5.35121 3.92317 4.82376 4.32876C4.29632 4.73435 4 5.28445 4 5.85804V18.5388L9.89687 13.9971Z" fill="#4F76FD"/>
</g>
<defs>
<filter id="filter0_d_488_6148" x="0.8" y="0.495312" width="32.65" height="26.5855" filterUnits="userSpaceOnUse" color-interpolation-filters="sRGB">
<feFlood flood-opacity="0" result="BackgroundImageFix"/>
<feColorMatrix in="SourceAlpha" type="matrix" values="0 0 0 0 0 0 0 0 0 0 0 0 0 0 0 0 0 0 127 0" result="hardAlpha"/>
<feOffset/>
<feGaussianBlur stdDeviation="1.6"/>
<feComposite in2="hardAlpha" operator="out"/>
<feColorMatrix type="matrix" values="0 0 0 0 0 0 0 0 0 0 0 0 0 0 0 0 0 0 0.25 0"/>
<feBlend mode="normal" in2="BackgroundImageFix" result="effect1_dropShadow_488_6148"/>
<feBlend mode="normal" in="SourceGraphic" in2="effect1_dropShadow_488_6148" result="shape"/>
</filter>
</defs>
</svg>
