<svg width="16" height="15" viewBox="0 0 16 15" fill="none" xmlns="http://www.w3.org/2000/svg">
<g clip-path="url(#clip0_488_6415)">
<path d="M11 0H5C3.67392 0 2.40215 0.49386 1.46447 1.37294C0.526784 2.25201 0 3.4443 0 4.6875L0 10.3125C0 11.5557 0.526784 12.748 1.46447 13.6271C2.40215 14.5061 3.67392 15 5 15H11C12.3261 15 13.5979 14.5061 14.5355 13.6271C15.4732 12.748 16 11.5557 16 10.3125V4.6875C16 3.4443 15.4732 2.25201 14.5355 1.37294C13.5979 0.49386 12.3261 0 11 0ZM14.5 10.3125C14.5 12.1219 12.93 13.5938 11 13.5938H5C3.07 13.5938 1.5 12.1219 1.5 10.3125V4.6875C1.5 2.87812 3.07 1.40625 5 1.40625H11C12.93 1.40625 14.5 2.87812 14.5 4.6875V10.3125Z" fill="#148EFF"/>
<path d="M8 3.75C6.93913 3.75 5.92172 4.14509 5.17157 4.84835C4.42143 5.55161 4 6.50544 4 7.5C4 8.49456 4.42143 9.44839 5.17157 10.1517C5.92172 10.8549 6.93913 11.25 8 11.25C9.06087 11.25 10.0783 10.8549 10.8284 10.1517C11.5786 9.44839 12 8.49456 12 7.5C12 6.50544 11.5786 5.55161 10.8284 4.84835C10.0783 4.14509 9.06087 3.75 8 3.75ZM8 9.84375C7.3372 9.84301 6.70178 9.59584 6.23311 9.15646C5.76444 8.71708 5.50079 8.12137 5.5 7.5C5.5 6.20719 6.622 5.15625 8 5.15625C9.378 5.15625 10.5 6.20719 10.5 7.5C10.5 8.79187 9.378 9.84375 8 9.84375Z" fill="#148EFF"/>
<path d="M12.2986 3.96812C12.593 3.96812 12.8316 3.74441 12.8316 3.46844C12.8316 3.19247 12.593 2.96875 12.2986 2.96875C12.0043 2.96875 11.7656 3.19247 11.7656 3.46844C11.7656 3.74441 12.0043 3.96812 12.2986 3.96812Z" fill="#148EFF"/>
</g>
<defs>
<clipPath id="clip0_488_6415">
<rect width="16" height="15" fill="white"/>
</clipPath>
</defs>
</svg>
