<svg width="12" height="11" viewBox="0 0 12 11" fill="none" xmlns="http://www.w3.org/2000/svg">
<g clip-path="url(#clip0_541_3242)">
<path d="M8.5 0.916016H3.5C2.11929 0.916016 1 1.94203 1 3.20768V7.79102C1 9.05667 2.11929 10.0827 3.5 10.0827H8.5C9.88071 10.0827 11 9.05667 11 7.79102V3.20768C11 1.94203 9.88071 0.916016 8.5 0.916016Z" stroke="black" stroke-width="0.5" stroke-linecap="round" stroke-linejoin="round"/>
<path d="M7.99985 5.2109C8.06156 5.59235 7.99048 5.98192 7.79673 6.3242C7.60298 6.66648 7.29643 6.94405 6.92067 7.11742C6.54491 7.29079 6.11908 7.35113 5.70375 7.28987C5.28842 7.22861 4.90473 7.04885 4.60727 6.77618C4.30981 6.50351 4.11372 6.1518 4.04689 5.77108C3.98005 5.39036 4.04589 5.00002 4.23502 4.65557C4.42415 4.31112 4.72695 4.03011 5.10035 3.85251C5.47375 3.67491 5.89873 3.60975 6.31485 3.66632C6.73932 3.72401 7.13228 3.90532 7.4357 4.18346C7.73912 4.46159 7.93691 4.82181 7.99985 5.2109Z" stroke="black" stroke-width="0.5" stroke-linecap="round" stroke-linejoin="round"/>
<path d="M8.75 2.97852H8.755" stroke="black" stroke-width="0.5" stroke-linecap="round" stroke-linejoin="round"/>
</g>
<defs>
<clipPath id="clip0_541_3242">
<rect width="12" height="11" fill="white"/>
</clipPath>
</defs>
</svg>
