<svg width="19" height="18" viewBox="0 0 19 18" fill="none" xmlns="http://www.w3.org/2000/svg">
<g clip-path="url(#clip0_4872_1863)">
<path d="M13.0625 0H5.9375C4.36278 0 2.85255 0.592632 1.73905 1.64752C0.625556 2.70242 0 4.13316 0 5.625L0 12.375C0 13.8668 0.625556 15.2976 1.73905 16.3525C2.85255 17.4074 4.36278 18 5.9375 18H13.0625C14.6372 18 16.1474 17.4074 17.2609 16.3525C18.3744 15.2976 19 13.8668 19 12.375V5.625C19 4.13316 18.3744 2.70242 17.2609 1.64752C16.1474 0.592632 14.6372 0 13.0625 0ZM17.2188 12.375C17.2188 14.5463 15.3544 16.3125 13.0625 16.3125H5.9375C3.64563 16.3125 1.78125 14.5463 1.78125 12.375V5.625C1.78125 3.45375 3.64563 1.6875 5.9375 1.6875H13.0625C15.3544 1.6875 17.2188 3.45375 17.2188 5.625V12.375Z" fill="black"/>
<path d="M9.5 4.5C8.24022 4.5 7.03204 4.97411 6.14124 5.81802C5.25044 6.66193 4.75 7.80653 4.75 9C4.75 10.1935 5.25044 11.3381 6.14124 12.182C7.03204 13.0259 8.24022 13.5 9.5 13.5C10.7598 13.5 11.968 13.0259 12.8588 12.182C13.7496 11.3381 14.25 10.1935 14.25 9C14.25 7.80653 13.7496 6.66193 12.8588 5.81802C11.968 4.97411 10.7598 4.5 9.5 4.5ZM9.5 11.8125C8.71293 11.8116 7.95836 11.515 7.40182 10.9878C6.84527 10.4605 6.53219 9.74565 6.53125 9C6.53125 7.44863 7.86363 6.1875 9.5 6.1875C11.1364 6.1875 12.4688 7.44863 12.4688 9C12.4688 10.5503 11.1364 11.8125 9.5 11.8125Z" fill="black"/>
<path d="M14.6056 4.76175C14.9552 4.76175 15.2385 4.49329 15.2385 4.16212C15.2385 3.83096 14.9552 3.5625 14.6056 3.5625C14.256 3.5625 13.9727 3.83096 13.9727 4.16212C13.9727 4.49329 14.256 4.76175 14.6056 4.76175Z" fill="black"/>
</g>
<defs>
<clipPath id="clip0_4872_1863">
<rect width="19" height="18" fill="white"/>
</clipPath>
</defs>
</svg>
