<svg width="19" height="20" viewBox="0 0 19 20" fill="none" xmlns="http://www.w3.org/2000/svg">
<path fill-rule="evenodd" clip-rule="evenodd" d="M9.20512 9.13617V9.11133C9.1997 9.11966 9.1922 9.12799 9.1875 9.13617H9.20512Z" fill="black"/>
<path fill-rule="evenodd" clip-rule="evenodd" d="M0 1.5V18.5H17V1.5H0ZM5.28764 15.6232H2.76543V8.03495H5.28764V15.6232ZM4.02653 6.99926H4.00987C3.16379 6.99926 2.61538 6.41636 2.61538 5.68779C2.61538 4.94323 3.17982 4.37685 4.04305 4.37685C4.90646 4.37685 5.43705 4.94323 5.45356 5.68779C5.45356 6.41636 4.90646 6.99926 4.02653 6.99926ZM14.3846 15.6232H11.8617V11.5634C11.8617 10.5438 11.4972 9.84775 10.5841 9.84775C9.88679 9.84775 9.4724 10.3164 9.28985 10.7703C9.22349 10.9325 9.20615 11.1579 9.20615 11.3853V15.6232H6.68279C6.68279 15.6232 6.71661 8.74686 6.68279 8.03499H9.20615V9.11025C9.54141 8.59438 10.1397 7.85684 11.4799 7.85684C13.1402 7.85684 14.3846 8.94111 14.3846 11.2717V15.6232Z" fill="black"/>
</svg>
