<svg width="19" height="19" viewBox="0 0 19 19" fill="none" xmlns="http://www.w3.org/2000/svg">
<g clip-path="url(#clip0_1797_2596)">
<path fill-rule="evenodd" clip-rule="evenodd" d="M10.2912 9.53363V9.50586C10.2851 9.51517 10.2767 9.52448 10.2715 9.53363H10.2912Z" fill="black"/>
<path fill-rule="evenodd" clip-rule="evenodd" d="M0 1V20H19V1H0ZM5.90971 16.7847H3.09078V8.30377H5.90971V16.7847ZM4.50024 7.14623H4.48162C3.536 7.14623 2.92308 6.49476 2.92308 5.68047C2.92308 4.84831 3.55392 4.2153 4.5187 4.2153C5.48369 4.2153 6.0767 4.84831 6.09516 5.68047C6.09516 6.49476 5.48369 7.14623 4.50024 7.14623ZM16.0769 16.7847H13.2572V12.2474C13.2572 11.1077 12.8498 10.3298 11.8293 10.3298C11.0499 10.3298 10.5868 10.8536 10.3828 11.361C10.3086 11.5422 10.2892 11.7941 10.2892 12.0483V16.7847H7.46901C7.46901 16.7847 7.5068 9.09943 7.46901 8.30381H10.2892V9.50557C10.6639 8.92901 11.3326 8.10471 12.8305 8.10471C14.6861 8.10471 16.0769 9.31653 16.0769 11.9213V16.7847Z" fill="black"/>
</g>
<defs>
<clipPath id="clip0_1797_2596">
<rect width="19" height="19" fill="white"/>
</clipPath>
</defs>
</svg>
