<svg width="21" height="21" viewBox="0 0 21 21" fill="none" xmlns="http://www.w3.org/2000/svg">
<g filter="url(#filter0_d_1794_2069)">
<path d="M16.625 9.16602H4.375C3.4085 9.16602 2.625 9.91221 2.625 10.8327V16.666C2.625 17.5865 3.4085 18.3327 4.375 18.3327H16.625C17.5915 18.3327 18.375 17.5865 18.375 16.666V10.8327C18.375 9.91221 17.5915 9.16602 16.625 9.16602Z" stroke="white" stroke-width="2" stroke-linecap="round" stroke-linejoin="round"/>
<path d="M6.125 9.16601V5.83268C6.125 4.72761 6.58594 3.66781 7.40641 2.8864C8.22688 2.105 9.33968 1.66602 10.5 1.66602C11.6603 1.66602 12.7731 2.105 13.5936 2.8864C14.4141 3.66781 14.875 4.72761 14.875 5.83268V9.16601" stroke="white" stroke-width="2" stroke-linecap="round" stroke-linejoin="round"/>
</g>
<defs>
<filter id="filter0_d_1794_2069" x="0" y="0" width="21" height="21" filterUnits="userSpaceOnUse" color-interpolation-filters="sRGB">
<feFlood flood-opacity="0" result="BackgroundImageFix"/>
<feColorMatrix in="SourceAlpha" type="matrix" values="0 0 0 0 0 0 0 0 0 0 0 0 0 0 0 0 0 0 127 0" result="hardAlpha"/>
<feOffset dy="1"/>
<feComposite in2="hardAlpha" operator="out"/>
<feColorMatrix type="matrix" values="0 0 0 0 0 0 0 0 0 0 0 0 0 0 0 0 0 0 0.25 0"/>
<feBlend mode="normal" in2="BackgroundImageFix" result="effect1_dropShadow_1794_2069"/>
<feBlend mode="normal" in="SourceGraphic" in2="effect1_dropShadow_1794_2069" result="shape"/>
</filter>
</defs>
</svg>
