<svg width="13" height="13" viewBox="0 0 13 13" fill="none" xmlns="http://www.w3.org/2000/svg">
<path d="M10.2917 5.95703H2.70833C2.11002 5.95703 1.625 6.44206 1.625 7.04036V10.832C1.625 11.4303 2.11002 11.9154 2.70833 11.9154H10.2917C10.89 11.9154 11.375 11.4303 11.375 10.832V7.04036C11.375 6.44206 10.89 5.95703 10.2917 5.95703Z" stroke="black" stroke-linecap="round" stroke-linejoin="round"/>
<path d="M3.79297 5.95703V3.79036C3.79297 3.07207 4.07831 2.38319 4.58622 1.87528C5.09413 1.36737 5.78301 1.08203 6.5013 1.08203C7.2196 1.08203 7.90847 1.36737 8.41638 1.87528C8.92429 2.38319 9.20964 3.07207 9.20964 3.79036V5.95703" stroke="black" stroke-linecap="round" stroke-linejoin="round"/>
</svg>
