<svg width="108" height="21" viewBox="0 0 108 21" fill="none" xmlns="http://www.w3.org/2000/svg">
<path d="M20.6641 20.9688V5.56604H24.8148V10.671H25.3991V20.9688H20.6641ZM33.3298 20.9688V13.6946C33.3298 13.343 33.3056 12.893 33.2613 12.3481C33.217 11.8031 33.0719 11.2511 32.8341 10.6991C32.5924 10.1472 32.2015 9.68658 31.6574 9.3139C31.1134 8.94474 30.3437 8.75841 29.3483 8.75841C28.9494 8.75841 28.5182 8.81114 28.0628 8.91662C27.6034 9.02209 27.1763 9.22249 26.7773 9.52134C26.3784 9.82018 26.0479 10.2597 25.79 10.8398C25.5321 11.4199 25.4031 12.1898 25.4031 13.1497L22.7273 12.0949C22.7273 10.8784 23.0255 9.7358 23.6179 8.67051C24.2103 7.60522 25.109 6.74384 26.3018 6.0899C27.4946 5.43595 29.0058 5.10547 30.8233 5.10547C32.274 5.10547 33.4588 5.30939 34.3735 5.71722C35.2883 6.12506 36.0016 6.6454 36.5093 7.27121C37.0171 7.89703 37.3798 8.55097 37.5974 9.23304C37.815 9.91159 37.944 10.5339 37.9923 11.0929C38.0366 11.6554 38.0608 12.0633 38.0608 12.3199V20.9618H33.3258L33.3298 20.9688Z" fill="#0A6DFE"/>
<path d="M46.7342 21C45.1868 21 43.8287 20.6519 42.6641 19.9558C41.4995 19.2597 40.5928 18.3139 39.944 17.1185C39.2952 15.9232 38.9688 14.5731 38.9688 13.0718C38.9688 11.5706 39.2992 10.1818 39.9601 8.98995C40.621 7.79809 41.5478 6.85936 42.7407 6.17378C43.9375 5.48819 45.3399 5.14364 46.9518 5.14364C48.5638 5.14364 49.8976 5.49171 50.9897 6.18784C52.0818 6.88398 52.9079 7.82973 53.4681 9.02511C54.0282 10.2205 54.3103 11.5706 54.3103 13.0718C54.3103 14.5731 54.0282 15.9232 53.46 17.1185C52.8918 18.3139 52.0496 19.2597 50.9252 19.9558C49.8009 20.6519 48.4066 21 46.7302 21M46.9075 17.7092C47.9472 17.7092 48.7814 17.5123 49.402 17.122C50.0226 16.7318 50.4739 16.1798 50.7479 15.4731C51.022 14.7664 51.159 13.9437 51.159 13.005C51.159 12.0663 51.022 11.2436 50.7479 10.5369C50.4739 9.83023 50.0347 9.27825 49.4342 8.88799C48.8338 8.49422 48.0479 8.30085 47.0768 8.30085C46.0371 8.30085 45.1827 8.51532 44.5098 8.94073C43.8408 9.36615 43.3451 9.93571 43.0268 10.6494C42.7084 11.3631 42.5472 12.1472 42.5472 13.0085C42.5472 13.8699 42.7004 14.6715 43.0107 15.3817C43.321 16.0954 43.7925 16.6615 44.4332 17.0799C45.0739 17.5018 45.896 17.7127 46.9035 17.7127M51.8803 21V10.2099H51.2799V0H56.1277V21H51.8803Z" fill="#0A6DFE"/>
<path d="M100.835 21.0005C99.2267 21.0005 97.8082 20.67 96.5831 20.0055C95.3581 19.3445 94.3949 18.4304 93.7018 17.2667C93.0087 16.103 92.6621 14.7705 92.6621 13.2657C92.6621 11.6238 93.0006 10.1964 93.6817 8.9799C94.3587 7.76343 95.2936 6.82119 96.4864 6.14966C97.6792 5.47814 99.0494 5.14062 100.601 5.14062C102.249 5.14062 103.647 5.5133 104.804 6.25514C105.957 6.99698 106.811 8.04118 107.363 9.38422C107.915 10.7273 108.108 12.3094 107.943 14.1271H104.03V12.7348C104.03 11.2054 103.776 10.1014 103.269 9.42992C102.761 8.7584 101.927 8.42088 100.774 8.42088C99.4282 8.42088 98.4368 8.81466 97.8001 9.59517C97.1634 10.3792 96.8491 11.5359 96.8491 13.0653C96.8491 14.4646 97.1675 15.5475 97.8001 16.3139C98.4368 17.0803 99.3677 17.4636 100.601 17.4636C101.375 17.4636 102.04 17.3018 102.592 16.9749C103.144 16.6514 103.567 16.1803 103.857 15.5685L107.81 16.6549C107.218 18.0261 106.287 19.0949 105.01 19.8543C103.736 20.6137 102.342 20.997 100.827 20.997M95.6281 11.3179H106.041V14.1271H95.6281V11.3179Z" fill="#0A6DFE"/>
<path d="M16.6392 5.5918H0V8.58727H16.6392V5.5918Z" fill="#0A6DFE"/>
<path d="M2.91419 20.9691V5.62258C2.91419 5.23232 2.92627 4.78933 2.94642 4.29711C2.9706 3.8049 3.06329 3.30214 3.22852 2.79937C3.39374 2.29661 3.7 1.83955 4.14732 1.43172C4.71955 0.900831 5.34014 0.535186 6.00909 0.341816C6.67804 0.148446 7.32685 0.0429712 7.9555 0.0289079C8.58415 0.0148446 9.12415 0.0078125 9.56743 0.0078125H11.8644V3.14393H9.73668C9.00325 3.14393 8.45923 3.29862 8.10863 3.60801C7.75401 3.91741 7.57669 4.28657 7.57669 4.71198V20.9727H2.91016L2.91419 20.9691Z" fill="#0A6DFE"/>
<path d="M19.4849 1.51562H14.8184V4.94003H19.4849V1.51562Z" fill="#0A6DFE"/>
<path d="M19.4849 5.58984H14.8184V20.9927H19.4849V5.58984Z" fill="#0A6DFE"/>
<path d="M63.9609 21.0001V5.59729H68.1117V10.7023H68.696V21.0001H63.9609ZM76.6267 21.0001V13.7259C76.6267 13.3743 76.6025 12.9243 76.5582 12.3793C76.5138 11.8344 76.3688 11.2824 76.131 10.7304C75.8892 10.1784 75.4983 9.71783 74.9543 9.34516C74.4103 8.97599 73.6406 8.78966 72.6452 8.78966C72.2463 8.78966 71.8151 8.84239 71.3597 8.94787C70.9003 9.05334 70.4731 9.25374 70.0742 9.55259C69.6752 9.85143 69.3448 10.2909 69.0869 10.871C68.829 11.4511 68.7 12.2211 68.7 13.1809L66.0242 12.1262C66.0242 10.9097 66.3224 9.76705 66.9148 8.70176C67.5072 7.63647 68.4058 6.77509 69.5987 6.12115C70.7915 5.46721 72.3027 5.13672 74.1201 5.13672C75.5709 5.13672 76.7556 5.34064 77.6704 5.74847C78.5852 6.15631 79.2985 6.67665 79.8062 7.30247C80.314 7.92828 80.6767 8.58222 80.8943 9.26429C81.1119 9.94284 81.2408 10.5651 81.2892 11.1242C81.3335 11.6867 81.3577 12.0945 81.3577 12.3512V20.9931H76.6227L76.6267 21.0001ZM87.2815 21.0001V13.7259C87.2815 13.3743 87.2574 12.9243 87.213 12.3793C87.1687 11.8344 87.0236 11.2824 86.7859 10.7304C86.5441 10.1784 86.1532 9.71783 85.6092 9.34516C85.0651 8.97599 84.2954 8.78966 83.3001 8.78966C82.9011 8.78966 82.4699 8.84239 82.0146 8.94787C81.5552 9.05334 81.128 9.25374 80.729 9.55259C80.3301 9.85143 79.9996 10.2909 79.7417 10.871C79.4838 11.4511 79.3549 12.2211 79.3549 13.1809L76.6791 12.1262C76.6791 10.9097 76.9773 9.76705 77.5697 8.70176C78.162 7.63647 79.0607 6.77509 80.2535 6.12115C81.4504 5.46369 82.9575 5.13672 84.775 5.13672C86.2257 5.13672 87.4105 5.34064 88.3253 5.74847C89.24 6.15631 89.9533 6.67665 90.4611 7.30247C90.9688 7.92828 91.3315 8.58222 91.5491 9.26429C91.7667 9.94284 91.8957 10.5651 91.944 11.1242C91.9884 11.6867 92.0126 12.0945 92.0126 12.3512V20.9931H87.2775L87.2815 21.0001Z" fill="#0A6DFE"/>
</svg>