<svg width="216" height="36" viewBox="0 0 216 36" fill="none" xmlns="http://www.w3.org/2000/svg">
<path d="M90.4707 34.191V9.07333H96.4366V17.3981H97.2764V34.191H90.4707ZM108.675 34.191V22.3287C108.675 21.7554 108.64 21.0215 108.577 20.1329C108.513 19.2442 108.305 18.3441 107.963 17.444C107.615 16.5438 107.053 15.7928 106.272 15.185C105.49 14.583 104.383 14.2792 102.953 14.2792C102.379 14.2792 101.759 14.3652 101.105 14.5372C100.445 14.7092 99.8307 15.036 99.2573 15.5233C98.6839 16.0106 98.2089 16.7273 97.8382 17.6733C97.4675 18.6193 97.2822 19.8749 97.2822 21.4401L93.4363 19.7201C93.4363 17.7364 93.8649 15.873 94.7163 14.1358C95.5677 12.3986 96.8594 10.994 98.5738 9.92759C100.288 8.86119 102.46 8.32227 105.073 8.32227C107.158 8.32227 108.861 8.6548 110.175 9.31986C111.49 9.98492 112.515 10.8335 113.245 11.854C113.975 12.8745 114.496 13.9409 114.809 15.0532C115.122 16.1597 115.307 17.1745 115.377 18.0861C115.44 19.0034 115.475 19.6685 115.475 20.087V34.1795H108.669L108.675 34.191Z" fill="#0A6DFE"/>
<path d="M127.941 34.2451C125.716 34.2451 123.765 33.6775 122.091 32.5423C120.417 31.4071 119.113 29.8648 118.181 27.9155C117.248 25.9662 116.779 23.7646 116.779 21.3164C116.779 18.8683 117.254 16.6037 118.204 14.6601C119.154 12.7165 120.486 11.1857 122.201 10.0677C123.921 8.94969 125.937 8.38783 128.253 8.38783C130.57 8.38783 132.487 8.95543 134.057 10.0906C135.627 11.2258 136.814 12.7681 137.619 14.7174C138.424 16.6667 138.83 18.8683 138.83 21.3164C138.83 23.7646 138.424 25.9662 137.608 27.9155C136.791 29.8648 135.58 31.4071 133.964 32.5423C132.348 33.6775 130.344 34.2451 127.935 34.2451M128.19 28.8787C129.684 28.8787 130.883 28.5576 131.775 27.9212C132.667 27.2848 133.316 26.3847 133.71 25.2323C134.103 24.0799 134.3 22.7383 134.3 21.2075C134.3 19.6767 134.103 18.3351 133.71 17.1827C133.316 16.0303 132.684 15.1302 131.821 14.4938C130.958 13.8517 129.829 13.5363 128.433 13.5363C126.939 13.5363 125.711 13.8861 124.743 14.5798C123.782 15.2735 123.07 16.2023 122.612 17.3662C122.154 18.5301 121.923 19.8086 121.923 21.2132C121.923 22.6179 122.143 23.9251 122.589 25.0832C123.035 26.2471 123.712 27.1702 124.633 27.8524C125.554 28.5404 126.736 28.8844 128.184 28.8844M135.337 34.2451V16.6495H134.474V0H141.442V34.2451H135.337Z" fill="#0A6DFE"/>
<path d="M205.699 34.2438C203.388 34.2438 201.35 33.7049 199.589 32.6213C197.828 31.5434 196.444 30.0528 195.447 28.155C194.451 26.2573 193.953 24.0844 193.953 21.6305C193.953 18.9531 194.44 16.6254 195.419 14.6416C196.392 12.6579 197.735 11.1214 199.45 10.0263C201.164 8.93125 203.134 8.38086 205.364 8.38086C207.733 8.38086 209.742 8.98859 211.405 10.1983C213.061 11.408 214.289 13.1108 215.083 15.301C215.876 17.4911 216.154 20.0711 215.917 23.0352H210.293V20.7648C210.293 18.2708 209.928 16.4706 209.198 15.3755C208.468 14.2804 207.269 13.73 205.613 13.73C203.678 13.73 202.253 14.3722 201.338 15.645C200.423 16.9235 199.971 18.8097 199.971 21.3037C199.971 23.5856 200.429 25.3515 201.338 26.6013C202.253 27.8512 203.591 28.4761 205.364 28.4761C206.476 28.4761 207.431 28.2124 208.225 27.6792C209.018 27.1517 209.627 26.3834 210.044 25.3859L215.726 27.1574C214.874 29.3934 213.536 31.1364 211.7 32.3748C209.87 33.6131 207.866 34.2381 205.688 34.2381M198.216 18.4543H213.183V23.0352H198.216V18.4543Z" fill="#0A6DFE"/>
<path d="M84.687 9.11719H60.7715V14.002H84.687V9.11719Z" fill="#0A6DFE"/>
<path d="M64.9609 34.1957V9.16977C64.9609 8.53337 64.9782 7.81097 65.0072 7.00831C65.042 6.20565 65.1752 5.38578 65.4127 4.56592C65.6501 3.74606 66.0903 3.00073 66.7333 2.33566C67.5557 1.46993 68.4477 0.873669 69.4092 0.558337C70.3707 0.243005 71.3032 0.0710058 72.2068 0.0480725C73.1103 0.0251393 73.8865 0.0136719 74.5236 0.0136719H77.8251V5.12778H74.7669C73.7127 5.12778 72.9308 5.38005 72.4269 5.88458C71.9172 6.38911 71.6623 6.99111 71.6623 7.68484V34.2014H64.9551L64.9609 34.1957Z" fill="#0A6DFE"/>
<path d="M88.7756 2.4707H82.0684V8.05495H88.7756V2.4707Z" fill="#0A6DFE"/>
<path d="M88.7756 9.11719H82.0684V34.2348H88.7756V9.11719Z" fill="#0A6DFE"/>
<path d="M36.6853 1.11706C36.0887 1.50693 35.4632 1.91399 34.8376 2.32105C33.1174 3.45052 31.345 4.63731 29.8217 5.73237C29.2019 6.13371 28.4837 6.7873 27.8929 7.3205C27.8871 7.3205 27.8756 7.3205 27.864 7.3205C27.4469 7.01664 27.0183 6.71277 26.5781 6.42037C27.0473 6.10504 27.5338 5.77251 27.7887 5.59478C27.8003 5.59478 27.8176 5.57757 27.8234 5.56611C27.9161 5.50877 28.0261 5.45717 28.1246 5.39984C30.0939 4.25891 32.4397 3.14665 34.6002 2.12039C35.33 1.77066 36.0308 1.43813 36.6911 1.11133L36.6853 1.11706Z" fill="#0A6DFE"/>
<path d="M54.0431 19.51C53.9794 19.7967 53.9215 20.0891 53.8636 20.393C53.7883 20.7427 53.7246 21.0867 53.6319 21.4192C53.5972 21.5052 53.5508 21.6141 53.4987 21.7403C53.3018 22.2333 53.0295 22.95 52.8731 23.294C52.5662 23.7871 52.2766 24.3317 51.9696 24.8363C51.9116 24.9337 51.8595 25.0312 51.79 25.1229C51.6684 25.2777 51.4888 25.5128 51.2977 25.7593C51.0255 26.1091 50.7359 26.4817 50.5215 26.7397C50.4752 26.7913 50.4347 26.8429 50.3999 26.8888C49.8497 27.4277 49.2763 28.0355 48.7086 28.5687L47.3707 29.6178C44.6078 31.6876 41.1094 33.4649 37.889 35.311C37.2229 35.6894 36.134 35.6837 35.4737 35.3053C35.3289 35.2193 35.1957 35.1448 35.0856 35.0874C34.8308 34.9441 34.5817 34.8008 34.3269 34.6632C33.8114 34.3822 33.3191 34.0956 32.7862 33.8146C32.3344 33.5738 31.9058 33.3158 31.4656 33.0693C31.3903 33.0234 31.3092 32.9833 31.2339 32.9432C30.6895 32.6393 30.1682 32.3297 29.6469 32.0201L29.4789 31.9226C29.0387 31.6589 28.6101 31.3952 28.1873 31.1257C27.9614 30.9881 27.7471 30.8448 27.5444 30.7014C27.4806 30.6613 27.4111 30.6212 27.359 30.581C27.2548 30.518 27.1621 30.4549 27.081 30.3918C26.9246 30.2886 26.774 30.1797 26.6234 30.0765C26.4902 29.9848 26.3628 29.893 26.2411 29.7956C26.1543 29.7382 26.0732 29.6809 25.9979 29.6236L24.6599 28.5801C24.3413 28.282 24.017 27.9552 23.6868 27.6341C23.4436 27.3876 23.2003 27.1353 22.957 26.8945C22.6211 26.4875 22.2562 26.0345 21.9202 25.5759C21.4974 25.014 21.1094 24.4407 20.8371 23.9132C17.9237 18.908 19.1169 13.2034 23.7911 8.67407C24.017 8.82887 24.2197 8.98366 24.3819 9.10406L25.5171 9.9526C25.5171 9.9526 25.5171 9.95833 25.5171 9.96406C25.297 10.2794 25.0827 10.589 24.8858 10.8355C24.6715 11.2082 24.463 11.6153 24.2602 12.0166C24.1792 12.1771 24.0923 12.3377 24.0054 12.4925C23.9475 12.6301 23.8722 12.8479 23.7911 13.0772C23.7911 13.0944 23.7795 13.1117 23.7737 13.1288C23.6926 13.3868 23.5884 13.6678 23.5131 13.8914C23.4783 14.0003 23.4378 14.1035 23.4088 14.1838C23.3335 14.5392 23.1655 15.3992 23.0902 15.8063C23.0787 15.835 23.0729 15.8636 23.0729 15.8923V15.9783C23.0555 16.3854 23.0381 17.2511 23.0265 17.6008C23.0381 17.641 23.0439 17.6868 23.0439 17.7327C23.0729 17.9792 23.1076 18.2258 23.154 18.478C23.1655 18.564 23.1829 18.6443 23.1887 18.7303C23.2466 18.994 23.2988 19.2635 23.3741 19.533C23.3914 19.619 23.4088 19.705 23.4378 19.7967C23.5131 20.0662 23.5942 20.3299 23.6926 20.5936C23.7216 20.6796 23.7505 20.7599 23.7853 20.8459C23.878 21.1153 23.988 21.3848 24.1097 21.6543C24.1444 21.7288 24.1734 21.8033 24.2139 21.8721C24.3471 22.1531 24.4861 22.4225 24.6425 22.692C24.6715 22.7493 24.7062 22.8067 24.7468 22.864C24.9148 23.1507 25.0827 23.4259 25.2797 23.7011C25.3086 23.7412 25.3376 23.7813 25.3607 23.8215C25.5577 24.1024 25.772 24.3719 25.9979 24.6413C26.0152 24.67 26.0442 24.6929 26.0616 24.7216C26.2933 24.9968 26.5365 25.2663 26.7972 25.53C26.8261 25.5587 26.8551 25.5873 26.8841 25.6217C27.081 25.8109 27.2779 26.0001 27.4806 26.1836L28.529 27.1353L28.5869 27.1755L29.728 28.0355C29.8844 28.1559 30.0929 28.3164 30.3188 28.4655C30.5447 28.626 30.7879 28.7808 30.9907 28.8897C31.0196 28.9069 31.0486 28.9241 31.0833 28.9528C31.1181 28.9757 31.1586 28.9986 31.2165 29.033C31.6625 29.3197 32.5603 29.8357 33.5681 30.4148C33.8172 30.5581 34.2053 30.7702 34.6223 31.0053C35.7575 31.6417 37.582 31.6417 38.7289 31.0168L38.752 31.0053C38.8389 30.9594 38.92 30.9078 39.0069 30.8562C39.0416 30.839 39.0706 30.8218 39.1111 30.8046C40.9357 29.7784 42.7717 28.7063 43.6348 28.0355L44.8279 27.1468C45.1986 26.8143 46.0501 26.0173 46.3976 25.7077C46.6466 25.4383 47.2027 24.7904 47.5502 24.3948L47.9557 23.8673C48.2858 23.3857 48.6218 22.8927 48.8824 22.3996C48.9403 22.2907 49.004 22.1817 49.0504 22.0728L49.4616 21.1956L49.5659 20.972C49.5659 20.972 49.5832 20.9261 49.5948 20.8975C49.6759 20.628 49.8091 20.1808 49.9308 19.8024C49.9481 19.7336 49.9655 19.6706 49.9887 19.6075C50.0234 19.4871 50.064 19.3782 50.0929 19.3036C50.1045 19.252 50.1103 19.1832 50.1219 19.1087C50.1798 18.7418 50.2725 18.1398 50.3246 17.7728C50.3362 17.7098 50.3362 17.6524 50.342 17.6066C50.342 17.532 50.342 17.4231 50.3304 17.3084C50.3304 17.0734 50.3188 16.7752 50.313 16.5C50.313 16.2592 50.3015 16.0356 50.2957 15.898C50.2609 15.6687 50.1624 15.2043 50.0814 14.7972C50.0466 14.6023 50.0176 14.4303 49.9887 14.2984C49.9771 14.264 49.9713 14.2182 49.9597 14.1952C49.9308 14.1035 49.8844 13.9831 49.8381 13.8455C49.6875 13.404 49.4848 12.7906 49.3689 12.5039C49.1546 12.1255 48.9461 11.7127 48.7434 11.3114C48.6507 11.1509 48.5638 10.9961 48.4827 10.847C48.3264 10.6463 48.1642 10.417 47.9846 10.1705C47.6313 9.6602 47.2374 9.09833 46.8262 8.7142L46.5714 8.439L45.8821 7.67647L44.7526 6.69608C44.602 6.55848 44.4051 6.38648 44.2024 6.21448C43.9765 6.04248 43.7448 5.86475 43.5479 5.73288C41.4743 4.25369 38.9142 2.57956 36.7016 1.13477C37.6573 1.6049 38.7173 2.1037 39.7946 2.61396C41.1963 3.28476 42.6443 3.98995 43.9823 4.70662C44.5267 4.99902 45.048 5.28568 45.5404 5.57808C45.7257 5.70995 46.0732 5.94501 46.4381 6.19728C46.9073 6.51261 47.3996 6.85088 47.6545 7.02287C49.6933 8.57087 51.2629 10.3081 52.3461 12.1427C52.792 12.8938 53.1512 13.6735 53.4292 14.4532C53.4408 14.4876 53.4581 14.5163 53.4639 14.5507C53.4697 14.5851 53.4813 14.6195 53.4929 14.6482C54.0373 16.242 54.2227 17.8875 54.0431 19.5215V19.51Z" fill="#0A6DFE"/>
<path d="M27.3612 30.5745C27.257 30.5115 27.1643 30.4484 27.0832 30.3853C26.9268 30.2821 26.7762 30.1732 26.6256 30.07C26.4924 29.9783 26.365 29.8865 26.2434 29.7891C25.6468 30.3223 24.917 30.9816 24.2914 31.3887C22.2179 32.8793 19.6462 34.5649 17.4336 35.9982C20.1501 34.6681 23.6195 33.1316 26.2897 31.5492C26.5445 31.3829 27.0542 31.0217 27.5408 30.6949H27.5524C27.4886 30.6491 27.4191 30.6089 27.367 30.5688L27.3612 30.5745Z" fill="#0A6DFE"/>
<path d="M30.3264 28.4591C30.1005 28.3043 29.8978 28.1495 29.7356 28.0291L28.6004 27.1749C28.6004 27.1749 28.6004 27.1691 28.6004 27.1634C28.8205 26.8481 29.029 26.5442 29.2201 26.2919C29.5271 25.7645 29.8109 25.1682 30.1063 24.635C30.2453 24.2623 30.5523 23.3335 30.7029 22.9437C30.7782 22.5653 30.9635 21.6021 31.0388 21.2351C31.0504 20.8682 31.0678 19.8993 31.0736 19.5266C30.755 16.5052 29.446 13.4952 26.6079 10.9496L25.5711 9.99213L25.5132 9.952L24.3722 9.09773C24.2158 8.97734 24.0073 8.8168 23.7814 8.66774C23.5555 8.5072 23.3122 8.3524 23.1095 8.24347C22.6809 7.95107 21.0938 7.04521 19.4779 6.13361C18.3368 5.49148 16.4891 5.49148 15.3481 6.13361C13.402 7.21721 11.3805 8.3868 10.4596 9.10347L9.26641 9.99786C8.9015 10.3247 8.05007 11.1159 7.69675 11.4312C7.40715 11.7523 6.67155 12.6008 6.37036 12.9448C5.92437 13.6328 5.36254 14.3494 5.05556 15.0661L4.53427 16.1554C4.42422 16.5338 4.14041 17.4684 4.01299 17.8296C3.96665 18.185 3.81606 19.1654 3.75814 19.5324C3.76972 19.9108 3.79289 20.874 3.80447 21.2409C3.86818 21.6021 4.06511 22.5767 4.14041 22.9494C4.29101 23.3393 4.5864 24.2623 4.737 24.6407C5.03818 25.1739 5.31621 25.7702 5.62319 26.2977C6.09814 26.9111 6.67155 27.8571 7.26814 28.419L7.52299 28.6999C8.0269 29.193 8.53081 29.6803 9.03473 30.1734L9.3417 30.4371C9.64869 30.7238 10.1642 31.1423 10.558 31.3946C12.6316 32.8795 15.2033 34.5594 17.4275 35.9984C14.6994 34.6626 11.2415 33.1318 8.55978 31.5436C8.13695 31.2512 6.89744 30.4142 6.45725 30.1046C1.79462 26.5557 -0.429541 22.055 0.0685778 17.606C0.201796 16.9868 0.311845 16.3102 0.479815 15.6968C0.65937 15.2553 1.04165 14.2462 1.23858 13.822C1.59189 13.2314 1.93942 12.5721 2.31012 11.9931C2.63447 11.5803 3.37586 10.6171 3.70021 10.2272C4.26204 9.68253 4.82967 9.0748 5.39729 8.5416L6.73527 7.49241C9.50388 5.42268 13.0023 3.65109 16.2227 1.79923C16.8772 1.42657 17.9487 1.42083 18.6032 1.79923C21.2502 3.31282 24.1173 4.79775 26.5674 6.41455C27.0134 6.70694 27.4478 7.01654 27.8648 7.32041C27.9401 7.37774 28.0212 7.43507 28.0965 7.49241L29.4344 8.5416C30.0137 9.0748 30.5929 9.68253 31.1431 10.2215C31.8903 11.1331 32.7707 12.2453 33.2572 13.2085C36.1706 18.208 34.9833 23.9183 30.3148 28.4477L30.3264 28.4591Z" fill="#0A6DFE"/>
<path d="M152.703 34.2437V9.12606H158.669V17.4508H159.509V34.2437H152.703ZM170.908 34.2437V22.3815C170.908 21.8081 170.873 21.0743 170.809 20.1856C170.745 19.297 170.537 18.3968 170.195 17.4967C169.848 16.5966 169.286 15.8455 168.504 15.2378C167.722 14.6358 166.616 14.3319 165.185 14.3319C164.612 14.3319 163.992 14.4179 163.337 14.5899C162.677 14.7619 162.063 15.0887 161.49 15.576C160.916 16.0634 160.441 16.78 160.071 17.726C159.7 18.672 159.515 19.9276 159.515 21.4928L155.669 19.7728C155.669 17.7891 156.097 15.9258 156.949 14.1886C157.8 12.4514 159.092 11.0467 160.806 9.98033C162.521 8.91393 164.693 8.375 167.305 8.375C169.39 8.375 171.093 8.70753 172.408 9.37259C173.723 10.0377 174.748 10.8862 175.478 11.9067C176.207 12.9272 176.729 13.9936 177.041 15.1059C177.354 16.2124 177.54 17.2272 177.609 18.1388C177.673 19.0562 177.708 19.7212 177.708 20.1397V34.2322H170.902L170.908 34.2437ZM186.222 34.2437V22.3815C186.222 21.8081 186.187 21.0743 186.123 20.1856C186.06 19.297 185.851 18.3968 185.509 17.4967C185.162 16.5966 184.6 15.8455 183.818 15.2378C183.036 14.6358 181.93 14.3319 180.499 14.3319C179.926 14.3319 179.306 14.4179 178.652 14.5899C177.991 14.7619 177.377 15.0887 176.804 15.576C176.231 16.0634 175.756 16.78 175.385 17.726C175.014 18.672 174.829 19.9276 174.829 21.4928L170.983 19.7728C170.983 17.7891 171.412 15.9258 172.263 14.1886C173.114 12.4514 174.406 11.0467 176.121 9.98033C177.841 8.9082 180.007 8.375 182.619 8.375C184.704 8.375 186.407 8.70753 187.722 9.37259C189.037 10.0377 190.062 10.8862 190.792 11.9067C191.522 12.9272 192.043 13.9936 192.356 15.1059C192.669 16.2124 192.854 17.2272 192.923 18.1388C192.987 19.0562 193.022 19.7212 193.022 20.1397V34.2322H186.216L186.222 34.2437Z" fill="#0A6DFE"/>
</svg>
