<svg xmlns="http://www.w3.org/2000/svg" xmlns:xlink="http://www.w3.org/1999/xlink" width="773" zoomAndPan="magnify" viewBox="0 0 579.75 122.249994" height="163" preserveAspectRatio="xMidYMid meet" version="1.0"><path fill="#0a6dfe" d="M 97.433594 117.890625 L 97.433594 38.105469 L 116.191406 38.105469 L 116.191406 64.527344 L 118.832031 64.527344 L 118.832031 117.890625 Z M 154.640625 117.890625 L 154.640625 80.210938 C 154.640625 78.421875 154.554688 76.035156 154.300781 73.222656 C 154.128906 70.410156 153.449219 67.511719 152.339844 64.699219 C 151.230469 61.800781 149.527344 59.414062 147.054688 57.539062 C 144.582031 55.578125 141.171875 54.640625 136.652344 54.640625 C 132.132812 54.640625 132.902344 54.894531 130.855469 55.492188 C 128.808594 56.003906 126.847656 57.113281 125.058594 58.648438 C 123.265625 60.179688 121.730469 62.484375 120.625 65.464844 C 119.429688 68.449219 118.917969 72.457031 118.917969 77.398438 L 106.8125 71.945312 C 106.8125 65.636719 108.175781 59.753906 110.820312 54.214844 C 113.460938 48.671875 117.554688 44.242188 122.925781 40.832031 C 128.296875 37.421875 135.117188 35.71875 143.300781 35.71875 C 151.488281 35.71875 155.238281 36.738281 159.332031 38.871094 C 163.421875 41 166.664062 43.644531 168.964844 46.882812 C 171.265625 50.121094 172.886719 53.53125 173.910156 57.027344 C 174.847656 60.523438 175.445312 63.761719 175.699219 66.660156 C 175.871094 69.558594 176.042969 71.6875 176.042969 73.050781 L 176.042969 117.804688 L 154.640625 117.804688 Z M 154.640625 117.890625 " fill-opacity="1" fill-rule="nonzero"/><path fill="#0a6dfe" d="M 215.089844 118.058594 C 208.097656 118.058594 201.960938 116.269531 196.757812 112.6875 C 191.472656 109.109375 187.378906 104.164062 184.480469 98.027344 C 181.582031 91.804688 180.046875 84.816406 180.046875 77.058594 C 180.046875 69.300781 181.496094 62.054688 184.480469 55.917969 C 187.464844 49.78125 191.644531 44.835938 197.015625 41.34375 C 202.386719 37.761719 208.78125 35.972656 216.027344 35.972656 C 223.273438 35.972656 229.328125 37.761719 234.273438 41.34375 C 239.21875 44.921875 242.882812 49.867188 245.441406 56.003906 C 248 62.226562 249.277344 69.214844 249.277344 76.972656 C 249.277344 84.730469 248 91.71875 245.441406 97.941406 C 242.882812 104.164062 239.046875 109.023438 234.015625 112.605469 C 228.988281 116.183594 222.675781 117.972656 215.089844 117.972656 M 215.855469 101.011719 C 220.546875 101.011719 224.296875 99.988281 227.109375 97.941406 C 229.925781 95.898438 231.972656 93.082031 233.164062 89.417969 C 234.441406 85.753906 235.039062 81.492188 235.039062 76.632812 C 235.039062 71.773438 234.441406 67.511719 233.164062 63.847656 C 231.886719 60.179688 229.925781 57.367188 227.28125 55.324219 C 224.554688 53.277344 221.058594 52.253906 216.625 52.253906 C 212.191406 52.253906 208.097656 53.363281 205.027344 55.578125 C 202.046875 57.792969 199.742188 60.691406 198.292969 64.441406 C 196.84375 68.109375 196.164062 72.199219 196.164062 76.632812 C 196.164062 81.066406 196.84375 85.242188 198.292969 88.90625 C 199.65625 92.574219 201.789062 95.554688 204.6875 97.6875 C 207.585938 99.902344 211.253906 100.925781 215.855469 100.925781 M 238.367188 118.058594 L 238.367188 62.140625 L 235.636719 62.140625 L 235.636719 6.734375 L 257.546875 6.734375 L 257.546875 118.058594 Z M 238.367188 118.058594 " fill-opacity="1" fill-rule="nonzero"/><path fill="#0a6dfe" d="M 459.269531 118.058594 C 452.023438 118.058594 445.628906 116.355469 440.085938 112.945312 C 434.542969 109.535156 430.195312 104.761719 427.125 98.710938 C 423.972656 92.65625 422.4375 85.753906 422.4375 77.996094 C 422.4375 70.238281 423.972656 62.054688 427.042969 55.832031 C 430.109375 49.527344 434.289062 44.667969 439.746094 41.171875 C 445.117188 37.675781 451.339844 35.972656 458.332031 35.972656 C 465.324219 35.972656 472.058594 37.933594 477.257812 41.769531 C 482.460938 45.605469 486.296875 51.058594 488.769531 57.964844 C 491.242188 64.953125 492.179688 73.136719 491.410156 82.515625 L 473.761719 82.515625 L 473.761719 75.269531 C 473.761719 67.339844 472.65625 61.628906 470.351562 58.136719 C 468.050781 54.640625 464.300781 52.9375 459.097656 52.9375 C 453.898438 52.9375 448.527344 54.980469 445.714844 58.988281 C 442.816406 63.078125 441.449219 69.046875 441.449219 76.972656 C 441.449219 84.902344 442.898438 89.84375 445.714844 93.765625 C 448.613281 97.773438 452.789062 99.734375 458.332031 99.734375 C 463.875 99.734375 464.8125 98.878906 467.285156 97.175781 C 469.757812 95.46875 471.71875 93.082031 472.996094 89.929688 L 490.816406 95.554688 C 488.171875 102.628906 483.910156 108.171875 478.195312 112.09375 C 472.484375 116.011719 466.175781 117.972656 459.355469 117.972656 M 435.824219 67.851562 L 482.800781 67.851562 L 482.800781 82.429688 L 435.824219 82.429688 Z M 435.824219 67.851562 " fill-opacity="1" fill-rule="nonzero"/><path fill="#0a6dfe" d="M 4.160156 38.1875 L 79.273438 38.1875 L 79.273438 53.703125 L 4.160156 53.703125 Z M 4.160156 38.1875 " fill-opacity="1" fill-rule="nonzero"/><path fill="#0a6dfe" d="M 71.089844 5.96875 L 92.148438 5.96875 L 92.148438 23.699219 L 71.089844 23.699219 Z M 71.089844 5.96875 " fill-opacity="1" fill-rule="nonzero"/><path fill="#0a6dfe" d="M 71.089844 38.1875 L 92.148438 38.1875 L 92.148438 117.972656 L 71.089844 117.972656 Z M 71.089844 38.1875 " fill-opacity="1" fill-rule="nonzero"/><path fill="#0a6dfe" d="M 292.84375 118.058594 L 292.84375 38.273438 L 311.601562 38.273438 L 311.601562 64.699219 L 314.246094 64.699219 L 314.246094 118.058594 Z M 350.054688 118.058594 L 350.054688 80.382812 C 350.054688 78.59375 349.96875 76.207031 349.710938 73.394531 C 349.542969 70.582031 348.859375 67.683594 347.75 64.871094 C 346.644531 61.972656 344.9375 59.585938 342.464844 57.710938 C 339.992188 55.75 336.582031 54.8125 332.0625 54.8125 C 327.546875 54.8125 328.3125 55.066406 326.265625 55.664062 C 324.21875 56.175781 322.257812 57.28125 320.46875 58.816406 C 318.679688 60.351562 317.144531 62.652344 316.035156 65.636719 C 314.839844 68.621094 314.332031 72.625 314.332031 77.570312 L 302.222656 72.113281 C 302.222656 65.808594 303.585938 59.925781 306.230469 54.382812 C 308.875 48.84375 312.964844 44.410156 318.335938 41 C 323.707031 37.59375 330.53125 35.886719 338.714844 35.886719 C 346.898438 35.886719 350.648438 36.910156 354.742188 39.042969 C 358.835938 41.171875 362.074219 43.816406 364.375 47.054688 C 366.679688 50.292969 368.296875 53.703125 369.320312 57.199219 C 370.257812 60.691406 370.855469 63.933594 371.113281 66.828125 C 371.28125 69.726562 371.453125 71.859375 371.453125 73.222656 L 371.453125 117.972656 L 350.054688 117.972656 Z M 398.140625 118.058594 L 398.140625 80.382812 C 398.140625 78.59375 398.054688 76.207031 397.796875 73.394531 C 397.628906 70.582031 396.945312 67.683594 395.835938 64.871094 C 394.730469 61.972656 393.023438 59.585938 390.550781 57.710938 C 388.078125 55.75 384.667969 54.8125 380.148438 54.8125 C 375.632812 54.8125 376.398438 55.066406 374.351562 55.664062 C 372.304688 56.175781 370.34375 57.28125 368.554688 58.816406 C 366.765625 60.351562 365.230469 62.652344 364.121094 65.636719 C 362.925781 68.621094 362.414062 72.625 362.414062 77.570312 L 350.308594 72.113281 C 350.308594 65.808594 351.671875 59.925781 354.316406 54.382812 C 356.960938 48.84375 361.050781 44.410156 366.421875 41 C 371.792969 37.59375 378.613281 35.886719 386.800781 35.886719 C 394.984375 35.886719 398.734375 36.910156 402.828125 39.042969 C 406.921875 41.171875 410.160156 43.816406 412.460938 47.054688 C 414.765625 50.292969 416.382812 53.703125 417.40625 57.199219 C 418.34375 60.691406 418.941406 63.933594 419.199219 66.828125 C 419.367188 69.726562 419.539062 71.859375 419.539062 73.222656 L 419.539062 117.972656 L 398.140625 117.972656 Z M 398.140625 118.058594 " fill-opacity="1" fill-rule="nonzero"/><path fill="#0a6dfe" d="M 529.605469 43.304688 L 549.214844 43.304688 L 549.214844 110.644531 L 529.605469 110.644531 Z M 529.605469 43.304688 " fill-opacity="1" fill-rule="nonzero"/><path fill="#0a6dfe" d="M 505.734375 67.171875 L 573.089844 67.171875 L 573.089844 86.777344 L 505.734375 86.777344 Z M 505.734375 67.171875 " fill-opacity="1" fill-rule="nonzero"/><path fill="#0a6dfe" d="M 18.230469 117.378906 L 18.230469 35.972656 C 18.230469 33.925781 18.230469 31.539062 18.398438 28.898438 C 18.484375 26.253906 18.910156 23.613281 19.679688 20.96875 C 20.445312 18.328125 21.808594 15.855469 23.855469 13.726562 C 26.414062 10.910156 29.226562 8.953125 32.296875 7.929688 C 35.28125 6.90625 38.265625 6.308594 41.078125 6.222656 C 43.890625 6.222656 46.363281 6.136719 48.324219 6.136719 L 58.726562 6.136719 L 58.726562 22.761719 L 49.09375 22.761719 C 45.765625 22.761719 43.292969 23.613281 41.761719 25.234375 C 40.140625 26.851562 39.371094 28.8125 39.371094 31.113281 L 39.371094 117.378906 Z M 18.230469 117.378906 " fill-opacity="1" fill-rule="nonzero"/></svg>