<svg width="166" height="31" viewBox="0 0 166 31" fill="none" xmlns="http://www.w3.org/2000/svg">
<path d="M69.5293 29.4441V7.81473H74.1142V14.9834H74.7596V29.4441H69.5293ZM83.5199 29.4441V19.2293C83.5199 18.7356 83.4932 18.1036 83.4442 17.3384C83.3953 16.5731 83.235 15.798 82.9724 15.0229C82.7053 14.2478 82.2735 13.601 81.6726 13.0777C81.0717 12.5593 80.2215 12.2976 79.122 12.2976C78.6813 12.2976 78.205 12.3717 77.702 12.5198C77.1945 12.6679 76.7227 12.9493 76.282 13.369C75.8413 13.7886 75.4763 14.4057 75.1914 15.2204C74.9065 16.035 74.7641 17.1162 74.7641 18.464L71.8084 16.9829C71.8084 15.2747 72.1378 13.6701 72.7921 12.1742C73.4465 10.6782 74.4391 9.46865 75.7567 8.55035C77.0743 7.63205 78.7436 7.16797 80.7512 7.16797C82.3536 7.16797 83.6624 7.45432 84.6728 8.02702C85.6833 8.59972 86.4712 9.33041 87.032 10.2092C87.5929 11.088 87.9935 12.0063 88.2339 12.9641C88.4743 13.917 88.6167 14.7908 88.6701 15.5758C88.7191 16.3658 88.7458 16.9385 88.7458 17.2989V29.4343H83.5155L83.5199 29.4441Z" fill="#0A6DFE"/>
<path d="M98.3258 29.4893C96.6165 29.4893 95.1164 29.0005 93.8299 28.0229C92.5435 27.0454 91.5419 25.7173 90.8253 24.0387C90.1086 22.3601 89.748 20.4642 89.748 18.3561C89.748 16.248 90.1131 14.2978 90.8431 12.6241C91.5731 10.9505 92.5969 9.63227 93.9145 8.66953C95.2366 7.7068 96.7856 7.22296 98.5662 7.22296C100.347 7.22296 101.82 7.71174 103.026 8.68928C104.233 9.66683 105.145 10.9949 105.764 12.6735C106.383 14.3521 106.694 16.248 106.694 18.3561C106.694 20.4642 106.383 22.3601 105.755 24.0387C105.127 25.7173 104.197 27.0454 102.955 28.0229C101.713 29.0005 100.173 29.4893 98.3213 29.4893M98.5172 24.8681C99.6657 24.8681 100.587 24.5917 101.273 24.0436C101.958 23.4956 102.457 22.7205 102.759 21.7281C103.062 20.7358 103.213 19.5805 103.213 18.2623C103.213 16.9441 103.062 15.7888 102.759 14.7965C102.457 13.8041 101.971 13.029 101.308 12.481C100.645 11.928 99.7769 11.6565 98.7042 11.6565C97.5557 11.6565 96.612 11.9576 95.8687 12.555C95.1297 13.1524 94.5822 13.9522 94.2306 14.9545C93.8789 15.9567 93.7009 17.0577 93.7009 18.2672C93.7009 19.4768 93.87 20.6025 94.2128 21.5998C94.5555 22.602 95.0763 23.3969 95.7841 23.9844C96.4918 24.5768 97.3999 24.8731 98.5128 24.8731M104.01 29.4893V14.3373H103.347V0H108.702V29.4893H104.01Z" fill="#0A6DFE"/>
<path d="M158.086 29.488C156.31 29.488 154.743 29.0239 153.39 28.0908C152.037 27.1626 150.973 25.879 150.207 24.2448C149.441 22.6106 149.059 20.7395 149.059 18.6264C149.059 16.3208 149.433 14.3163 150.185 12.6081C150.933 10.8999 151.965 9.57672 153.283 8.63374C154.601 7.69076 156.114 7.2168 157.828 7.2168C159.648 7.2168 161.193 7.74013 162.471 8.78185C163.744 9.82358 164.687 11.2899 165.297 13.1759C165.907 15.0618 166.121 17.2835 165.938 19.836H161.616V17.8809C161.616 15.7333 161.335 14.183 160.775 13.24C160.214 12.2971 159.292 11.8231 158.019 11.8231C156.532 11.8231 155.437 12.3761 154.734 13.4721C154.031 14.5731 153.684 16.1974 153.684 18.345C153.684 20.31 154.035 21.8306 154.734 22.9069C155.437 23.9832 156.466 24.5213 157.828 24.5213C158.682 24.5213 159.417 24.2942 160.027 23.835C160.637 23.3808 161.104 22.7193 161.424 21.8602L165.791 23.3858C165.137 25.3112 164.109 26.8121 162.698 27.8785C161.291 28.9449 159.751 29.4831 158.077 29.4831M152.335 15.8913H163.837V19.836H152.335V15.8913Z" fill="#0A6DFE"/>
<path d="M65.0828 7.84961H46.7031V12.056H65.0828V7.84961Z" fill="#0A6DFE"/>
<path d="M49.9224 29.4447V7.8943C49.9224 7.34628 49.9358 6.72421 49.958 6.03302C49.9847 5.34183 50.0871 4.63582 50.2696 3.92982C50.4521 3.22381 50.7904 2.58199 51.2845 2.00929C51.9166 1.26379 52.6021 0.75033 53.3411 0.47879C54.08 0.20725 54.7967 0.0591372 55.4911 0.0393889C56.1855 0.0196405 56.782 0.00976562 57.2716 0.00976562H59.8089V4.41365H57.4586C56.6484 4.41365 56.0475 4.63088 55.6602 5.06535C55.2685 5.49981 55.0726 6.01821 55.0726 6.61559V29.4496H49.918L49.9224 29.4447Z" fill="#0A6DFE"/>
<path d="M68.225 2.12695H63.0703V6.93568H68.225V2.12695Z" fill="#0A6DFE"/>
<path d="M68.225 7.84961H63.0703V29.479H68.225V7.84961Z" fill="#0A6DFE"/>
<path d="M28.1934 0.963921C27.7349 1.29964 27.2542 1.65018 26.7734 2.00071C25.4514 2.97332 24.0892 3.99529 22.9185 4.93828C22.4422 5.28388 21.8903 5.84671 21.4362 6.30586C21.4318 6.30586 21.4229 6.30586 21.414 6.30586C21.0935 6.04419 20.7641 5.78252 20.4258 5.53073C20.7863 5.25919 21.1603 4.97284 21.3561 4.81979C21.365 4.81979 21.3784 4.80498 21.3828 4.7951C21.454 4.74573 21.5386 4.7013 21.6143 4.65193C23.1278 3.66945 24.9306 2.71165 26.5909 1.82791C27.1518 1.52675 27.6904 1.2404 28.1979 0.958984L28.1934 0.963921Z" fill="#0A6DFE"/>
<path d="M41.5341 16.8019C41.4852 17.0487 41.4407 17.3005 41.3962 17.5622C41.3383 17.8634 41.2893 18.1596 41.2181 18.4459C41.1914 18.52 41.1558 18.6138 41.1157 18.7224C40.9644 19.147 40.7552 19.7641 40.635 20.0604C40.399 20.485 40.1765 20.954 39.9406 21.3885C39.896 21.4724 39.856 21.5563 39.8026 21.6353C39.7091 21.7686 39.5711 21.971 39.4242 22.1833C39.215 22.4845 38.9924 22.8054 38.8277 23.0276C38.7921 23.072 38.761 23.1164 38.7342 23.1559C38.3114 23.62 37.8707 24.1434 37.4344 24.6025L36.4062 25.506C34.2829 27.2883 31.5943 28.8188 29.1193 30.4085C28.6074 30.7344 27.7705 30.7294 27.2631 30.4036C27.1518 30.3295 27.0494 30.2653 26.9649 30.216C26.769 30.0925 26.5776 29.9691 26.3817 29.8506C25.9856 29.6087 25.6072 29.3619 25.1977 29.1199C24.8505 28.9126 24.5211 28.6904 24.1828 28.4781C24.1249 28.4386 24.0626 28.4041 24.0047 28.3695C23.5863 28.1078 23.1857 27.8412 22.785 27.5746L22.6559 27.4907C22.3176 27.2636 21.9882 27.0365 21.6633 26.8044C21.4897 26.686 21.325 26.5625 21.1692 26.4391C21.1202 26.4045 21.0668 26.37 21.0267 26.3354C20.9466 26.2811 20.8754 26.2268 20.8131 26.1725C20.6929 26.0836 20.5772 25.9898 20.4614 25.901C20.359 25.822 20.2611 25.743 20.1676 25.659C20.1009 25.6097 20.0385 25.5603 19.9807 25.5109L18.9524 24.6124C18.7076 24.3556 18.4583 24.0742 18.2046 23.7978C18.0176 23.5855 17.8307 23.3682 17.6437 23.1609C17.3855 22.8103 17.1051 22.4203 16.8469 22.0253C16.522 21.5415 16.2237 21.0478 16.0145 20.5936C13.7755 16.2835 14.6925 11.3711 18.2847 7.47079C18.4583 7.60409 18.6141 7.73739 18.7388 7.84107L19.6112 8.57176C19.6112 8.57176 19.6112 8.5767 19.6112 8.58164C19.4421 8.85318 19.2774 9.11978 19.126 9.33208C18.9613 9.65299 18.8011 10.0035 18.6453 10.3491C18.583 10.4874 18.5162 10.6256 18.4494 10.7589C18.4049 10.8774 18.347 11.065 18.2847 11.2625C18.2847 11.2773 18.2758 11.2921 18.2714 11.3069C18.209 11.5291 18.1289 11.771 18.071 11.9635C18.0443 12.0574 18.0132 12.1462 17.9909 12.2153C17.9331 12.5214 17.804 13.262 17.7461 13.6125C17.7372 13.6372 17.7327 13.6619 17.7327 13.6866V13.7606C17.7194 14.1112 17.706 14.8567 17.6971 15.1578C17.706 15.1924 17.7105 15.2319 17.7105 15.2714C17.7327 15.4837 17.7595 15.696 17.7951 15.9132C17.804 15.9873 17.8173 16.0564 17.8218 16.1304C17.8663 16.3576 17.9063 16.5896 17.9642 16.8216C17.9776 16.8957 17.9909 16.9698 18.0132 17.0487C18.071 17.2808 18.1334 17.5079 18.209 17.735C18.2313 17.8091 18.2536 17.8782 18.2803 17.9522C18.3515 18.1843 18.4361 18.4163 18.5295 18.6484C18.5562 18.7126 18.5785 18.7767 18.6097 18.836C18.712 19.0779 18.8189 19.3099 18.9391 19.542C18.9613 19.5914 18.988 19.6407 19.0192 19.6901C19.1483 19.9369 19.2774 20.1739 19.4287 20.4109C19.451 20.4455 19.4732 20.48 19.491 20.5146C19.6424 20.7565 19.8071 20.9886 19.9807 21.2206C19.994 21.2453 20.0163 21.265 20.0296 21.2897C20.2077 21.5267 20.3947 21.7587 20.595 21.9858C20.6172 22.0105 20.6395 22.0352 20.6617 22.0648C20.8131 22.2278 20.9644 22.3907 21.1202 22.5487L21.9259 23.3682L21.9704 23.4028L22.8474 24.1434C22.9675 24.247 23.1278 24.3853 23.3014 24.5136C23.475 24.6519 23.662 24.7852 23.8177 24.879C23.84 24.8938 23.8623 24.9086 23.889 24.9333C23.9157 24.953 23.9468 24.9728 23.9914 25.0024C24.3341 25.2493 25.0241 25.6936 25.7986 26.1922C25.99 26.3157 26.2882 26.4983 26.6087 26.7008C27.4812 27.2488 28.8834 27.2488 29.7648 26.7106L29.7826 26.7008C29.8493 26.6613 29.9117 26.6168 29.9784 26.5724C30.0051 26.5576 30.0274 26.5428 30.0585 26.528C31.4607 25.6442 32.8718 24.721 33.5351 24.1434L34.452 23.3781C34.7369 23.0917 35.3913 22.4055 35.6584 22.1389C35.8498 21.9068 36.2771 21.349 36.5442 21.0083L36.8558 20.5541C37.1095 20.1394 37.3677 19.7148 37.568 19.2902C37.6125 19.1964 37.6615 19.1026 37.6971 19.0088L38.0131 18.2534L38.0932 18.0609C38.0932 18.0609 38.1066 18.0214 38.1155 17.9967C38.1778 17.7646 38.2802 17.3795 38.3737 17.0537C38.387 16.9944 38.4004 16.9401 38.4182 16.8858C38.4449 16.7821 38.4761 16.6883 38.4983 16.6242C38.5072 16.5797 38.5117 16.5205 38.5206 16.4563C38.5651 16.1403 38.6363 15.6219 38.6764 15.306C38.6853 15.2516 38.6853 15.2023 38.6897 15.1628C38.6897 15.0986 38.6897 15.0048 38.6808 14.9061C38.6808 14.7036 38.6719 14.4469 38.6675 14.2099C38.6675 14.0026 38.6586 13.81 38.6541 13.6915C38.6274 13.494 38.5517 13.0941 38.4894 12.7436C38.4627 12.5757 38.4404 12.4276 38.4182 12.3141C38.4093 12.2845 38.4048 12.245 38.3959 12.2252C38.3737 12.1462 38.3381 12.0425 38.3025 11.924C38.1867 11.5439 38.0309 11.0156 37.9419 10.7688C37.7772 10.4429 37.617 10.0875 37.4612 9.74186C37.3899 9.60362 37.3232 9.47031 37.2608 9.34195C37.1407 9.16915 37.016 8.97167 36.878 8.75937C36.6065 8.31997 36.3038 7.83613 35.9878 7.50535L35.7919 7.26837L35.2622 6.61174L34.3942 5.7675C34.2784 5.649 34.1271 5.50089 33.9713 5.35278C33.7977 5.20467 33.6196 5.05162 33.4683 4.93806C31.8747 3.66429 29.9072 2.22266 28.2068 0.978516C28.9413 1.38336 29.7559 1.81289 30.5838 2.25229C31.661 2.82993 32.7739 3.43719 33.8021 4.05432C34.2206 4.30612 34.6212 4.55297 34.9996 4.80476C35.142 4.91832 35.4091 5.12073 35.6895 5.33797C36.0501 5.60951 36.4284 5.9008 36.6243 6.04891C38.1912 7.38192 39.3975 8.87786 40.2299 10.4577C40.5727 11.1045 40.8486 11.7759 41.0623 12.4474C41.0712 12.477 41.0846 12.5017 41.089 12.5313C41.0935 12.5609 41.1024 12.5906 41.1113 12.6152C41.5297 13.9878 41.6721 15.4047 41.5341 16.8118V16.8019Z" fill="#0A6DFE"/>
<path d="M21.0281 26.3307C20.9479 26.2764 20.8767 26.2221 20.8144 26.1678C20.6942 26.0789 20.5785 25.9851 20.4627 25.8962C20.3604 25.8172 20.2624 25.7382 20.1689 25.6543C19.7105 26.1134 19.1496 26.6812 18.6688 27.0317C17.0753 28.3154 15.0989 29.7669 13.3984 31.0012C15.4861 29.8558 18.1525 28.5326 20.2046 27.17C20.4004 27.0268 20.7921 26.7158 21.1661 26.4344H21.175C21.126 26.3949 21.0726 26.3603 21.0325 26.3257L21.0281 26.3307Z" fill="#0A6DFE"/>
<path d="M23.3066 24.5086C23.133 24.3753 22.9772 24.242 22.8525 24.1383L21.9801 23.4027C21.9801 23.4027 21.9801 23.3978 21.9801 23.3928C22.1492 23.1213 22.3095 22.8596 22.4564 22.6424C22.6923 22.1882 22.9104 21.6747 23.1374 21.2156C23.2443 20.8947 23.4802 20.0949 23.5959 19.7591C23.6538 19.4333 23.7962 18.6038 23.8541 18.2879C23.863 17.9719 23.8764 17.1375 23.8808 16.8166C23.636 14.2148 22.63 11.6228 20.4488 9.43073L19.652 8.60624L19.6075 8.57168L18.7306 7.83605C18.6104 7.73237 18.4502 7.59413 18.2766 7.46577C18.103 7.32753 17.916 7.19423 17.7602 7.10042C17.4308 6.84863 16.2111 6.06857 14.9692 5.28357C14.0923 4.73062 12.6723 4.73062 11.7954 5.28357C10.2997 6.21668 8.7462 7.22385 8.03844 7.84099L7.12146 8.61117C6.84102 8.89259 6.18667 9.57391 5.91514 9.84545C5.69257 10.1219 5.12725 10.8526 4.89578 11.1488C4.55302 11.7413 4.12124 12.3584 3.88532 12.9756L3.4847 13.9136C3.40012 14.2395 3.18201 15.0442 3.08408 15.3552C3.04847 15.6613 2.93273 16.5056 2.88822 16.8216C2.89712 17.1474 2.91492 17.9768 2.92383 18.2928C2.97279 18.6038 3.12414 19.4432 3.18201 19.7641C3.29774 20.0998 3.52476 20.8947 3.6405 21.2205C3.87197 21.6797 4.08563 22.1931 4.32156 22.6473C4.68657 23.1756 5.12725 23.9902 5.58574 24.474L5.7816 24.716C6.16887 25.1406 6.55614 25.5602 6.9434 25.9848L7.17933 26.2119C7.41525 26.4588 7.81142 26.8192 8.11411 27.0364C9.7077 28.3151 11.6841 29.7617 13.3934 31.0009C11.2968 29.8505 8.63937 28.5323 6.57839 27.1648C6.25344 26.913 5.30085 26.1922 4.96255 25.9256C1.37921 22.8695 -0.330113 18.9939 0.0527037 15.1627C0.155085 14.6295 0.23966 14.0469 0.36875 13.5186C0.506742 13.1385 0.80053 12.2696 0.951876 11.9042C1.22341 11.3957 1.49049 10.8279 1.77538 10.3293C2.02466 9.97381 2.59443 9.14438 2.8437 8.80866C3.27548 8.33964 3.71172 7.8163 4.14795 7.35715L5.17622 6.45366C7.30396 4.67137 9.99258 3.14581 12.4675 1.55113C12.9705 1.23022 13.794 1.22528 14.297 1.55113C16.3313 2.85452 18.5347 4.13323 20.4177 5.52549C20.7604 5.77728 21.0943 6.04389 21.4148 6.30555C21.4726 6.35492 21.5349 6.40429 21.5928 6.45366L22.6211 7.35715C23.0662 7.8163 23.5114 8.33963 23.9342 8.80372C24.5085 9.58872 25.1851 10.5465 25.559 11.3759C27.798 15.6811 26.8855 20.5984 23.2977 24.4987L23.3066 24.5086Z" fill="#0A6DFE"/>
<path d="M117.355 29.489V7.85965H121.94V15.0283H122.586V29.489H117.355ZM131.346 29.489V19.2742C131.346 18.7805 131.319 18.1485 131.27 17.3833C131.221 16.618 131.061 15.8429 130.799 15.0678C130.531 14.2927 130.1 13.6459 129.499 13.1226C128.898 12.6042 128.048 12.3425 126.948 12.3425C126.507 12.3425 126.031 12.4166 125.528 12.5647C125.021 12.7128 124.549 12.9942 124.108 13.4139C123.667 13.8335 123.302 14.4507 123.018 15.2653C122.733 16.0799 122.59 17.1611 122.59 18.509L119.635 17.0278C119.635 15.3196 119.964 13.715 120.618 12.2191C121.273 10.7232 122.265 9.51358 123.583 8.59528C124.901 7.67698 126.57 7.21289 128.577 7.21289C130.18 7.21289 131.489 7.49924 132.499 8.07194C133.509 8.64465 134.297 9.37534 134.858 10.2541C135.419 11.1329 135.82 12.0512 136.06 13.009C136.3 13.9619 136.443 14.8358 136.496 15.6208C136.545 16.4107 136.572 16.9834 136.572 17.3438V29.4792H131.342L131.346 29.489ZM143.115 29.489V19.2742C143.115 18.7805 143.089 18.1485 143.04 17.3833C142.991 16.618 142.831 15.8429 142.568 15.0678C142.301 14.2927 141.869 13.6459 141.268 13.1226C140.667 12.6042 139.817 12.3425 138.718 12.3425C138.277 12.3425 137.801 12.4166 137.298 12.5647C136.79 12.7128 136.318 12.9942 135.878 13.4139C135.437 13.8335 135.072 14.4507 134.787 15.2653C134.502 16.0799 134.36 17.1611 134.36 18.509L131.404 17.0278C131.404 15.3196 131.733 13.715 132.388 12.2191C133.042 10.7232 134.035 9.51358 135.352 8.59528C136.674 7.67204 138.339 7.21289 140.347 7.21289C141.949 7.21289 143.258 7.49924 144.268 8.07194C145.279 8.64465 146.067 9.37534 146.628 10.2541C147.188 11.1329 147.589 12.0512 147.829 13.009C148.07 13.9619 148.212 14.8358 148.266 15.6208C148.315 16.4107 148.341 16.9834 148.341 17.3438V29.4792H143.111L143.115 29.489Z" fill="#0A6DFE"/>
</svg>
