<svg width="10" height="8" viewBox="0 0 10 8" fill="none" xmlns="http://www.w3.org/2000/svg">
<path d="M7.51503 4.13375L7.51998 4.12382C7.60814 3.9468 7.77983 3.8467 7.91144 3.7878C8.04745 3.72692 8.19551 3.68688 8.29778 3.65923L8.30415 3.65751L8.30425 3.65748C8.35944 3.64257 8.40084 3.63127 8.43095 3.62109L8.43126 3.62099C8.54454 3.58286 8.61738 3.54779 8.66303 3.52023L8.6543 3.51846L8.64126 3.51429L8.63842 3.51339L8.63351 3.51182L8.63353 3.51177C8.60374 3.50157 8.57092 3.49607 8.53715 3.49618L8.53272 3.49619L8.53272 3.49615C8.51084 3.49583 8.48981 3.49925 8.47112 3.50553C8.29732 3.57935 8.10963 3.62321 7.91832 3.63549L7.90738 3.63619L7.90738 3.63595C7.76305 3.63889 7.61814 3.59901 7.49767 3.51771L7.37899 3.43761L7.38802 3.29472C7.39269 3.22097 7.39819 3.14525 7.40409 3.06627C7.4041 3.06613 7.40411 3.06599 7.40412 3.06585L7.40607 3.03874L7.40691 3.02699L7.40886 3.01537C7.49726 2.48757 7.46137 1.95003 7.30289 1.43339C7.11972 1.08749 6.81966 0.787841 6.43277 0.575454C6.03877 0.359166 5.57547 0.245005 5.10113 0.250168L5.10063 0.250173L4.89898 0.251787L4.89457 0.251818L4.89457 0.251779C4.42098 0.246794 3.95849 0.360964 3.56526 0.577078C3.17911 0.789308 2.87974 1.08864 2.69716 1.43408C2.53866 1.95025 2.50271 2.48733 2.59099 3.01468L2.59285 3.02575L2.5937 3.03694C2.60024 3.12271 2.60631 3.20852 2.6119 3.29437L2.62127 3.43838L2.50125 3.51852C2.37123 3.60534 2.21376 3.64514 2.05855 3.63635C1.85553 3.6286 1.65563 3.58427 1.4718 3.50526C1.46423 3.50289 1.45526 3.50146 1.44559 3.50164L1.43248 3.50189L1.43249 3.50155C1.39732 3.50037 1.36415 3.50698 1.33628 3.5188C1.40183 3.55871 1.48968 3.59438 1.56865 3.62096L1.56903 3.62109C1.5995 3.6314 1.64065 3.64262 1.69557 3.65743L1.69572 3.65747L1.70209 3.6592C1.8043 3.68683 1.95238 3.72687 2.08843 3.78776C2.22006 3.84666 2.39187 3.94681 2.48002 4.12394L2.48497 4.13388L2.48902 4.14423C2.52888 4.24611 2.54261 4.35573 2.52808 4.46451C2.51433 4.56739 2.47603 4.66429 2.41817 4.74935C2.26897 5.0242 2.07631 5.27865 1.84655 5.50578C1.49304 5.87915 1.02528 6.15019 0.504898 6.29369C0.697522 6.35455 0.970453 6.41041 1.32418 6.45691L1.32429 6.45692C1.48954 6.47871 1.56694 6.60681 1.59894 6.6751C1.63196 6.74557 1.65487 6.83359 1.6739 6.90773L1.67392 6.90782C1.68324 6.9442 1.6919 6.9779 1.70118 7.01053C1.73843 7.00672 1.77538 7.00119 1.81184 6.99395L1.81481 6.99336L1.81482 6.99338C2.01332 6.95647 2.21556 6.93699 2.41845 6.93517L2.42121 6.93514C2.56818 6.93546 2.71492 6.94603 2.85999 6.96677L2.86873 6.96802L2.87735 6.96988C3.19081 7.03756 3.48487 7.16497 3.73718 7.34476L3.73921 7.3462L3.7392 7.34621C4.07188 7.5883 4.49468 7.73226 4.94134 7.74998C4.95148 7.7499 4.96072 7.74955 4.96891 7.74895L4.98299 7.74793L4.99709 7.7485C5.01486 7.74922 5.03637 7.7499 5.05835 7.74999C5.50537 7.7322 5.9285 7.58814 6.26151 7.34588L6.26349 7.34444L6.2635 7.34445C6.51559 7.16481 6.80941 7.03752 7.12259 6.96993L7.13125 6.96806L7.14001 6.96681C7.28508 6.94611 7.43181 6.93555 7.57876 6.93521L7.58033 6.9352C7.78289 6.93601 7.98494 6.95424 8.18345 6.98967L8.18534 6.99001C8.22298 6.99703 8.26112 7.00216 8.29954 7.00536C8.30863 6.97379 8.31717 6.94124 8.32618 6.90605C8.32619 6.90602 8.3262 6.906 8.3262 6.90597L8.5684 6.96796C8.6088 6.8099 8.63834 6.71336 8.70844 6.70413L7.51503 4.13375ZM7.51503 4.13375L7.51098 4.14408C7.47107 4.24597 7.45731 4.35562 7.47186 4.46443C7.48552 4.56661 7.52342 4.6629 7.58066 4.74752L7.51503 4.13375ZM8.35202 7.25867C8.28053 7.25647 8.20941 7.24881 8.13952 7.23578C7.95527 7.2029 7.76759 7.18595 7.57934 7.18521L8.51145 7.16451C8.5045 7.19284 8.48566 7.21803 8.45846 7.23537C8.43126 7.2527 8.39757 7.26099 8.36371 7.25867H8.35202ZM8.35202 7.25867V7.12539V7.10945V7.06837V7.0121L8.35605 7.00867H8.36371H8.37227L8.38081 7.00925C8.37544 7.00888 8.36971 7.009 8.36371 7.00978C8.36237 7.00996 8.36102 7.01016 8.35965 7.01041L8.3576 7.07712L8.35656 7.11102L8.35609 7.12639L8.35202 7.25867ZM0.000189358 6.23158C0.00150131 6.25062 0.00674846 6.26932 0.0156894 6.28681M0.000189358 6.23158L0.0937955 6.2254L0.0156894 6.28681M0.000189358 6.23158C-0.0014719 6.20641 0.00784308 6.18161 0.0263434 6.16195C0.0448437 6.14228 0.0712232 6.12913 0.10041 6.12504L0.239129 6.1747C0.24466 6.18604 0.248573 6.19952 0.249598 6.2144L0.145755 6.22155L0.142982 6.22174L0.115626 6.22363L0.114257 6.22372L0.093529 6.22515L0.000189358 6.23158ZM0.0156894 6.28681C0.10358 6.46198 0.544802 6.60661 1.2916 6.70477L0.0156894 6.28681Z" stroke="black" stroke-width="0.5"/>
</svg>
