<svg width="25" height="25" viewBox="0 0 25 25" fill="none" xmlns="http://www.w3.org/2000/svg">
<path d="M9.20325 8.81254C9.159 7.89213 9.48097 6.99164 10.0988 6.30796C10.7166 5.62427 11.58 5.21301 12.5001 5.1641C13.4203 5.21301 14.2837 5.62427 14.9015 6.30796C15.5193 6.99164 15.8413 7.89213 15.797 8.81254C15.8397 9.73178 15.517 10.6306 14.8993 11.3127C14.2816 11.9948 13.4191 12.4048 12.5001 12.4532C11.5812 12.4048 10.7187 11.9948 10.101 11.3127C9.48325 10.6306 9.16052 9.73178 9.20325 8.81254ZM23.4689 12.5C23.4722 14.6775 22.8217 16.8058 21.6017 18.6094C21.5697 18.6645 21.5332 18.7168 21.4923 18.7657C20.4843 20.2171 19.14 21.403 17.5741 22.222C16.0082 23.041 14.2673 23.4688 12.5001 23.4688C10.733 23.4688 8.9921 23.041 7.4262 22.222C5.8603 21.403 4.51593 20.2171 3.50794 18.7657C3.4671 18.7168 3.43051 18.6645 3.39856 18.6094C2.44349 17.1868 1.83508 15.5602 1.62213 13.86C1.40918 12.1598 1.59761 10.4333 2.17232 8.81912C2.74703 7.2049 3.69202 5.74782 4.93149 4.56473C6.17097 3.38165 7.67045 2.50548 9.30966 2.00651C10.9489 1.50753 12.6822 1.39964 14.3707 1.69147C16.0591 1.9833 17.6557 2.66674 19.0323 3.68697C20.4089 4.70721 21.5273 6.03585 22.2978 7.56633C23.0682 9.09682 23.4693 10.7866 23.4689 12.5ZM2.70325 12.5C2.70032 14.1645 3.12251 15.8022 3.92981 17.2578C5.62513 15.0313 8.87513 13.6407 12.5001 13.6407C16.1251 13.6407 19.3751 15.0313 21.0704 17.2578C21.7964 15.9498 22.2133 14.4929 22.2891 12.9989C22.3649 11.5048 22.0976 10.0132 21.5077 8.63845C20.9179 7.26367 20.021 6.04219 18.886 5.06765C17.751 4.09312 16.4079 3.39138 14.9597 3.01625C13.5116 2.64111 11.9967 2.60253 10.5313 2.90346C9.06588 3.20438 7.68882 3.83684 6.50567 4.75233C5.32252 5.66783 4.36468 6.84206 3.70558 8.18503C3.04648 9.528 2.70361 11.004 2.70325 12.5Z" fill="black"/>
</svg>
