<svg width="90" height="90" viewBox="0 0 90 90" fill="none" xmlns="http://www.w3.org/2000/svg">
<path d="M48 6.00002C50.9922 7.96877 50.9922 7.96877 53.875 10.5C54.8418 11.3353 55.8086 12.1706 56.8047 13.0313C57.5291 13.681 58.2536 14.3306 59 15C59.33 13.02 59.66 11.04 60 9.00002C62.97 9.00002 65.94 9.00002 69 9.00002C68.9446 9.97842 68.8891 10.9568 68.832 11.9649C68.605 20.0633 68.605 20.0633 72.5156 26.7891C75.5073 29.0876 75.5073 29.0876 78.6289 30.9727C81 33 81 33 81.3398 36.2461C81.2277 37.1549 81.1155 38.0637 81 39C79.02 39 77.04 39 75 39C75.0105 40.1104 75.0209 41.2208 75.0317 42.3648C75.0679 46.4759 75.0909 50.587 75.1099 54.6983C75.1199 56.4792 75.1336 58.2601 75.1509 60.041C75.1751 62.5977 75.1865 65.1542 75.1953 67.711C75.2056 68.51 75.216 69.309 75.2266 70.1322C75.227 72.0896 75.1224 74.0465 75 76C72.3919 78.6081 71.2962 78.2529 67.6641 78.2588C66.5495 78.2651 65.435 78.2714 64.2866 78.2779C62.4741 78.2718 62.4741 78.2718 60.625 78.2656C58.7719 78.2685 58.7719 78.2685 56.8813 78.2714C53.5941 78.2732 50.307 78.2651 47.0198 78.2539C45.0021 78.25 42.9845 78.2539 40.9668 78.2608C37.1028 78.2731 33.239 78.2716 29.375 78.2656C28.1667 78.2697 26.9583 78.2737 25.7134 78.2779C24.5988 78.2716 23.4843 78.2653 22.3359 78.2588C21.3516 78.2572 20.3672 78.2556 19.353 78.254C17 78 17 78 15 76C14.8247 73.2032 14.7686 70.5067 14.8047 67.711C14.8089 66.4833 14.8089 66.4833 14.8133 65.2309C14.8245 62.6121 14.8496 59.9937 14.875 57.375C14.885 55.6016 14.8942 53.8282 14.9023 52.0547C14.9244 47.703 14.959 43.3516 15 39C13.02 39 11.04 39 9 39C8.61719 36.3203 8.61719 36.3203 9 33C11.0278 30.9722 12.8051 29.4929 15.125 27.875C16.4099 26.9263 17.6923 25.9744 18.9727 25.0196C19.6367 24.5292 20.3007 24.0389 20.9849 23.5337C24.2955 21.014 27.4261 18.2939 30.5625 15.5625C32.2121 14.1291 33.8619 12.6968 35.5239 11.2779C36.8851 10.0995 38.2083 8.87766 39.5273 7.65237C42.7031 5.53015 44.2454 5.34704 48 6.00002ZM36 48C36 55.92 36 63.84 36 72C41.94 72 47.88 72 54 72C54 64.08 54 56.16 54 48C48.06 48 42.12 48 36 48Z" fill="#1D2C4A"/>
</svg>
