<svg width="21" height="21" viewBox="0 0 21 21" fill="none" xmlns="http://www.w3.org/2000/svg">
<path d="M20.2972 15.5759C17.431 15.073 16.1463 11.9529 16.0932 11.8204L16.0878 11.8079C16.0064 11.6661 15.955 11.5071 15.9374 11.3419C15.9197 11.1768 15.9361 11.0095 15.9856 10.8519C16.1781 10.3687 16.8149 10.1535 17.2369 10.0108C17.3423 9.97519 17.4419 9.94152 17.5201 9.9085C18.2828 9.58761 18.4379 9.2554 18.4341 9.03306C18.4141 8.89439 18.3557 8.76523 18.2664 8.6621C18.1771 8.55896 18.0609 8.48653 17.9328 8.45407L17.9271 8.45181C17.8138 8.40332 17.6928 8.37864 17.5708 8.37912C17.4633 8.37716 17.3566 8.3997 17.2579 8.44523C16.9601 8.60565 16.6355 8.70197 16.3026 8.72869C16.1108 8.73356 15.9235 8.66677 15.7731 8.53989C15.7823 8.3589 15.7931 8.17218 15.8049 7.97488L15.8089 7.90532C16.0012 6.47023 15.9192 5.00855 15.568 3.60803C15.1538 2.60248 14.4708 1.74911 13.6042 1.15443C12.7376 0.559752 11.7257 0.250103 10.6949 0.264128C10.5608 0.265619 10.4266 0.266961 10.2925 0.268154C9.26312 0.254611 8.25284 0.564329 7.38775 1.15864C6.52267 1.75295 5.84111 2.60552 5.42817 3.6099C5.07692 5.00918 4.99486 6.46964 5.1869 7.90356C5.19984 8.11568 5.21184 8.32789 5.2229 8.5402C5.05718 8.67851 4.84909 8.74625 4.63909 8.73023C4.28574 8.71413 3.93984 8.61684 3.62509 8.44503C3.5479 8.4087 3.46415 8.3909 3.37979 8.39289C3.206 8.38561 3.03442 8.43638 2.88907 8.53811C2.74372 8.63984 2.63187 8.78744 2.56917 8.96024C2.48726 9.4189 3.10208 9.75117 3.47586 9.90843C3.55486 9.94184 3.65408 9.97532 3.75894 10.0107C4.18063 10.1532 4.81802 10.3686 5.01046 10.852C5.05983 11.0097 5.07626 11.177 5.0586 11.3422C5.04095 11.5074 4.98963 11.6664 4.90823 11.8083L4.90286 11.8206C4.62654 12.4614 4.2666 13.0574 3.83371 13.591C3.04716 14.633 1.93409 15.338 0.698866 15.5763C0.640493 15.5865 0.587734 15.6194 0.550734 15.6685C0.513733 15.7177 0.495103 15.7797 0.498426 15.8426C0.50105 15.8902 0.511544 15.937 0.529426 15.9807C0.705206 16.4186 1.58765 16.7802 3.08126 17.0256C3.2209 17.0486 3.27999 17.2911 3.36153 17.6883C3.39412 17.8474 3.42787 18.0124 3.47493 18.1828C3.49029 18.2584 3.53147 18.3251 3.59046 18.3701C3.64945 18.4152 3.72205 18.4352 3.79415 18.4265C3.93728 18.4179 4.07945 18.3962 4.21907 18.3616C4.58723 18.276 4.96264 18.2308 5.33944 18.2266C5.61012 18.2273 5.88029 18.2516 6.14724 18.2993C6.71127 18.4515 7.2359 18.737 7.68225 19.1346C8.43557 19.8198 9.38228 20.2172 10.372 20.2637C10.4057 20.2637 10.4394 20.2624 10.472 20.2594C10.5132 20.2615 10.5673 20.2637 10.624 20.2637C11.6142 20.2169 12.5614 19.8193 13.3152 19.1338C13.7611 18.7366 14.2852 18.4514 14.8487 18.2994C15.1157 18.2518 15.386 18.2275 15.6567 18.2267C16.0332 18.2286 16.4086 18.2709 16.7771 18.3531C16.9169 18.3857 17.0591 18.4049 17.2021 18.4103H17.2255C17.2932 18.4161 17.3606 18.3954 17.415 18.3521C17.4694 18.3088 17.507 18.2458 17.5209 18.1749C17.5674 18.0068 17.6014 17.8469 17.6348 17.6836C17.7156 17.2884 17.7747 17.0471 17.9149 17.024C19.4089 16.7782 20.2913 16.4171 20.4659 15.9817C20.4841 15.9375 20.4949 15.8904 20.4977 15.8423C20.5009 15.7794 20.4823 15.7174 20.4453 15.6683C20.4083 15.6191 20.3556 15.5862 20.2972 15.5759Z" fill="black"/>
</svg>
