<svg width="14" height="13" viewBox="0 0 14 13" fill="none" xmlns="http://www.w3.org/2000/svg">
<path d="M13.5314 9.61771C11.6206 9.32257 10.7642 7.49178 10.7288 7.41404L10.7252 7.40671C10.6709 7.32351 10.6366 7.23019 10.6249 7.13329C10.6131 7.03638 10.6241 6.93824 10.657 6.84572C10.7853 6.56222 11.2099 6.43591 11.4912 6.35218C11.5615 6.33131 11.6279 6.31156 11.68 6.29218C12.1885 6.10389 12.2919 5.90896 12.2894 5.77849C12.276 5.69712 12.2371 5.62134 12.1775 5.56082C12.118 5.5003 12.0406 5.4578 11.9551 5.43876L11.9514 5.43742C11.8758 5.40898 11.7952 5.39449 11.7138 5.39477C11.6421 5.39362 11.571 5.40685 11.5052 5.43357C11.3067 5.5277 11.0903 5.58422 10.8684 5.59989C10.7405 5.60275 10.6156 5.56356 10.5154 5.48911C10.5215 5.38291 10.5287 5.27335 10.5366 5.15757L10.5392 5.11676C10.6674 4.27468 10.6128 3.417 10.3786 2.59521C10.1025 2.00517 9.64718 1.50443 9.06942 1.15549C8.49167 0.806546 7.81709 0.624851 7.12988 0.63308C7.04048 0.633955 6.95106 0.634743 6.86161 0.635443C6.17539 0.627496 5.50187 0.809231 4.92515 1.15796C4.34843 1.50669 3.89406 2.00696 3.61876 2.59631C3.3846 3.41737 3.32989 4.27434 3.45792 5.11572C3.46654 5.24019 3.47454 5.36471 3.48192 5.48929C3.37144 5.57045 3.23272 5.6102 3.09272 5.6008C2.85715 5.59135 2.62655 5.53426 2.41672 5.43345C2.36526 5.41213 2.30943 5.40169 2.25318 5.40286C2.13732 5.39858 2.02294 5.42837 1.92604 5.48807C1.82914 5.54776 1.75457 5.63437 1.71278 5.73576C1.65817 6.00489 2.06804 6.19986 2.31723 6.29214C2.3699 6.31174 2.43604 6.33139 2.50595 6.35214C2.78708 6.43579 3.212 6.56217 3.3403 6.84579C3.37321 6.93834 3.38416 7.0365 3.37239 7.13343C3.36062 7.23035 3.3264 7.3237 3.27214 7.40694L3.26856 7.41415C3.08435 7.79017 2.84439 8.1399 2.5558 8.45297C2.03143 9.06444 1.28939 9.47806 0.46591 9.6179C0.426995 9.62391 0.391823 9.64319 0.367156 9.67204C0.342489 9.70089 0.330069 9.73727 0.332284 9.77419C0.334033 9.80212 0.341029 9.82955 0.35295 9.85521C0.470137 10.1122 1.05843 10.3243 2.05416 10.4683C2.14726 10.4818 2.18665 10.6241 2.24101 10.8572C2.26274 10.9505 2.28524 11.0474 2.31661 11.1474C2.32685 11.1917 2.3543 11.2309 2.39363 11.2573C2.43296 11.2837 2.48135 11.2955 2.52942 11.2903C2.62484 11.2853 2.71962 11.2726 2.8127 11.2523C3.05814 11.2021 3.30841 11.1755 3.55961 11.173C3.74006 11.1734 3.92018 11.1877 4.09814 11.2157C4.47416 11.305 4.82391 11.4725 5.12148 11.7058C5.62369 12.1079 6.25483 12.3411 6.91461 12.3684C6.93711 12.3684 6.95957 12.3676 6.98134 12.3659C7.00876 12.3671 7.04482 12.3684 7.08262 12.3684C7.74276 12.3409 8.37422 12.1076 8.87676 11.7054C9.17404 11.4723 9.52345 11.305 9.8991 11.2158C10.0771 11.1878 10.2573 11.1736 10.4378 11.1731C10.6888 11.1742 10.939 11.1991 11.1847 11.2473C11.2779 11.2664 11.3727 11.2776 11.468 11.2809H11.4836C11.5287 11.2843 11.5737 11.2721 11.6099 11.2467C11.6462 11.2213 11.6713 11.1843 11.6806 11.1427C11.7115 11.0441 11.7342 10.9502 11.7565 10.8544C11.8104 10.6225 11.8498 10.4809 11.9432 10.4674C12.9392 10.3231 13.5275 10.1113 13.6439 9.85577C13.656 9.82989 13.6632 9.8022 13.6651 9.77399C13.6672 9.73708 13.6548 9.70072 13.6301 9.67188C13.6055 9.64304 13.5703 9.62375 13.5314 9.61771Z" fill="#148EFF"/>
</svg>
