<svg width="13" height="17" viewBox="0 0 13 17" fill="none" xmlns="http://www.w3.org/2000/svg">
<path d="M6.8125 2.0625C5.62581 2.0625 4.46578 2.41439 3.47908 3.07368C2.49239 3.73297 1.72335 4.67004 1.26923 5.7664C0.8151 6.86276 0.69628 8.06915 0.927791 9.23304C1.1593 10.3969 1.73075 11.466 2.56986 12.3051C3.40898 13.1443 4.47807 13.7157 5.64196 13.9472C6.80585 14.1787 8.01225 14.0599 9.1086 13.6058C10.205 13.1516 11.142 12.3826 11.8013 11.3959C12.4606 10.4092 12.8125 9.24919 12.8125 8.0625C12.8125 6.4712 12.1804 4.94508 11.0551 3.81986C9.92992 2.69464 8.4038 2.0625 6.8125 2.0625ZM6.8125 13.2054C5.79534 13.2054 4.80102 12.9037 3.95528 12.3386C3.10955 11.7735 2.45037 10.9703 2.06112 10.0306C1.67187 9.09085 1.57003 8.05679 1.76846 7.05918C1.9669 6.06156 2.45671 5.14519 3.17595 4.42595C3.89519 3.70671 4.81156 3.2169 5.80918 3.01846C6.8068 2.82002 7.84085 2.92187 8.78059 3.31112C9.72032 3.70037 10.5235 4.35954 11.0886 5.20528C11.6537 6.05102 11.9554 7.04534 11.9554 8.0625C11.9554 9.42647 11.4135 10.7346 10.449 11.699C9.48458 12.6635 8.17647 13.2054 6.8125 13.2054Z" fill="#00CD2D"/>
<path d="M9.93631 5.61432L5.95488 9.60003L3.68774 7.32861C3.60703 7.2479 3.49758 7.20257 3.38345 7.20257C3.26932 7.20257 3.15987 7.2479 3.07916 7.32861C2.99846 7.40931 2.95312 7.51876 2.95312 7.63289C2.95312 7.6894 2.96426 7.74536 2.98588 7.79757C3.00751 7.84978 3.0392 7.89722 3.07916 7.93718L5.65059 10.5086C5.69043 10.5488 5.73783 10.5807 5.79006 10.6024C5.84228 10.6242 5.8983 10.6354 5.95488 10.6354C6.01145 10.6354 6.06747 10.6242 6.1197 10.6024C6.17192 10.5807 6.21932 10.5488 6.25916 10.5086L10.5449 6.22289C10.5848 6.18293 10.6165 6.13549 10.6382 6.08328C10.6598 6.03108 10.6709 5.97512 10.6709 5.91861C10.6709 5.86209 10.6598 5.80614 10.6382 5.75393C10.6165 5.70172 10.5848 5.65428 10.5449 5.61432C10.5049 5.57436 10.4575 5.54266 10.4053 5.52104C10.3531 5.49941 10.2971 5.48828 10.2406 5.48828C10.1841 5.48828 10.1281 5.49941 10.0759 5.52104C10.0237 5.54266 9.97627 5.57436 9.93631 5.61432Z" fill="#00CD2D"/>
</svg>
