<svg width="8" height="8" viewBox="0 0 8 8" fill="none" xmlns="http://www.w3.org/2000/svg">
<path d="M3.1 3.98415C2.88655 3.95856 2.66855 3.971 2.45869 4.02178C2.14046 4.09879 1.85209 4.26138 1.63475 4.49223C1.41703 4.7235 1.28105 5.01256 1.25115 5.32147C1.22122 5.63061 1.29965 5.93821 1.47172 6.2019C1.64339 6.46498 1.89876 6.67026 2.19923 6.79476C2.49961 6.91922 2.83407 6.95856 3.1585 6.90887C3.48295 6.85917 3.78616 6.72208 4.02594 6.51189C4.26607 6.3014 4.43192 6.02661 4.49482 5.72241L4.5 5.69736V5.67179V0.255414L5.49862 0.276811C5.54145 0.801672 5.7724 1.29792 6.1534 1.69292L6.15314 1.69316L6.16285 1.70221C6.54385 2.05744 7.08999 2.24054 7.75 2.27654V3.18015C7.07825 3.16234 6.42368 2.98714 5.85427 2.67241L5.48333 2.46738V2.89121V5.14075V5.15815L5.48574 5.17539C5.49865 5.26766 5.50527 5.36049 5.50556 5.45339C5.50546 5.90025 5.35588 6.3401 5.07104 6.7174C4.78575 7.09529 4.3769 7.394 3.89301 7.57139C3.40905 7.74882 2.87509 7.79558 2.3597 7.70484C1.84432 7.61411 1.37456 7.39071 1.00857 7.06679C0.642885 6.74313 0.398006 6.33464 0.299213 5.89506C0.200514 5.4559 0.250786 5.00028 0.445489 4.58425C0.640465 4.16764 0.973084 3.80655 1.40623 3.5504C1.8395 3.29417 2.35163 3.15599 2.87763 3.15596C2.95189 3.15609 3.02608 3.15891 3.1 3.16438V3.98415Z" stroke="black" stroke-width="0.5"/>
</svg>
