<svg width="20" height="21" viewBox="0 0 20 21" fill="none" xmlns="http://www.w3.org/2000/svg">
<path d="M20 8.79477V5.30368C18.1528 5.30368 16.7431 4.86729 15.8333 4.0191C14.8996 3.05109 14.3766 1.82522 14.3542 0.552603V0.300605L10.625 0.220703V14.4002C10.4971 15.0188 10.1578 15.5879 9.65288 16.0304C9.14799 16.473 8.50182 16.7678 7.80162 16.8751C7.10142 16.9823 6.3809 16.8969 5.73733 16.6302C5.09375 16.3635 4.55811 15.9285 4.20272 15.3839C3.84733 14.8393 3.6893 14.2112 3.74996 13.5846C3.81062 12.958 4.08706 12.3629 4.54194 11.8797C4.99684 11.3965 5.60828 11.0485 6.29372 10.8826C6.97917 10.7167 7.70562 10.741 8.375 10.9521V7.57166C7.98472 7.51506 7.58993 7.48628 7.19445 7.48561C5.77152 7.48561 4.38055 7.85906 3.19743 8.55873C2.01431 9.25841 1.09218 10.2529 0.547647 11.4164C0.00311712 12.5799 -0.139357 13.8602 0.138242 15.0954C0.415842 16.3306 1.10105 17.4652 2.10721 18.3557C3.11337 19.2462 4.39529 19.8527 5.79088 20.0984C7.18646 20.344 8.63303 20.2179 9.94764 19.736C11.2623 19.2541 12.3859 18.4379 13.1764 17.3908C13.9669 16.3436 14.3889 15.1125 14.3889 13.8532C14.3881 13.5922 14.3696 13.3315 14.3333 13.0726V7.44873C16.029 8.386 18.0019 8.85463 20 8.79477Z" fill="black"/>
</svg>
