<svg width="12" height="13" viewBox="0 0 12 13" fill="none" xmlns="http://www.w3.org/2000/svg">
<path d="M12 5.67891V3.66724C10.8917 3.66724 10.0458 3.41578 9.5 2.92703C8.93979 2.36924 8.62593 1.66285 8.6125 0.929531V0.784323L6.375 0.738281V8.90891C6.29825 9.2654 6.09466 9.59329 5.79173 9.84831C5.48879 10.1033 5.1011 10.2732 4.68098 10.335C4.26086 10.3968 3.82854 10.3476 3.4424 10.1939C3.05625 10.0403 2.73487 9.78959 2.52163 9.47576C2.3084 9.16193 2.21358 8.80004 2.24997 8.43895C2.28637 8.07787 2.45223 7.73497 2.72517 7.45654C2.9981 7.17812 3.36497 6.97758 3.77624 6.88199C4.1875 6.78641 4.62337 6.80038 5.025 6.92203V4.97411C4.79083 4.9415 4.55396 4.92492 4.31667 4.92453C3.46291 4.92453 2.62833 5.13972 1.91846 5.5429C1.20858 5.94607 0.655307 6.51912 0.328589 7.18957C0.00187027 7.86002 -0.083614 8.59777 0.0829455 9.30952C0.249505 10.0213 0.660628 10.675 1.26432 11.1882C1.86802 11.7013 2.63718 12.0508 3.47453 12.1924C4.31188 12.3339 5.17982 12.2613 5.96859 11.9836C6.75735 11.7059 7.43152 11.2356 7.90585 10.6322C8.38017 10.0288 8.63334 9.31939 8.63334 8.5937C8.63287 8.44333 8.62174 8.29313 8.6 8.14391V4.90328C9.61743 5.44337 10.8012 5.7134 12 5.67891Z" fill="#148EFF"/>
</svg>
