<svg width="10" height="9" viewBox="0 0 10 9" fill="none" xmlns="http://www.w3.org/2000/svg">
<path d="M9 1.00392C8.65178 1.26743 8.26622 1.46898 7.85818 1.60079C7.63918 1.33064 7.34812 1.13917 7.02438 1.05227C6.70063 0.965365 6.35982 0.987224 6.04803 1.11489C5.73624 1.24256 5.46852 1.46987 5.28108 1.76609C5.09364 2.0623 4.99553 2.41313 5 2.77112V3.16123C4.36096 3.179 3.72774 3.02696 3.15673 2.71863C2.58572 2.4103 2.09466 1.95526 1.72727 1.39403C1.72727 1.39403 0.272727 4.90502 3.54545 6.46546C2.79656 7.01081 1.90442 7.28427 1 7.24567C4.27273 9.19622 8.27273 7.24567 8.27273 2.75942C8.27239 2.65075 8.26265 2.54236 8.24364 2.43562C8.61477 2.04298 8.87666 1.54723 9 1.00392Z" stroke="black" stroke-width="0.5" stroke-linecap="round" stroke-linejoin="round"/>
</svg>
