<svg width="15" height="11" viewBox="0 0 15 11" fill="none" xmlns="http://www.w3.org/2000/svg">
<path d="M15 1.31787C14.4363 1.53819 13.8401 1.68384 13.23 1.75027C13.8736 1.4039 14.356 0.858978 14.5875 0.216606C13.9827 0.540948 13.3206 0.769467 12.63 0.89223C12.1684 0.441299 11.5537 0.141136 10.8824 0.0388158C10.211 -0.0635041 9.52091 0.0378071 8.92034 0.32686C8.31978 0.615914 7.8427 1.07636 7.56393 1.63598C7.28516 2.19561 7.22047 2.82275 7.38 3.41907C6.15707 3.36335 4.96083 3.07649 3.86899 2.57715C2.77715 2.0778 1.81413 1.37712 1.0425 0.520637C0.771853 0.946394 0.629639 1.42856 0.63 1.91918C0.62904 2.37481 0.753163 2.82358 0.991316 3.22554C1.22947 3.62751 1.57426 3.97018 1.995 4.22306C1.50598 4.21107 1.02741 4.09287 0.6 3.87849V3.91227C0.603665 4.55067 0.851996 5.16832 1.30299 5.66077C1.75398 6.15321 2.37994 6.49022 3.075 6.61477C2.80744 6.68812 2.52966 6.7268 2.25 6.72963C2.05642 6.72759 1.86332 6.71178 1.6725 6.68234C1.87043 7.23149 2.25347 7.71141 2.76831 8.05531C3.28315 8.39922 3.90418 8.59 4.545 8.60111C3.4629 9.36812 2.12691 9.78673 0.75 9.79021C0.499301 9.79095 0.248802 9.77741 0 9.74967C1.40582 10.5674 3.04411 11.0014 4.7175 10.9996C5.87227 11.0104 7.01785 10.8138 8.08734 10.4213C9.15682 10.0288 10.1288 9.44827 10.9464 8.7136C11.764 7.97893 12.411 7.10486 12.8494 6.14245C13.2879 5.18003 13.509 4.14856 13.5 3.10828C13.5 2.99342 13.5 2.87181 13.5 2.7502C14.0885 2.35483 14.5961 1.87015 15 1.31787Z" fill="#148EFF"/>
</svg>
