<svg width="20" height="20" viewBox="0 0 20 20" fill="none" xmlns="http://www.w3.org/2000/svg">
<path d="M11.8518 16.4335C11.2284 17.3123 10.4731 18.1835 9.59082 19.0472C9.78126 19.0168 9.97171 18.9807 10.1573 18.939C10.6668 18.8194 11.1551 18.6448 11.6288 18.4056C11.8697 18.2841 12.1041 18.1532 12.3287 18.0108L12.3466 18.0716C12.4329 18.3582 12.5468 18.5954 12.6819 18.7852C12.4345 18.9409 12.1806 19.0851 11.9202 19.2142C11.396 19.478 10.8556 19.6697 10.2989 19.8026C9.74383 19.9355 9.1676 20 8.57509 20C7.98258 20 7.41286 19.9336 6.85128 19.8026C6.30109 19.6773 5.77044 19.4856 5.25118 19.2275C5.2463 19.2275 5.23653 19.2218 5.23002 19.2161C4.71565 18.958 4.22732 18.6467 3.76829 18.2917C3.31088 17.9387 2.88929 17.5306 2.50188 17.0808C2.11122 16.6309 1.76613 16.1393 1.46336 15.6041C1.15409 15.0707 0.892017 14.4994 0.670641 13.8996C0.444381 13.2884 0.279976 12.6583 0.166032 12.0091C0.0569719 11.3619 0 10.6899 0 10.0009C0 9.31195 0.0569719 8.64572 0.169288 7.99089C0.276721 7.34934 0.442753 6.73057 0.662502 6.12508C0.662502 6.11939 0.667385 6.108 0.672269 6.10041C0.893645 5.49492 1.1606 4.93119 1.46499 4.39594C1.76776 3.86258 2.11773 3.37098 2.50351 2.91924C2.88929 2.4637 3.31088 2.06131 3.76991 1.70827C4.22732 1.34763 4.71727 1.04204 5.23165 0.783904C5.75579 0.520072 6.29621 0.328367 6.85291 0.195502C7.40798 0.0664326 7.98421 0 8.57672 0C9.16922 0 9.73894 0.0664326 10.3005 0.1974C10.8507 0.322672 11.3814 0.514378 11.9006 0.772516C11.9055 0.772516 11.9153 0.77821 11.9218 0.783904C12.4362 1.04204 12.9245 1.35333 13.3835 1.70827C13.8409 2.06131 14.2625 2.46939 14.6499 2.91924C15.0406 3.36908 15.3857 3.86068 15.6884 4.39594C15.9977 4.9293 16.2598 5.50062 16.4812 6.10041C16.7074 6.71159 16.8718 7.34175 16.9858 7.99089C16.9923 8.02885 16.9988 8.06681 17.0053 8.10477L16.1735 7.76312C16.0775 7.31328 15.9521 6.87672 15.7926 6.44965C15.664 6.09661 15.5192 5.76065 15.3613 5.43608H12.8464C13.0433 5.82898 13.2159 6.21999 13.364 6.61099L12.3548 6.19721C12.2359 5.94477 12.1073 5.69042 11.9674 5.43608H10.4975C10.3249 5.37345 10.1394 5.35826 9.95869 5.39053C9.90172 5.40192 9.84475 5.4171 9.78778 5.43608H8.9511V9.56249H9.77638L10.0401 10.4375H8.9511V14.5639H11.287L11.5506 15.4389H8.9511V18.5252C10.0108 17.5116 10.88 16.4867 11.5572 15.4617L11.8518 16.4335ZM18.2798 17.6141C18.1545 17.7451 17.9608 17.747 17.8469 17.6141L15.5712 14.9758L14.492 17.4794C14.1665 18.2348 13.587 18.5764 13.3135 17.673L10.0401 6.83306C9.97334 6.61099 10.0531 6.52178 10.2419 6.5996L19.5365 10.4147C20.3113 10.7336 20.0167 11.4093 19.3705 11.7889L17.2234 13.0474L19.486 15.699C19.5983 15.8318 19.5983 16.0596 19.486 16.2039L18.2798 17.6141ZM7.5675 19.0472C6.35318 17.859 5.3814 16.6594 4.6603 15.4427H2.28864C2.5149 15.8034 2.76721 16.1393 3.03904 16.4563C3.3939 16.8701 3.7748 17.2364 4.19151 17.561C4.60333 17.8855 5.05097 18.1665 5.53442 18.4075C5.54093 18.4113 5.54581 18.4113 5.55069 18.417C6.01949 18.6448 6.50294 18.8251 7.00592 18.939C7.19148 18.9807 7.38193 19.0168 7.57238 19.0472H7.5675ZM1.79543 14.5658H4.18337C3.51924 13.2106 3.1595 11.8307 3.11881 10.4394H0.761796C0.782957 10.9196 0.828534 11.3808 0.906667 11.8364C1.00922 12.4305 1.15897 12.9999 1.36407 13.5522C1.49266 13.9053 1.63591 14.2412 1.79543 14.5658ZM0.761796 9.56249H3.13346C3.22136 8.19398 3.61202 6.82168 4.30708 5.43608H1.79543C1.63591 5.76065 1.49266 6.09661 1.36407 6.44965C1.35919 6.45535 1.35919 6.46104 1.3543 6.46674C1.15897 7.01338 1.00433 7.57711 0.906667 8.16361C0.828534 8.62105 0.776446 9.08228 0.761796 9.56249ZM2.28376 4.55917H4.7889C5.50512 3.35959 6.44597 2.15431 7.61959 0.941444C7.40798 0.971814 7.20288 1.00788 7.00266 1.05533C6.49317 1.17491 6.00484 1.34953 5.53116 1.58869C5.0526 1.82784 4.60496 2.11066 4.18825 2.43523C3.77154 2.7598 3.39064 3.12423 3.03579 3.53991C2.76395 3.85878 2.51165 4.19284 2.28539 4.55348V4.55917H2.28376ZM9.53384 0.941444C10.7123 2.15242 11.6532 3.35959 12.3629 4.55917H14.868C14.6418 4.19854 14.3895 3.86258 14.1176 3.5456C13.7628 3.13182 13.3819 2.76549 12.9652 2.44092C12.5534 2.11635 12.1057 1.83544 11.6223 1.59438C11.6174 1.58869 11.6125 1.58869 11.6076 1.58299C11.1388 1.35522 10.6554 1.17491 10.1524 1.06102C9.9473 1.01357 9.74057 0.977508 9.53547 0.947139V0.941444H9.53384ZM8.9511 1.51087V4.55917H11.4416C10.7889 3.5513 9.96032 2.53772 8.9511 1.51087ZM8.2007 18.5252V15.4408H5.58162C6.25552 16.4734 7.13126 17.5059 8.2007 18.5252ZM8.2007 14.5658V10.4375H3.86921C3.91478 11.8231 4.31684 13.1973 5.05748 14.5639H8.2007V14.5658ZM8.2007 9.56249V5.43608H5.18607C4.41451 6.83306 3.98152 8.20727 3.88386 9.56249H8.2007ZM8.2007 4.55917V1.51087C7.19311 2.53583 6.36458 3.5513 5.71021 4.55917H8.2007Z" fill="black"/>
</svg>
