<svg width="20" height="20" viewBox="0 0 20 20" fill="none" xmlns="http://www.w3.org/2000/svg">
<path d="M11.8506 16.4335C11.2272 17.3123 10.472 18.1835 9.58984 19.0472C9.78027 19.0168 9.9707 18.9807 10.1563 18.939C10.6657 18.8194 11.154 18.6448 11.6276 18.4056C11.8685 18.2841 12.1029 18.1532 12.3275 18.0108L12.3454 18.0716C12.4316 18.3582 12.5456 18.5954 12.6807 18.7852C12.4333 18.9409 12.1794 19.0851 11.9189 19.2142C11.3949 19.478 10.8545 19.6697 10.2979 19.8026C9.74284 19.9355 9.16667 20 8.57422 20C7.98177 20 7.41211 19.9336 6.85059 19.8026C6.30046 19.6773 5.76986 19.4856 5.25065 19.2275C5.24577 19.2275 5.236 19.2218 5.22949 19.2161C4.71517 18.958 4.22689 18.6467 3.7679 18.2917C3.31055 17.9387 2.889 17.5306 2.50163 17.0808C2.111 16.6309 1.76595 16.1393 1.46322 15.6041C1.15397 15.0707 0.891927 14.4994 0.670573 13.8996C0.444336 13.2884 0.279948 12.6583 0.166016 12.0091C0.0569661 11.3619 0 10.6899 0 10.0009C0 9.31195 0.0569661 8.64572 0.169271 7.99089C0.276693 7.34934 0.442708 6.73057 0.662435 6.12508C0.662435 6.11939 0.667318 6.108 0.672201 6.10041C0.893555 5.49492 1.16048 4.93119 1.46484 4.39594C1.76758 3.86258 2.11751 3.37098 2.50326 2.91924C2.889 2.4637 3.31055 2.06131 3.76953 1.70827C4.22689 1.34763 4.7168 1.04204 5.23112 0.783904C5.75521 0.520072 6.29557 0.328367 6.85221 0.195502C7.40723 0.0664326 7.9834 0 8.57585 0C9.16829 0 9.73796 0.0664326 10.2995 0.1974C10.8496 0.322672 11.3802 0.514378 11.8994 0.772516C11.9043 0.772516 11.9141 0.77821 11.9206 0.783904C12.4349 1.04204 12.9232 1.35333 13.3822 1.70827C13.8395 2.06131 14.2611 2.46939 14.6484 2.91924C15.0391 3.36908 15.3841 3.86068 15.6868 4.39594C15.9961 4.9293 16.2581 5.50062 16.4795 6.10041C16.7057 6.71159 16.8701 7.34175 16.984 7.99089C16.9906 8.02885 16.9971 8.06681 17.0036 8.10477L16.1719 7.76312C16.0758 7.31328 15.9505 6.87672 15.791 6.44965C15.6624 6.09661 15.5176 5.76065 15.3597 5.43608H12.8451C13.042 5.82898 13.2145 6.21999 13.3626 6.61099L12.3535 6.19721C12.2347 5.94477 12.1061 5.69042 11.9661 5.43608H10.4964C10.3239 5.37345 10.1383 5.35826 9.95768 5.39053C9.90072 5.40192 9.84375 5.4171 9.78678 5.43608H8.9502V9.56249H9.77539L10.0391 10.4375H8.9502V14.5639H11.2858L11.5495 15.4389H8.9502V18.5252C10.0098 17.5116 10.8789 16.4867 11.556 15.4617L11.8506 16.4335ZM18.278 17.6141C18.1527 17.7451 17.959 17.747 17.8451 17.6141L15.5697 14.9758L14.4906 17.4794C14.165 18.2348 13.5856 18.5764 13.3122 17.673L10.0391 6.83306C9.97233 6.61099 10.0521 6.52178 10.2409 6.5996L19.5345 10.4147C20.3092 10.7336 20.0146 11.4093 19.3685 11.7889L17.2217 13.0474L19.4841 15.699C19.5964 15.8318 19.5964 16.0596 19.4841 16.2039L18.278 17.6141ZM7.56673 19.0472C6.35254 17.859 5.38086 16.6594 4.65983 15.4427H2.28841C2.51465 15.8034 2.76693 16.1393 3.03874 16.4563C3.39355 16.8701 3.77441 17.2364 4.19108 17.561C4.60286 17.8855 5.05046 18.1665 5.53385 18.4075C5.54036 18.4113 5.54525 18.4113 5.55013 18.417C6.01888 18.6448 6.50228 18.8251 7.00521 18.939C7.19076 18.9807 7.38119 19.0168 7.57161 19.0472H7.56673ZM1.79525 14.5658H4.18294C3.51888 13.2106 3.15918 11.8307 3.11849 10.4394H0.761719C0.782878 10.9196 0.828451 11.3808 0.906576 11.8364C1.00911 12.4305 1.15885 12.9999 1.36393 13.5522C1.49251 13.9053 1.63574 14.2412 1.79525 14.5658ZM0.761719 9.56249H3.13314C3.22103 8.19398 3.61165 6.82168 4.30664 5.43608H1.79525C1.63574 5.76065 1.49251 6.09661 1.36393 6.44965C1.35905 6.45535 1.35905 6.46104 1.35417 6.46674C1.15885 7.01338 1.00423 7.57711 0.906576 8.16361C0.828451 8.62105 0.776367 9.08228 0.761719 9.56249ZM2.28353 4.55917H4.78841C5.50456 3.35959 6.44531 2.15431 7.61882 0.941444C7.40723 0.971814 7.20215 1.00788 7.00195 1.05533C6.49251 1.17491 6.00423 1.34953 5.5306 1.58869C5.05208 1.82784 4.60449 2.11066 4.18783 2.43523C3.77116 2.7598 3.3903 3.12423 3.03548 3.53991C2.76367 3.85878 2.51139 4.19284 2.28516 4.55348V4.55917H2.28353ZM9.53288 0.941444C10.7113 2.15242 11.652 3.35959 12.3617 4.55917H14.8665C14.6403 4.19854 14.388 3.86258 14.1162 3.5456C13.7614 3.13182 13.3805 2.76549 12.9639 2.44092C12.5521 2.11635 12.1045 1.83544 11.6211 1.59438C11.6162 1.58869 11.6113 1.58869 11.6064 1.58299C11.1377 1.35522 10.6543 1.17491 10.1514 1.06102C9.94629 1.01357 9.73958 0.977508 9.53451 0.947139V0.941444H9.53288ZM8.9502 1.51087V4.55917H11.4404C10.7878 3.5513 9.95931 2.53772 8.9502 1.51087ZM8.19987 18.5252V15.4408H5.58106C6.25488 16.4734 7.13053 17.5059 8.19987 18.5252ZM8.19987 14.5658V10.4375H3.86882C3.91439 11.8231 4.31641 13.1973 5.05697 14.5639H8.19987V14.5658ZM8.19987 9.56249V5.43608H5.18555C4.41406 6.83306 3.98112 8.20727 3.88346 9.56249H8.19987ZM8.19987 4.55917V1.51087C7.19238 2.53583 6.36393 3.5513 5.70964 4.55917H8.19987Z" fill="black"/>
</svg>
