<svg width="20" height="17" viewBox="0 0 20 17" fill="none" xmlns="http://www.w3.org/2000/svg">
<path fill-rule="evenodd" clip-rule="evenodd" d="M19.7959 3.6677C19.7959 3.6677 19.6006 2.00176 18.9997 1.27029C18.2383 0.308187 17.3857 0.301956 16.9959 0.246217C14.1993 -1.19209e-07 9.99906 0 9.99906 0H9.99169C9.99169 0 5.79327 -1.19209e-07 2.99516 0.246217C2.60392 0.303731 1.75244 0.307772 0.991356 1.27029C0.390118 2.00176 0.198934 3.6677 0.198934 3.6677C0.198934 3.6677 0 5.62263 0 7.58161V9.41348C0 11.3684 0.198934 13.3274 0.198934 13.3274C0.198934 13.3274 0.39418 14.9933 0.991356 15.7261C1.75244 16.6882 2.75267 16.657 3.19928 16.7596C4.80041 16.9443 10.0005 17 10.0005 17C10.0005 17 14.2045 16.9911 17.0011 16.7493C17.3923 16.6936 18.2434 16.6878 19.0049 15.7252C19.6061 14.9937 19.801 13.326 19.801 13.326C19.801 13.326 20 11.3711 20 9.41212V7.58029C19.9959 5.62532 19.797 3.66638 19.797 3.66638L19.7959 3.6677ZM7.92735 11.636V4.84346L13.3301 8.25112L7.92735 11.636Z" fill="black"/>
</svg>
